<svg version="1.1" xmlns="http://www.w3.org/2000/svg" viewBox="0 0 1094.7406955295137 884.745414685879" width="3284.222086588541" height="2654.236244057637">
  <!-- svg-source:excalidraw -->
  
  <defs>
    <style>
      @font-face {
        font-family: "Virgil";
        src: url("https://excalidraw.com/Virgil.woff2");
      }
      @font-face {
        font-family: "Cascadia";
        src: url("https://excalidraw.com/Cascadia.woff2");
      }
    </style>
  </defs>
  <rect x="0" y="0" width="1094.7406955295137" height="884.745414685879" fill="#ffffff"></rect><g transform="translate(872.9630010695682 661.8934724115725) rotate(0 47 10.5)"><text x="47" y="17" font-family="Helvetica, Segoe UI Emoji" font-size="18.608326211806087px" fill="#000000" text-anchor="middle" style="white-space: pre;" direction="ltr">RDF Store </text></g><g transform="translate(479.2592521546371 251.15267515679898) rotate(0 47 10.5)"><text x="47" y="17" font-family="Helvetica, Segoe UI Emoji" font-size="18.608326211806087px" fill="#000000" text-anchor="middle" style="white-space: pre;" direction="ltr">RDF Store </text></g><g transform="translate(127.77786109560975 853.745414685879) rotate(0 47 10.5)"><text x="47" y="17" font-family="Helvetica, Segoe UI Emoji" font-size="18.608326211806087px" fill="#000000" text-anchor="middle" style="white-space: pre;" direction="ltr">RDF Store </text></g><g transform="translate(931.7406955295137 465.24531974230194) rotate(0 76.5 17.5)"><text x="76.5" y="28" font-family="Helvetica, Segoe UI Emoji" font-size="29.980063091051107px" fill="#000000" text-anchor="middle" style="white-space: pre;" direction="ltr">endpoint B </text></g><g transform="translate(363.74069552951323 64.8748702522862) rotate(0 74.5 17.5)"><text x="74.5" y="28" font-family="Helvetica, Segoe UI Emoji" font-size="29.980063091051107px" fill="#000000" text-anchor="middle" style="white-space: pre;" direction="ltr">endpoint A </text></g><g transform="translate(10 662.2825376242472) rotate(0 77.5 17.5)"><text x="77.5" y="28" font-family="Helvetica, Segoe UI Emoji" font-size="29.980063091051107px" fill="#000000" text-anchor="middle" style="white-space: pre;" direction="ltr">endpoint C </text></g><g stroke-linecap="round"><g transform="translate(877.4630659882941 559.1163244545724) rotate(0 37.90821417160964 41.290243759779514)" fill-rule="evenodd"><path d="M0 0 L-0.21 82.48 L1.1 84.87 L9.53 88.08 L17.53 89.46 L40.54 90.42 L62.53 88.88 L69.64 87.14 L75.74 83.85 L75.99 -1.12 L75.49 -0.3 L70.6 -3.94 L66.62 -5.12 L36.86 -7.83 L18.05 -6.77 L9.68 -5.11 L3.26 -3.18 L0.68 -1.39 L0 0" stroke="none" stroke-width="0" fill="#ced4da" fill-rule="evenodd"></path><path d="M0 0 C0.04 12.38, 0.25 60.47, 0.25 74.26 C0.25 88.04, -0.6 80.69, 0.01 82.71 C0.62 84.73, 1 85.24, 3.92 86.36 C6.84 87.49, 11.43 88.78, 17.53 89.46 C23.64 90.13, 33.04 90.51, 40.54 90.42 C48.04 90.32, 56.91 89.75, 62.53 88.88 C68.14 88.01, 71.98 86.34, 74.21 85.21 C76.43 84.08, 75.54 83.76, 75.85 82.11 C76.17 80.46, 76.08 87.95, 76.08 75.3 C76.09 62.66, 76 18.83, 75.9 6.23 C75.8 -6.37, 76.38 1.4, 75.49 -0.3 C74.61 -1.99, 73.14 -2.98, 70.6 -3.94 C68.07 -4.9, 65.94 -5.41, 60.31 -6.06 C54.69 -6.7, 43.9 -7.71, 36.86 -7.83 C29.81 -7.95, 23.65 -7.55, 18.05 -6.77 C12.45 -6, 6.27 -4.3, 3.26 -3.18 C0.24 -2.06, 0.5 -0.57, -0.04 -0.04 C-0.58 0.49, -0.01 -0.01, 0 0 M0 0 C0.04 12.38, 0.25 60.47, 0.25 74.26 C0.25 88.04, -0.6 80.69, 0.01 82.71 C0.62 84.73, 1 85.24, 3.92 86.36 C6.84 87.49, 11.43 88.78, 17.53 89.46 C23.64 90.13, 33.04 90.51, 40.54 90.42 C48.04 90.32, 56.91 89.75, 62.53 88.88 C68.14 88.01, 71.98 86.34, 74.21 85.21 C76.43 84.08, 75.54 83.76, 75.85 82.11 C76.17 80.46, 76.08 87.95, 76.08 75.3 C76.09 62.66, 76 18.83, 75.9 6.23 C75.8 -6.37, 76.38 1.4, 75.49 -0.3 C74.61 -1.99, 73.14 -2.98, 70.6 -3.94 C68.07 -4.9, 65.94 -5.41, 60.31 -6.06 C54.69 -6.7, 43.9 -7.71, 36.86 -7.83 C29.81 -7.95, 23.65 -7.55, 18.05 -6.77 C12.45 -6, 6.27 -4.3, 3.26 -3.18 C0.24 -2.06, 0.5 -0.57, -0.04 -0.04 C-0.58 0.49, -0.01 -0.01, 0 0" stroke="#000000" stroke-width="1" fill="none"></path></g></g><g stroke-linecap="round" transform="translate(876.8910441578373 550.2471472315747) rotate(0 37.818403832750846 7.648487655639656)"><path d="M75.64 7.65 C75.64 8.09, 75.44 8.54, 75.06 8.98 C74.68 9.41, 74.1 9.85, 73.36 10.26 C72.61 10.68, 71.66 11.09, 70.57 11.47 C69.48 11.86, 68.2 12.23, 66.79 12.56 C65.38 12.9, 63.8 13.22, 62.13 13.51 C60.45 13.79, 58.62 14.05, 56.73 14.27 C54.83 14.49, 52.81 14.68, 50.75 14.84 C48.7 14.99, 46.54 15.1, 44.39 15.18 C42.23 15.26, 40.01 15.3, 37.82 15.3 C35.63 15.3, 33.41 15.26, 31.25 15.18 C29.1 15.1, 26.94 14.99, 24.88 14.84 C22.83 14.68, 20.8 14.49, 18.91 14.27 C17.01 14.05, 15.19 13.79, 13.51 13.51 C11.83 13.22, 10.25 12.9, 8.85 12.56 C7.44 12.23, 6.16 11.86, 5.07 11.47 C3.97 11.09, 3.03 10.68, 2.28 10.26 C1.53 9.85, 0.95 9.41, 0.57 8.98 C0.19 8.54, 0 8.09, 0 7.65 C0 7.21, 0.19 6.76, 0.57 6.32 C0.95 5.88, 1.53 5.45, 2.28 5.03 C3.03 4.62, 3.97 4.21, 5.07 3.82 C6.16 3.44, 7.44 3.07, 8.85 2.73 C10.25 2.39, 11.83 2.07, 13.51 1.79 C15.19 1.5, 17.01 1.25, 18.91 1.02 C20.8 0.8, 22.83 0.61, 24.88 0.46 C26.94 0.31, 29.1 0.19, 31.25 0.12 C33.41 0.04, 35.63 0, 37.82 0 C40.01 0, 42.23 0.04, 44.39 0.12 C46.54 0.19, 48.7 0.31, 50.75 0.46 C52.81 0.61, 54.83 0.8, 56.73 1.02 C58.62 1.25, 60.45 1.5, 62.13 1.79 C63.8 2.07, 65.38 2.39, 66.79 2.73 C68.2 3.07, 69.48 3.44, 70.57 3.82 C71.66 4.21, 72.61 4.62, 73.36 5.03 C74.1 5.45, 74.68 5.88, 75.06 6.32 C75.44 6.76, 75.54 7.43, 75.64 7.65 C75.73 7.87, 75.73 7.43, 75.64 7.65" stroke="none" stroke-width="0" fill="#fff"></path><path d="M75.64 7.65 C75.64 8.09, 75.44 8.54, 75.06 8.98 C74.68 9.41, 74.1 9.85, 73.36 10.26 C72.61 10.68, 71.66 11.09, 70.57 11.47 C69.48 11.86, 68.2 12.23, 66.79 12.56 C65.38 12.9, 63.8 13.22, 62.13 13.51 C60.45 13.79, 58.62 14.05, 56.73 14.27 C54.83 14.49, 52.81 14.68, 50.75 14.84 C48.7 14.99, 46.54 15.1, 44.39 15.18 C42.23 15.26, 40.01 15.3, 37.82 15.3 C35.63 15.3, 33.41 15.26, 31.25 15.18 C29.1 15.1, 26.94 14.99, 24.88 14.84 C22.83 14.68, 20.8 14.49, 18.91 14.27 C17.01 14.05, 15.19 13.79, 13.51 13.51 C11.83 13.22, 10.25 12.9, 8.85 12.56 C7.44 12.23, 6.16 11.86, 5.07 11.47 C3.97 11.09, 3.03 10.68, 2.28 10.26 C1.53 9.85, 0.95 9.41, 0.57 8.98 C0.19 8.54, 0 8.09, 0 7.65 C0 7.21, 0.19 6.76, 0.57 6.32 C0.95 5.88, 1.53 5.45, 2.28 5.03 C3.03 4.62, 3.97 4.21, 5.07 3.82 C6.16 3.44, 7.44 3.07, 8.85 2.73 C10.25 2.39, 11.83 2.07, 13.51 1.79 C15.19 1.5, 17.01 1.25, 18.91 1.02 C20.8 0.8, 22.83 0.61, 24.88 0.46 C26.94 0.31, 29.1 0.19, 31.25 0.12 C33.41 0.04, 35.63 0, 37.82 0 C40.01 0, 42.23 0.04, 44.39 0.12 C46.54 0.19, 48.7 0.31, 50.75 0.46 C52.81 0.61, 54.83 0.8, 56.73 1.02 C58.62 1.25, 60.45 1.5, 62.13 1.79 C63.8 2.07, 65.38 2.39, 66.79 2.73 C68.2 3.07, 69.48 3.44, 70.57 3.82 C71.66 4.21, 72.61 4.62, 73.36 5.03 C74.1 5.45, 74.68 5.88, 75.06 6.32 C75.44 6.76, 75.54 7.43, 75.64 7.65 C75.73 7.87, 75.73 7.43, 75.64 7.65" stroke="#000000" stroke-width="1" fill="none"></path></g><g stroke-linecap="round"><g transform="translate(483.75931707336304 148.37552719979885) rotate(0 37.90821417160964 41.290243759779514)" fill-rule="evenodd"><path d="M0 0 L-0.21 82.48 L1.1 84.87 L9.53 88.08 L17.53 89.46 L40.54 90.42 L62.53 88.88 L69.64 87.14 L75.74 83.85 L75.99 -1.12 L75.49 -0.3 L70.6 -3.94 L66.62 -5.12 L36.86 -7.83 L18.05 -6.77 L9.68 -5.11 L3.26 -3.18 L0.68 -1.39 L0 0" stroke="none" stroke-width="0" fill="#ced4da" fill-rule="evenodd"></path><path d="M0 0 C0.04 12.38, 0.25 60.47, 0.25 74.26 C0.25 88.04, -0.6 80.69, 0.01 82.71 C0.62 84.73, 1 85.24, 3.92 86.36 C6.84 87.49, 11.43 88.78, 17.53 89.46 C23.64 90.13, 33.04 90.51, 40.54 90.42 C48.04 90.32, 56.91 89.75, 62.53 88.88 C68.14 88.01, 71.98 86.34, 74.21 85.21 C76.43 84.08, 75.54 83.76, 75.85 82.11 C76.17 80.46, 76.08 87.95, 76.08 75.3 C76.09 62.66, 76 18.83, 75.9 6.23 C75.8 -6.37, 76.38 1.4, 75.49 -0.3 C74.61 -1.99, 73.14 -2.98, 70.6 -3.94 C68.07 -4.9, 65.94 -5.41, 60.31 -6.06 C54.69 -6.7, 43.9 -7.71, 36.86 -7.83 C29.81 -7.95, 23.65 -7.55, 18.05 -6.77 C12.45 -6, 6.27 -4.3, 3.26 -3.18 C0.24 -2.06, 0.5 -0.57, -0.04 -0.04 C-0.58 0.49, -0.01 -0.01, 0 0 M0 0 C0.04 12.38, 0.25 60.47, 0.25 74.26 C0.25 88.04, -0.6 80.69, 0.01 82.71 C0.62 84.73, 1 85.24, 3.92 86.36 C6.84 87.49, 11.43 88.78, 17.53 89.46 C23.64 90.13, 33.04 90.51, 40.54 90.42 C48.04 90.32, 56.91 89.75, 62.53 88.88 C68.14 88.01, 71.98 86.34, 74.21 85.21 C76.43 84.08, 75.54 83.76, 75.85 82.11 C76.17 80.46, 76.08 87.95, 76.08 75.3 C76.09 62.66, 76 18.83, 75.9 6.23 C75.8 -6.37, 76.38 1.4, 75.49 -0.3 C74.61 -1.99, 73.14 -2.98, 70.6 -3.94 C68.07 -4.9, 65.94 -5.41, 60.31 -6.06 C54.69 -6.7, 43.9 -7.71, 36.86 -7.83 C29.81 -7.95, 23.65 -7.55, 18.05 -6.77 C12.45 -6, 6.27 -4.3, 3.26 -3.18 C0.24 -2.06, 0.5 -0.57, -0.04 -0.04 C-0.58 0.49, -0.01 -0.01, 0 0" stroke="#000000" stroke-width="1" fill="none"></path></g></g><g stroke-linecap="round" transform="translate(483.1872952429062 139.50634997680118) rotate(0 37.818403832750846 7.648487655639656)"><path d="M75.64 7.65 C75.64 8.09, 75.44 8.54, 75.06 8.98 C74.68 9.41, 74.1 9.85, 73.36 10.26 C72.61 10.68, 71.66 11.09, 70.57 11.47 C69.48 11.86, 68.2 12.23, 66.79 12.56 C65.38 12.9, 63.8 13.22, 62.13 13.51 C60.45 13.79, 58.62 14.05, 56.73 14.27 C54.83 14.49, 52.81 14.68, 50.75 14.84 C48.7 14.99, 46.54 15.1, 44.39 15.18 C42.23 15.26, 40.01 15.3, 37.82 15.3 C35.63 15.3, 33.41 15.26, 31.25 15.18 C29.1 15.1, 26.94 14.99, 24.88 14.84 C22.83 14.68, 20.8 14.49, 18.91 14.27 C17.01 14.05, 15.19 13.79, 13.51 13.51 C11.83 13.22, 10.25 12.9, 8.85 12.56 C7.44 12.23, 6.16 11.86, 5.07 11.47 C3.97 11.09, 3.03 10.68, 2.28 10.26 C1.53 9.85, 0.95 9.41, 0.57 8.98 C0.19 8.54, 0 8.09, 0 7.65 C0 7.21, 0.19 6.76, 0.57 6.32 C0.95 5.88, 1.53 5.45, 2.28 5.03 C3.03 4.62, 3.97 4.21, 5.07 3.82 C6.16 3.44, 7.44 3.07, 8.85 2.73 C10.25 2.39, 11.83 2.07, 13.51 1.79 C15.19 1.5, 17.01 1.25, 18.91 1.02 C20.8 0.8, 22.83 0.61, 24.88 0.46 C26.94 0.31, 29.1 0.19, 31.25 0.12 C33.41 0.04, 35.63 0, 37.82 0 C40.01 0, 42.23 0.04, 44.39 0.12 C46.54 0.19, 48.7 0.31, 50.75 0.46 C52.81 0.61, 54.83 0.8, 56.73 1.02 C58.62 1.25, 60.45 1.5, 62.13 1.79 C63.8 2.07, 65.38 2.39, 66.79 2.73 C68.2 3.07, 69.48 3.44, 70.57 3.82 C71.66 4.21, 72.61 4.62, 73.36 5.03 C74.1 5.45, 74.68 5.88, 75.06 6.32 C75.44 6.76, 75.54 7.43, 75.64 7.65 C75.73 7.87, 75.73 7.43, 75.64 7.65" stroke="none" stroke-width="0" fill="#fff"></path><path d="M75.64 7.65 C75.64 8.09, 75.44 8.54, 75.06 8.98 C74.68 9.41, 74.1 9.85, 73.36 10.26 C72.61 10.68, 71.66 11.09, 70.57 11.47 C69.48 11.86, 68.2 12.23, 66.79 12.56 C65.38 12.9, 63.8 13.22, 62.13 13.51 C60.45 13.79, 58.62 14.05, 56.73 14.27 C54.83 14.49, 52.81 14.68, 50.75 14.84 C48.7 14.99, 46.54 15.1, 44.39 15.18 C42.23 15.26, 40.01 15.3, 37.82 15.3 C35.63 15.3, 33.41 15.26, 31.25 15.18 C29.1 15.1, 26.94 14.99, 24.88 14.84 C22.83 14.68, 20.8 14.49, 18.91 14.27 C17.01 14.05, 15.19 13.79, 13.51 13.51 C11.83 13.22, 10.25 12.9, 8.85 12.56 C7.44 12.23, 6.16 11.86, 5.07 11.47 C3.97 11.09, 3.03 10.68, 2.28 10.26 C1.53 9.85, 0.95 9.41, 0.57 8.98 C0.19 8.54, 0 8.09, 0 7.65 C0 7.21, 0.19 6.76, 0.57 6.32 C0.95 5.88, 1.53 5.45, 2.28 5.03 C3.03 4.62, 3.97 4.21, 5.07 3.82 C6.16 3.44, 7.44 3.07, 8.85 2.73 C10.25 2.39, 11.83 2.07, 13.51 1.79 C15.19 1.5, 17.01 1.25, 18.91 1.02 C20.8 0.8, 22.83 0.61, 24.88 0.46 C26.94 0.31, 29.1 0.19, 31.25 0.12 C33.41 0.04, 35.63 0, 37.82 0 C40.01 0, 42.23 0.04, 44.39 0.12 C46.54 0.19, 48.7 0.31, 50.75 0.46 C52.81 0.61, 54.83 0.8, 56.73 1.02 C58.62 1.25, 60.45 1.5, 62.13 1.79 C63.8 2.07, 65.38 2.39, 66.79 2.73 C68.2 3.07, 69.48 3.44, 70.57 3.82 C71.66 4.21, 72.61 4.62, 73.36 5.03 C74.1 5.45, 74.68 5.88, 75.06 6.32 C75.44 6.76, 75.54 7.43, 75.64 7.65 C75.73 7.87, 75.73 7.43, 75.64 7.65" stroke="#000000" stroke-width="1" fill="none"></path></g><g stroke-linecap="round"><g transform="translate(132.27792601433566 750.9682667288789) rotate(0 37.90821417160964 41.290243759779514)" fill-rule="evenodd"><path d="M0 0 L-0.21 82.48 L1.1 84.87 L9.53 88.08 L17.53 89.46 L40.54 90.42 L62.53 88.88 L69.64 87.14 L75.74 83.85 L75.99 -1.12 L75.49 -0.3 L70.6 -3.94 L66.62 -5.12 L36.86 -7.83 L18.05 -6.77 L9.68 -5.11 L3.26 -3.18 L0.68 -1.39 L0 0" stroke="none" stroke-width="0" fill="#ced4da" fill-rule="evenodd"></path><path d="M0 0 C0.04 12.38, 0.25 60.47, 0.25 74.26 C0.25 88.04, -0.6 80.69, 0.01 82.71 C0.62 84.73, 1 85.24, 3.92 86.36 C6.84 87.49, 11.43 88.78, 17.53 89.46 C23.64 90.13, 33.04 90.51, 40.54 90.42 C48.04 90.32, 56.91 89.75, 62.53 88.88 C68.14 88.01, 71.98 86.34, 74.21 85.21 C76.43 84.08, 75.54 83.76, 75.85 82.11 C76.17 80.46, 76.08 87.95, 76.08 75.3 C76.09 62.66, 76 18.83, 75.9 6.23 C75.8 -6.37, 76.38 1.4, 75.49 -0.3 C74.61 -1.99, 73.14 -2.98, 70.6 -3.94 C68.07 -4.9, 65.94 -5.41, 60.31 -6.06 C54.69 -6.7, 43.9 -7.71, 36.86 -7.83 C29.81 -7.95, 23.65 -7.55, 18.05 -6.77 C12.45 -6, 6.27 -4.3, 3.26 -3.18 C0.24 -2.06, 0.5 -0.57, -0.04 -0.04 C-0.58 0.49, -0.01 -0.01, 0 0 M0 0 C0.04 12.38, 0.25 60.47, 0.25 74.26 C0.25 88.04, -0.6 80.69, 0.01 82.71 C0.62 84.73, 1 85.24, 3.92 86.36 C6.84 87.49, 11.43 88.78, 17.53 89.46 C23.64 90.13, 33.04 90.51, 40.54 90.42 C48.04 90.32, 56.91 89.75, 62.53 88.88 C68.14 88.01, 71.98 86.34, 74.21 85.21 C76.43 84.08, 75.54 83.76, 75.85 82.11 C76.17 80.46, 76.08 87.95, 76.08 75.3 C76.09 62.66, 76 18.83, 75.9 6.23 C75.8 -6.37, 76.38 1.4, 75.49 -0.3 C74.61 -1.99, 73.14 -2.98, 70.6 -3.94 C68.07 -4.9, 65.94 -5.41, 60.31 -6.06 C54.69 -6.7, 43.9 -7.71, 36.86 -7.83 C29.81 -7.95, 23.65 -7.55, 18.05 -6.77 C12.45 -6, 6.27 -4.3, 3.26 -3.18 C0.24 -2.06, 0.5 -0.57, -0.04 -0.04 C-0.58 0.49, -0.01 -0.01, 0 0" stroke="#000000" stroke-width="1" fill="none"></path></g></g><g stroke-linecap="round" transform="translate(131.70590418387883 742.0990895058812) rotate(0 37.818403832750846 7.648487655639656)"><path d="M75.64 7.65 C75.64 8.09, 75.44 8.54, 75.06 8.98 C74.68 9.41, 74.1 9.85, 73.36 10.26 C72.61 10.68, 71.66 11.09, 70.57 11.47 C69.48 11.86, 68.2 12.23, 66.79 12.56 C65.38 12.9, 63.8 13.22, 62.13 13.51 C60.45 13.79, 58.62 14.05, 56.73 14.27 C54.83 14.49, 52.81 14.68, 50.75 14.84 C48.7 14.99, 46.54 15.1, 44.39 15.18 C42.23 15.26, 40.01 15.3, 37.82 15.3 C35.63 15.3, 33.41 15.26, 31.25 15.18 C29.1 15.1, 26.94 14.99, 24.88 14.84 C22.83 14.68, 20.8 14.49, 18.91 14.27 C17.01 14.05, 15.19 13.79, 13.51 13.51 C11.83 13.22, 10.25 12.9, 8.85 12.56 C7.44 12.23, 6.16 11.86, 5.07 11.47 C3.97 11.09, 3.03 10.68, 2.28 10.26 C1.53 9.85, 0.95 9.41, 0.57 8.98 C0.19 8.54, 0 8.09, 0 7.65 C0 7.21, 0.19 6.76, 0.57 6.32 C0.95 5.88, 1.53 5.45, 2.28 5.03 C3.03 4.62, 3.97 4.21, 5.07 3.82 C6.16 3.44, 7.44 3.07, 8.85 2.73 C10.25 2.39, 11.83 2.07, 13.51 1.79 C15.19 1.5, 17.01 1.25, 18.91 1.02 C20.8 0.8, 22.83 0.61, 24.88 0.46 C26.94 0.31, 29.1 0.19, 31.25 0.12 C33.41 0.04, 35.63 0, 37.82 0 C40.01 0, 42.23 0.04, 44.39 0.12 C46.54 0.19, 48.7 0.31, 50.75 0.46 C52.81 0.61, 54.83 0.8, 56.73 1.02 C58.62 1.25, 60.45 1.5, 62.13 1.79 C63.8 2.07, 65.38 2.39, 66.79 2.73 C68.2 3.07, 69.48 3.44, 70.57 3.82 C71.66 4.21, 72.61 4.62, 73.36 5.03 C74.1 5.45, 74.68 5.88, 75.06 6.32 C75.44 6.76, 75.54 7.43, 75.64 7.65 C75.73 7.87, 75.73 7.43, 75.64 7.65" stroke="none" stroke-width="0" fill="#fff"></path><path d="M75.64 7.65 C75.64 8.09, 75.44 8.54, 75.06 8.98 C74.68 9.41, 74.1 9.85, 73.36 10.26 C72.61 10.68, 71.66 11.09, 70.57 11.47 C69.48 11.86, 68.2 12.23, 66.79 12.56 C65.38 12.9, 63.8 13.22, 62.13 13.51 C60.45 13.79, 58.62 14.05, 56.73 14.27 C54.83 14.49, 52.81 14.68, 50.75 14.84 C48.7 14.99, 46.54 15.1, 44.39 15.18 C42.23 15.26, 40.01 15.3, 37.82 15.3 C35.63 15.3, 33.41 15.26, 31.25 15.18 C29.1 15.1, 26.94 14.99, 24.88 14.84 C22.83 14.68, 20.8 14.49, 18.91 14.27 C17.01 14.05, 15.19 13.79, 13.51 13.51 C11.83 13.22, 10.25 12.9, 8.85 12.56 C7.44 12.23, 6.16 11.86, 5.07 11.47 C3.97 11.09, 3.03 10.68, 2.28 10.26 C1.53 9.85, 0.95 9.41, 0.57 8.98 C0.19 8.54, 0 8.09, 0 7.65 C0 7.21, 0.19 6.76, 0.57 6.32 C0.95 5.88, 1.53 5.45, 2.28 5.03 C3.03 4.62, 3.97 4.21, 5.07 3.82 C6.16 3.44, 7.44 3.07, 8.85 2.73 C10.25 2.39, 11.83 2.07, 13.51 1.79 C15.19 1.5, 17.01 1.25, 18.91 1.02 C20.8 0.8, 22.83 0.61, 24.88 0.46 C26.94 0.31, 29.1 0.19, 31.25 0.12 C33.41 0.04, 35.63 0, 37.82 0 C40.01 0, 42.23 0.04, 44.39 0.12 C46.54 0.19, 48.7 0.31, 50.75 0.46 C52.81 0.61, 54.83 0.8, 56.73 1.02 C58.62 1.25, 60.45 1.5, 62.13 1.79 C63.8 2.07, 65.38 2.39, 66.79 2.73 C68.2 3.07, 69.48 3.44, 70.57 3.82 C71.66 4.21, 72.61 4.62, 73.36 5.03 C74.1 5.45, 74.68 5.88, 75.06 6.32 C75.44 6.76, 75.54 7.43, 75.64 7.65 C75.73 7.87, 75.73 7.43, 75.64 7.65" stroke="#000000" stroke-width="1" fill="none"></path></g><g stroke-linecap="round" transform="translate(911.1384313521653 573.4610790411534) rotate(0 4.803511280661041 4.803511280661041)"><path d="M9.61 4.8 C9.61 5.08, 9.58 5.36, 9.53 5.64 C9.49 5.91, 9.41 6.19, 9.32 6.45 C9.22 6.71, 9.1 6.96, 8.96 7.21 C8.82 7.45, 8.66 7.68, 8.48 7.89 C8.3 8.1, 8.1 8.3, 7.89 8.48 C7.68 8.66, 7.45 8.82, 7.21 8.96 C6.96 9.1, 6.71 9.22, 6.45 9.32 C6.19 9.41, 5.91 9.49, 5.64 9.53 C5.36 9.58, 5.08 9.61, 4.8 9.61 C4.53 9.61, 4.24 9.58, 3.97 9.53 C3.7 9.49, 3.42 9.41, 3.16 9.32 C2.9 9.22, 2.64 9.1, 2.4 8.96 C2.16 8.82, 1.93 8.66, 1.72 8.48 C1.5 8.3, 1.3 8.1, 1.12 7.89 C0.95 7.68, 0.78 7.45, 0.64 7.21 C0.5 6.96, 0.38 6.71, 0.29 6.45 C0.19 6.19, 0.12 5.91, 0.07 5.64 C0.02 5.36, 0 5.08, 0 4.8 C0 4.53, 0.02 4.24, 0.07 3.97 C0.12 3.7, 0.19 3.42, 0.29 3.16 C0.38 2.9, 0.5 2.64, 0.64 2.4 C0.78 2.16, 0.95 1.93, 1.12 1.72 C1.3 1.5, 1.5 1.3, 1.72 1.12 C1.93 0.95, 2.16 0.78, 2.4 0.64 C2.64 0.5, 2.9 0.38, 3.16 0.29 C3.42 0.19, 3.7 0.12, 3.97 0.07 C4.24 0.02, 4.53 0, 4.8 0 C5.08 0, 5.36 0.02, 5.64 0.07 C5.91 0.12, 6.19 0.19, 6.45 0.29 C6.71 0.38, 6.96 0.5, 7.21 0.64 C7.45 0.78, 7.68 0.95, 7.89 1.12 C8.1 1.3, 8.3 1.5, 8.48 1.72 C8.66 1.93, 8.82 2.16, 8.96 2.4 C9.1 2.64, 9.22 2.9, 9.32 3.16 C9.41 3.42, 9.49 3.7, 9.53 3.97 C9.58 4.24, 9.59 4.66, 9.61 4.8 C9.62 4.94, 9.62 4.66, 9.61 4.8" stroke="none" stroke-width="0" fill="#868e96"></path><path d="M9.61 4.8 C9.61 5.08, 9.58 5.36, 9.53 5.64 C9.49 5.91, 9.41 6.19, 9.32 6.45 C9.22 6.71, 9.1 6.96, 8.96 7.21 C8.82 7.45, 8.66 7.68, 8.48 7.89 C8.3 8.1, 8.1 8.3, 7.89 8.48 C7.68 8.66, 7.45 8.82, 7.21 8.96 C6.96 9.1, 6.71 9.22, 6.45 9.32 C6.19 9.41, 5.91 9.49, 5.64 9.53 C5.36 9.58, 5.08 9.61, 4.8 9.61 C4.53 9.61, 4.24 9.58, 3.97 9.53 C3.7 9.49, 3.42 9.41, 3.16 9.32 C2.9 9.22, 2.64 9.1, 2.4 8.96 C2.16 8.82, 1.93 8.66, 1.72 8.48 C1.5 8.3, 1.3 8.1, 1.12 7.89 C0.95 7.68, 0.78 7.45, 0.64 7.21 C0.5 6.96, 0.38 6.71, 0.29 6.45 C0.19 6.19, 0.12 5.91, 0.07 5.64 C0.02 5.36, 0 5.08, 0 4.8 C0 4.53, 0.02 4.24, 0.07 3.97 C0.12 3.7, 0.19 3.42, 0.29 3.16 C0.38 2.9, 0.5 2.64, 0.64 2.4 C0.78 2.16, 0.95 1.93, 1.12 1.72 C1.3 1.5, 1.5 1.3, 1.72 1.12 C1.93 0.95, 2.16 0.78, 2.4 0.64 C2.64 0.5, 2.9 0.38, 3.16 0.29 C3.42 0.19, 3.7 0.12, 3.97 0.07 C4.24 0.02, 4.53 0, 4.8 0 C5.08 0, 5.36 0.02, 5.64 0.07 C5.91 0.12, 6.19 0.19, 6.45 0.29 C6.71 0.38, 6.96 0.5, 7.21 0.64 C7.45 0.78, 7.68 0.95, 7.89 1.12 C8.1 1.3, 8.3 1.5, 8.48 1.72 C8.66 1.93, 8.82 2.16, 8.96 2.4 C9.1 2.64, 9.22 2.9, 9.32 3.16 C9.41 3.42, 9.49 3.7, 9.53 3.97 C9.58 4.24, 9.59 4.66, 9.61 4.8 C9.62 4.94, 9.62 4.66, 9.61 4.8" stroke="#000000" stroke-width="1" fill="none"></path></g><g stroke-linecap="round" transform="translate(886.4943299992119 591.8397308975955) rotate(0 4.803511280661041 4.803511280661041)"><path d="M9.61 4.8 C9.61 5.08, 9.58 5.36, 9.53 5.64 C9.49 5.91, 9.41 6.19, 9.32 6.45 C9.22 6.71, 9.1 6.96, 8.96 7.21 C8.82 7.45, 8.66 7.68, 8.48 7.89 C8.3 8.1, 8.1 8.3, 7.89 8.48 C7.68 8.66, 7.45 8.82, 7.21 8.96 C6.96 9.1, 6.71 9.22, 6.45 9.32 C6.19 9.41, 5.91 9.49, 5.64 9.53 C5.36 9.58, 5.08 9.61, 4.8 9.61 C4.53 9.61, 4.24 9.58, 3.97 9.53 C3.7 9.49, 3.42 9.41, 3.16 9.32 C2.9 9.22, 2.64 9.1, 2.4 8.96 C2.16 8.82, 1.93 8.66, 1.72 8.48 C1.5 8.3, 1.3 8.1, 1.12 7.89 C0.95 7.68, 0.78 7.45, 0.64 7.21 C0.5 6.96, 0.38 6.71, 0.29 6.45 C0.19 6.19, 0.12 5.91, 0.07 5.64 C0.02 5.36, 0 5.08, 0 4.8 C0 4.53, 0.02 4.24, 0.07 3.97 C0.12 3.7, 0.19 3.42, 0.29 3.16 C0.38 2.9, 0.5 2.64, 0.64 2.4 C0.78 2.16, 0.95 1.93, 1.12 1.72 C1.3 1.5, 1.5 1.3, 1.72 1.12 C1.93 0.95, 2.16 0.78, 2.4 0.64 C2.64 0.5, 2.9 0.38, 3.16 0.29 C3.42 0.19, 3.7 0.12, 3.97 0.07 C4.24 0.02, 4.53 0, 4.8 0 C5.08 0, 5.36 0.02, 5.64 0.07 C5.91 0.12, 6.19 0.19, 6.45 0.29 C6.71 0.38, 6.96 0.5, 7.21 0.64 C7.45 0.78, 7.68 0.95, 7.89 1.12 C8.1 1.3, 8.3 1.5, 8.48 1.72 C8.66 1.93, 8.82 2.16, 8.96 2.4 C9.1 2.64, 9.22 2.9, 9.32 3.16 C9.41 3.42, 9.49 3.7, 9.53 3.97 C9.58 4.24, 9.59 4.66, 9.61 4.8 C9.62 4.94, 9.62 4.66, 9.61 4.8" stroke="none" stroke-width="0" fill="#868e96"></path><path d="M9.61 4.8 C9.61 5.08, 9.58 5.36, 9.53 5.64 C9.49 5.91, 9.41 6.19, 9.32 6.45 C9.22 6.71, 9.1 6.96, 8.96 7.21 C8.82 7.45, 8.66 7.68, 8.48 7.89 C8.3 8.1, 8.1 8.3, 7.89 8.48 C7.68 8.66, 7.45 8.82, 7.21 8.96 C6.96 9.1, 6.71 9.22, 6.45 9.32 C6.19 9.41, 5.91 9.49, 5.64 9.53 C5.36 9.58, 5.08 9.61, 4.8 9.61 C4.53 9.61, 4.24 9.58, 3.97 9.53 C3.7 9.49, 3.42 9.41, 3.16 9.32 C2.9 9.22, 2.64 9.1, 2.4 8.96 C2.16 8.82, 1.93 8.66, 1.72 8.48 C1.5 8.3, 1.3 8.1, 1.12 7.89 C0.95 7.68, 0.78 7.45, 0.64 7.21 C0.5 6.96, 0.38 6.71, 0.29 6.45 C0.19 6.19, 0.12 5.91, 0.07 5.64 C0.02 5.36, 0 5.08, 0 4.8 C0 4.53, 0.02 4.24, 0.07 3.97 C0.12 3.7, 0.19 3.42, 0.29 3.16 C0.38 2.9, 0.5 2.64, 0.64 2.4 C0.78 2.16, 0.95 1.93, 1.12 1.72 C1.3 1.5, 1.5 1.3, 1.72 1.12 C1.93 0.95, 2.16 0.78, 2.4 0.64 C2.64 0.5, 2.9 0.38, 3.16 0.29 C3.42 0.19, 3.7 0.12, 3.97 0.07 C4.24 0.02, 4.53 0, 4.8 0 C5.08 0, 5.36 0.02, 5.64 0.07 C5.91 0.12, 6.19 0.19, 6.45 0.29 C6.71 0.38, 6.96 0.5, 7.21 0.64 C7.45 0.78, 7.68 0.95, 7.89 1.12 C8.1 1.3, 8.3 1.5, 8.48 1.72 C8.66 1.93, 8.82 2.16, 8.96 2.4 C9.1 2.64, 9.22 2.9, 9.32 3.16 C9.41 3.42, 9.49 3.7, 9.53 3.97 C9.58 4.24, 9.59 4.66, 9.61 4.8 C9.62 4.94, 9.62 4.66, 9.61 4.8" stroke="#000000" stroke-width="1" fill="none"></path></g><g stroke-linecap="round" transform="translate(935.3648360720231 591.4220342644949) rotate(0 4.803511280661041 4.803511280661041)"><path d="M9.61 4.8 C9.61 5.08, 9.58 5.36, 9.53 5.64 C9.49 5.91, 9.41 6.19, 9.32 6.45 C9.22 6.71, 9.1 6.96, 8.96 7.21 C8.82 7.45, 8.66 7.68, 8.48 7.89 C8.3 8.1, 8.1 8.3, 7.89 8.48 C7.68 8.66, 7.45 8.82, 7.21 8.96 C6.96 9.1, 6.71 9.22, 6.45 9.32 C6.19 9.41, 5.91 9.49, 5.64 9.53 C5.36 9.58, 5.08 9.61, 4.8 9.61 C4.53 9.61, 4.24 9.58, 3.97 9.53 C3.7 9.49, 3.42 9.41, 3.16 9.32 C2.9 9.22, 2.64 9.1, 2.4 8.96 C2.16 8.82, 1.93 8.66, 1.72 8.48 C1.5 8.3, 1.3 8.1, 1.12 7.89 C0.95 7.68, 0.78 7.45, 0.64 7.21 C0.5 6.96, 0.38 6.71, 0.29 6.45 C0.19 6.19, 0.12 5.91, 0.07 5.64 C0.02 5.36, 0 5.08, 0 4.8 C0 4.53, 0.02 4.24, 0.07 3.97 C0.12 3.7, 0.19 3.42, 0.29 3.16 C0.38 2.9, 0.5 2.64, 0.64 2.4 C0.78 2.16, 0.95 1.93, 1.12 1.72 C1.3 1.5, 1.5 1.3, 1.72 1.12 C1.93 0.95, 2.16 0.78, 2.4 0.64 C2.64 0.5, 2.9 0.38, 3.16 0.29 C3.42 0.19, 3.7 0.12, 3.97 0.07 C4.24 0.02, 4.53 0, 4.8 0 C5.08 0, 5.36 0.02, 5.64 0.07 C5.91 0.12, 6.19 0.19, 6.45 0.29 C6.71 0.38, 6.96 0.5, 7.21 0.64 C7.45 0.78, 7.68 0.95, 7.89 1.12 C8.1 1.3, 8.3 1.5, 8.48 1.72 C8.66 1.93, 8.82 2.16, 8.96 2.4 C9.1 2.64, 9.22 2.9, 9.32 3.16 C9.41 3.42, 9.49 3.7, 9.53 3.97 C9.58 4.24, 9.59 4.66, 9.61 4.8 C9.62 4.94, 9.62 4.66, 9.61 4.8" stroke="none" stroke-width="0" fill="#868e96"></path><path d="M9.61 4.8 C9.61 5.08, 9.58 5.36, 9.53 5.64 C9.49 5.91, 9.41 6.19, 9.32 6.45 C9.22 6.71, 9.1 6.96, 8.96 7.21 C8.82 7.45, 8.66 7.68, 8.48 7.89 C8.3 8.1, 8.1 8.3, 7.89 8.48 C7.68 8.66, 7.45 8.82, 7.21 8.96 C6.96 9.1, 6.71 9.22, 6.45 9.32 C6.19 9.41, 5.91 9.49, 5.64 9.53 C5.36 9.58, 5.08 9.61, 4.8 9.61 C4.53 9.61, 4.24 9.58, 3.97 9.53 C3.7 9.49, 3.42 9.41, 3.16 9.32 C2.9 9.22, 2.64 9.1, 2.4 8.96 C2.16 8.82, 1.93 8.66, 1.72 8.48 C1.5 8.3, 1.3 8.1, 1.12 7.89 C0.95 7.68, 0.78 7.45, 0.64 7.21 C0.5 6.96, 0.38 6.71, 0.29 6.45 C0.19 6.19, 0.12 5.91, 0.07 5.64 C0.02 5.36, 0 5.08, 0 4.8 C0 4.53, 0.02 4.24, 0.07 3.97 C0.12 3.7, 0.19 3.42, 0.29 3.16 C0.38 2.9, 0.5 2.64, 0.64 2.4 C0.78 2.16, 0.95 1.93, 1.12 1.72 C1.3 1.5, 1.5 1.3, 1.72 1.12 C1.93 0.95, 2.16 0.78, 2.4 0.64 C2.64 0.5, 2.9 0.38, 3.16 0.29 C3.42 0.19, 3.7 0.12, 3.97 0.07 C4.24 0.02, 4.53 0, 4.8 0 C5.08 0, 5.36 0.02, 5.64 0.07 C5.91 0.12, 6.19 0.19, 6.45 0.29 C6.71 0.38, 6.96 0.5, 7.21 0.64 C7.45 0.78, 7.68 0.95, 7.89 1.12 C8.1 1.3, 8.3 1.5, 8.48 1.72 C8.66 1.93, 8.82 2.16, 8.96 2.4 C9.1 2.64, 9.22 2.9, 9.32 3.16 C9.41 3.42, 9.49 3.7, 9.53 3.97 C9.58 4.24, 9.59 4.66, 9.61 4.8 C9.62 4.94, 9.62 4.66, 9.61 4.8" stroke="#000000" stroke-width="1" fill="none"></path></g><g stroke-linecap="round" transform="translate(927.0109034100046 620.6607985815617) rotate(0 4.803511280661041 4.803511280661041)"><path d="M9.61 4.8 C9.61 5.08, 9.58 5.36, 9.53 5.64 C9.49 5.91, 9.41 6.19, 9.32 6.45 C9.22 6.71, 9.1 6.96, 8.96 7.21 C8.82 7.45, 8.66 7.68, 8.48 7.89 C8.3 8.1, 8.1 8.3, 7.89 8.48 C7.68 8.66, 7.45 8.82, 7.21 8.96 C6.96 9.1, 6.71 9.22, 6.45 9.32 C6.19 9.41, 5.91 9.49, 5.64 9.53 C5.36 9.58, 5.08 9.61, 4.8 9.61 C4.53 9.61, 4.24 9.58, 3.97 9.53 C3.7 9.49, 3.42 9.41, 3.16 9.32 C2.9 9.22, 2.64 9.1, 2.4 8.96 C2.16 8.82, 1.93 8.66, 1.72 8.48 C1.5 8.3, 1.3 8.1, 1.12 7.89 C0.95 7.68, 0.78 7.45, 0.64 7.21 C0.5 6.96, 0.38 6.71, 0.29 6.45 C0.19 6.19, 0.12 5.91, 0.07 5.64 C0.02 5.36, 0 5.08, 0 4.8 C0 4.53, 0.02 4.24, 0.07 3.97 C0.12 3.7, 0.19 3.42, 0.29 3.16 C0.38 2.9, 0.5 2.64, 0.64 2.4 C0.78 2.16, 0.95 1.93, 1.12 1.72 C1.3 1.5, 1.5 1.3, 1.72 1.12 C1.93 0.95, 2.16 0.78, 2.4 0.64 C2.64 0.5, 2.9 0.38, 3.16 0.29 C3.42 0.19, 3.7 0.12, 3.97 0.07 C4.24 0.02, 4.53 0, 4.8 0 C5.08 0, 5.36 0.02, 5.64 0.07 C5.91 0.12, 6.19 0.19, 6.45 0.29 C6.71 0.38, 6.96 0.5, 7.21 0.64 C7.45 0.78, 7.68 0.95, 7.89 1.12 C8.1 1.3, 8.3 1.5, 8.48 1.72 C8.66 1.93, 8.82 2.16, 8.96 2.4 C9.1 2.64, 9.22 2.9, 9.32 3.16 C9.41 3.42, 9.49 3.7, 9.53 3.97 C9.58 4.24, 9.59 4.66, 9.61 4.8 C9.62 4.94, 9.62 4.66, 9.61 4.8" stroke="none" stroke-width="0" fill="#868e96"></path><path d="M9.61 4.8 C9.61 5.08, 9.58 5.36, 9.53 5.64 C9.49 5.91, 9.41 6.19, 9.32 6.45 C9.22 6.71, 9.1 6.96, 8.96 7.21 C8.82 7.45, 8.66 7.68, 8.48 7.89 C8.3 8.1, 8.1 8.3, 7.89 8.48 C7.68 8.66, 7.45 8.82, 7.21 8.96 C6.96 9.1, 6.71 9.22, 6.45 9.32 C6.19 9.41, 5.91 9.49, 5.64 9.53 C5.36 9.58, 5.08 9.61, 4.8 9.61 C4.53 9.61, 4.24 9.58, 3.97 9.53 C3.7 9.49, 3.42 9.41, 3.16 9.32 C2.9 9.22, 2.64 9.1, 2.4 8.96 C2.16 8.82, 1.93 8.66, 1.72 8.48 C1.5 8.3, 1.3 8.1, 1.12 7.89 C0.95 7.68, 0.78 7.45, 0.64 7.21 C0.5 6.96, 0.38 6.71, 0.29 6.45 C0.19 6.19, 0.12 5.91, 0.07 5.64 C0.02 5.36, 0 5.08, 0 4.8 C0 4.53, 0.02 4.24, 0.07 3.97 C0.12 3.7, 0.19 3.42, 0.29 3.16 C0.38 2.9, 0.5 2.64, 0.64 2.4 C0.78 2.16, 0.95 1.93, 1.12 1.72 C1.3 1.5, 1.5 1.3, 1.72 1.12 C1.93 0.95, 2.16 0.78, 2.4 0.64 C2.64 0.5, 2.9 0.38, 3.16 0.29 C3.42 0.19, 3.7 0.12, 3.97 0.07 C4.24 0.02, 4.53 0, 4.8 0 C5.08 0, 5.36 0.02, 5.64 0.07 C5.91 0.12, 6.19 0.19, 6.45 0.29 C6.71 0.38, 6.96 0.5, 7.21 0.64 C7.45 0.78, 7.68 0.95, 7.89 1.12 C8.1 1.3, 8.3 1.5, 8.48 1.72 C8.66 1.93, 8.82 2.16, 8.96 2.4 C9.1 2.64, 9.22 2.9, 9.32 3.16 C9.41 3.42, 9.49 3.7, 9.53 3.97 C9.58 4.24, 9.59 4.66, 9.61 4.8 C9.62 4.94, 9.62 4.66, 9.61 4.8" stroke="#000000" stroke-width="1" fill="none"></path></g><g stroke-linecap="round" transform="translate(895.4748076108826 620.8696468981116) rotate(0 4.803511280661041 4.803511280661041)"><path d="M9.61 4.8 C9.61 5.08, 9.58 5.36, 9.53 5.64 C9.49 5.91, 9.41 6.19, 9.32 6.45 C9.22 6.71, 9.1 6.96, 8.96 7.21 C8.82 7.45, 8.66 7.68, 8.48 7.89 C8.3 8.1, 8.1 8.3, 7.89 8.48 C7.68 8.66, 7.45 8.82, 7.21 8.96 C6.96 9.1, 6.71 9.22, 6.45 9.32 C6.19 9.41, 5.91 9.49, 5.64 9.53 C5.36 9.58, 5.08 9.61, 4.8 9.61 C4.53 9.61, 4.24 9.58, 3.97 9.53 C3.7 9.49, 3.42 9.41, 3.16 9.32 C2.9 9.22, 2.64 9.1, 2.4 8.96 C2.16 8.82, 1.93 8.66, 1.72 8.48 C1.5 8.3, 1.3 8.1, 1.12 7.89 C0.95 7.68, 0.78 7.45, 0.64 7.21 C0.5 6.96, 0.38 6.71, 0.29 6.45 C0.19 6.19, 0.12 5.91, 0.07 5.64 C0.02 5.36, 0 5.08, 0 4.8 C0 4.53, 0.02 4.24, 0.07 3.97 C0.12 3.7, 0.19 3.42, 0.29 3.16 C0.38 2.9, 0.5 2.64, 0.64 2.4 C0.78 2.16, 0.95 1.93, 1.12 1.72 C1.3 1.5, 1.5 1.3, 1.72 1.12 C1.93 0.95, 2.16 0.78, 2.4 0.64 C2.64 0.5, 2.9 0.38, 3.16 0.29 C3.42 0.19, 3.7 0.12, 3.97 0.07 C4.24 0.02, 4.53 0, 4.8 0 C5.08 0, 5.36 0.02, 5.64 0.07 C5.91 0.12, 6.19 0.19, 6.45 0.29 C6.71 0.38, 6.96 0.5, 7.21 0.64 C7.45 0.78, 7.68 0.95, 7.89 1.12 C8.1 1.3, 8.3 1.5, 8.48 1.72 C8.66 1.93, 8.82 2.16, 8.96 2.4 C9.1 2.64, 9.22 2.9, 9.32 3.16 C9.41 3.42, 9.49 3.7, 9.53 3.97 C9.58 4.24, 9.59 4.66, 9.61 4.8 C9.62 4.94, 9.62 4.66, 9.61 4.8" stroke="none" stroke-width="0" fill="#868e96"></path><path d="M9.61 4.8 C9.61 5.08, 9.58 5.36, 9.53 5.64 C9.49 5.91, 9.41 6.19, 9.32 6.45 C9.22 6.71, 9.1 6.96, 8.96 7.21 C8.82 7.45, 8.66 7.68, 8.48 7.89 C8.3 8.1, 8.1 8.3, 7.89 8.48 C7.68 8.66, 7.45 8.82, 7.21 8.96 C6.96 9.1, 6.71 9.22, 6.45 9.32 C6.19 9.41, 5.91 9.49, 5.64 9.53 C5.36 9.58, 5.08 9.61, 4.8 9.61 C4.53 9.61, 4.24 9.58, 3.97 9.53 C3.7 9.49, 3.42 9.41, 3.16 9.32 C2.9 9.22, 2.64 9.1, 2.4 8.96 C2.16 8.82, 1.93 8.66, 1.72 8.48 C1.5 8.3, 1.3 8.1, 1.12 7.89 C0.95 7.68, 0.78 7.45, 0.64 7.21 C0.5 6.96, 0.38 6.71, 0.29 6.45 C0.19 6.19, 0.12 5.91, 0.07 5.64 C0.02 5.36, 0 5.08, 0 4.8 C0 4.53, 0.02 4.24, 0.07 3.97 C0.12 3.7, 0.19 3.42, 0.29 3.16 C0.38 2.9, 0.5 2.64, 0.64 2.4 C0.78 2.16, 0.95 1.93, 1.12 1.72 C1.3 1.5, 1.5 1.3, 1.72 1.12 C1.93 0.95, 2.16 0.78, 2.4 0.64 C2.64 0.5, 2.9 0.38, 3.16 0.29 C3.42 0.19, 3.7 0.12, 3.97 0.07 C4.24 0.02, 4.53 0, 4.8 0 C5.08 0, 5.36 0.02, 5.64 0.07 C5.91 0.12, 6.19 0.19, 6.45 0.29 C6.71 0.38, 6.96 0.5, 7.21 0.64 C7.45 0.78, 7.68 0.95, 7.89 1.12 C8.1 1.3, 8.3 1.5, 8.48 1.72 C8.66 1.93, 8.82 2.16, 8.96 2.4 C9.1 2.64, 9.22 2.9, 9.32 3.16 C9.41 3.42, 9.49 3.7, 9.53 3.97 C9.58 4.24, 9.59 4.66, 9.61 4.8 C9.62 4.94, 9.62 4.66, 9.61 4.8" stroke="#000000" stroke-width="1" fill="none"></path></g><g stroke-linecap="round"><g transform="translate(920.244340206893 579.9968943948797) rotate(0 8.388317815275741 6.216885598920726)"><path d="M0 0 C2.8 2.07, 13.98 10.36, 16.78 12.43 M0 0 C2.8 2.07, 13.98 10.36, 16.78 12.43" stroke="#000000" stroke-width="1" fill="none"></path></g></g><g stroke-linecap="round"><g transform="translate(941.1584786139297 600.5642864882511) rotate(0 -3.14624057658898 9.868042708412304)"><path d="M0 0 C-1.05 3.29, -5.24 16.45, -6.29 19.74 M0 0 C-1.05 3.29, -5.24 16.45, -6.29 19.74" stroke="#000000" stroke-width="1" fill="none"></path></g></g><g stroke-linecap="round"><g transform="translate(910.613666805044 580.8261853924823) rotate(0 -8.805139377534715 6.078308768622719)"><path d="M0 0 C-2.94 2.03, -14.68 10.13, -17.61 12.16 M0 0 C-2.94 2.03, -14.68 10.13, -17.61 12.16" stroke="#000000" stroke-width="1" fill="none"></path></g></g><g stroke-linecap="round"><g transform="translate(892.1777139276896 600.7911341331064) rotate(0 3.349116518494384 10.158053551787361)"><path d="M0 0 C1.12 3.39, 5.58 16.93, 6.7 20.32 M0 0 C1.12 3.39, 5.58 16.93, 6.7 20.32" stroke="#000000" stroke-width="1" fill="none"></path></g></g><g stroke-linecap="round"><g transform="translate(905.2670648763665 626.5974836054529) rotate(0 10.532492583258318 -0.13606385088723982)"><path d="M0 0 C3.51 -0.05, 17.55 -0.23, 21.06 -0.27 M0 0 C3.51 -0.05, 17.55 -0.23, 21.06 -0.27" stroke="#000000" stroke-width="1" fill="none"></path></g></g><g stroke-linecap="round"><g transform="translate(897.2063786237854 597.5784390658519) rotate(0 19.520751523144327 0.07008430878522631)"><path d="M0 0 C6.51 0.02, 32.53 0.12, 39.04 0.14 M0 0 C6.51 0.02, 32.53 0.12, 39.04 0.14" stroke="#000000" stroke-width="1" fill="none"></path></g></g><g stroke-linecap="round"><g transform="translate(915.7490991434706 583.2985370672068) rotate(0 -5.847752863413234 19.109620964368787)"><path d="M0 0 C-1.95 6.37, -9.75 31.85, -11.7 38.22 M0 0 C-1.95 6.37, -9.75 31.85, -11.7 38.22" stroke="#000000" stroke-width="1" fill="none"></path></g></g><g stroke-linecap="round"><g transform="translate(917.9448936852764 583.2771920817013) rotate(0 5.847752863413234 19.422893439194468)"><path d="M0 0 C1.95 6.47, 9.75 32.37, 11.7 38.85 M0 0 C1.95 6.47, 9.75 32.37, 11.7 38.85" stroke="#000000" stroke-width="1" fill="none"></path></g></g><g stroke-linecap="round"><g transform="translate(904.2800817408965 622.154081105622) rotate(0 16.499017007487737 -11.173384935450486)"><path d="M0 0 C5.5 -3.72, 27.5 -18.62, 33 -22.35 M0 0 C5.5 -3.72, 27.5 -18.62, 33 -22.35" stroke="#000000" stroke-width="1" fill="none"></path></g></g><g stroke-linecap="round"><g transform="translate(895.4805293062504 600.1424770812919) rotate(0 16.707773451649018 11.01164939495493)"><path d="M0 0 C5.57 3.67, 27.85 18.35, 33.42 22.02 M0 0 C5.57 3.67, 27.85 18.35, 33.42 22.02" stroke="#000000" stroke-width="1" fill="none"></path></g></g><g stroke-linecap="round" transform="translate(517.4346824372342 162.72028178637993) rotate(0 4.803511280661041 4.803511280661041)"><path d="M9.61 4.8 C9.61 5.08, 9.58 5.36, 9.53 5.64 C9.49 5.91, 9.41 6.19, 9.32 6.45 C9.22 6.71, 9.1 6.96, 8.96 7.21 C8.82 7.45, 8.66 7.68, 8.48 7.89 C8.3 8.1, 8.1 8.3, 7.89 8.48 C7.68 8.66, 7.45 8.82, 7.21 8.96 C6.96 9.1, 6.71 9.22, 6.45 9.32 C6.19 9.41, 5.91 9.49, 5.64 9.53 C5.36 9.58, 5.08 9.61, 4.8 9.61 C4.53 9.61, 4.24 9.58, 3.97 9.53 C3.7 9.49, 3.42 9.41, 3.16 9.32 C2.9 9.22, 2.64 9.1, 2.4 8.96 C2.16 8.82, 1.93 8.66, 1.72 8.48 C1.5 8.3, 1.3 8.1, 1.12 7.89 C0.95 7.68, 0.78 7.45, 0.64 7.21 C0.5 6.96, 0.38 6.71, 0.29 6.45 C0.19 6.19, 0.12 5.91, 0.07 5.64 C0.02 5.36, 0 5.08, 0 4.8 C0 4.53, 0.02 4.24, 0.07 3.97 C0.12 3.7, 0.19 3.42, 0.29 3.16 C0.38 2.9, 0.5 2.64, 0.64 2.4 C0.78 2.16, 0.95 1.93, 1.12 1.72 C1.3 1.5, 1.5 1.3, 1.72 1.12 C1.93 0.95, 2.16 0.78, 2.4 0.64 C2.64 0.5, 2.9 0.38, 3.16 0.29 C3.42 0.19, 3.7 0.12, 3.97 0.07 C4.24 0.02, 4.53 0, 4.8 0 C5.08 0, 5.36 0.02, 5.64 0.07 C5.91 0.12, 6.19 0.19, 6.45 0.29 C6.71 0.38, 6.96 0.5, 7.21 0.64 C7.45 0.78, 7.68 0.95, 7.89 1.12 C8.1 1.3, 8.3 1.5, 8.48 1.72 C8.66 1.93, 8.82 2.16, 8.96 2.4 C9.1 2.64, 9.22 2.9, 9.32 3.16 C9.41 3.42, 9.49 3.7, 9.53 3.97 C9.58 4.24, 9.59 4.66, 9.61 4.8 C9.62 4.94, 9.62 4.66, 9.61 4.8" stroke="none" stroke-width="0" fill="#868e96"></path><path d="M9.61 4.8 C9.61 5.08, 9.58 5.36, 9.53 5.64 C9.49 5.91, 9.41 6.19, 9.32 6.45 C9.22 6.71, 9.1 6.96, 8.96 7.21 C8.82 7.45, 8.66 7.68, 8.48 7.89 C8.3 8.1, 8.1 8.3, 7.89 8.48 C7.68 8.66, 7.45 8.82, 7.21 8.96 C6.96 9.1, 6.71 9.22, 6.45 9.32 C6.19 9.41, 5.91 9.49, 5.64 9.53 C5.36 9.58, 5.08 9.61, 4.8 9.61 C4.53 9.61, 4.24 9.58, 3.97 9.53 C3.7 9.49, 3.42 9.41, 3.16 9.32 C2.9 9.22, 2.64 9.1, 2.4 8.96 C2.16 8.82, 1.93 8.66, 1.72 8.48 C1.5 8.3, 1.3 8.1, 1.12 7.89 C0.95 7.68, 0.78 7.45, 0.64 7.21 C0.5 6.96, 0.38 6.71, 0.29 6.45 C0.19 6.19, 0.12 5.91, 0.07 5.64 C0.02 5.36, 0 5.08, 0 4.8 C0 4.53, 0.02 4.24, 0.07 3.97 C0.12 3.7, 0.19 3.42, 0.29 3.16 C0.38 2.9, 0.5 2.64, 0.64 2.4 C0.78 2.16, 0.95 1.93, 1.12 1.72 C1.3 1.5, 1.5 1.3, 1.72 1.12 C1.93 0.95, 2.16 0.78, 2.4 0.64 C2.64 0.5, 2.9 0.38, 3.16 0.29 C3.42 0.19, 3.7 0.12, 3.97 0.07 C4.24 0.02, 4.53 0, 4.8 0 C5.08 0, 5.36 0.02, 5.64 0.07 C5.91 0.12, 6.19 0.19, 6.45 0.29 C6.71 0.38, 6.96 0.5, 7.21 0.64 C7.45 0.78, 7.68 0.95, 7.89 1.12 C8.1 1.3, 8.3 1.5, 8.48 1.72 C8.66 1.93, 8.82 2.16, 8.96 2.4 C9.1 2.64, 9.22 2.9, 9.32 3.16 C9.41 3.42, 9.49 3.7, 9.53 3.97 C9.58 4.24, 9.59 4.66, 9.61 4.8 C9.62 4.94, 9.62 4.66, 9.61 4.8" stroke="#000000" stroke-width="1" fill="none"></path></g><g stroke-linecap="round" transform="translate(492.7905810842808 181.09893364282198) rotate(0 4.803511280661041 4.803511280661041)"><path d="M9.61 4.8 C9.61 5.08, 9.58 5.36, 9.53 5.64 C9.49 5.91, 9.41 6.19, 9.32 6.45 C9.22 6.71, 9.1 6.96, 8.96 7.21 C8.82 7.45, 8.66 7.68, 8.48 7.89 C8.3 8.1, 8.1 8.3, 7.89 8.48 C7.68 8.66, 7.45 8.82, 7.21 8.96 C6.96 9.1, 6.71 9.22, 6.45 9.32 C6.19 9.41, 5.91 9.49, 5.64 9.53 C5.36 9.58, 5.08 9.61, 4.8 9.61 C4.53 9.61, 4.24 9.58, 3.97 9.53 C3.7 9.49, 3.42 9.41, 3.16 9.32 C2.9 9.22, 2.64 9.1, 2.4 8.96 C2.16 8.82, 1.93 8.66, 1.72 8.48 C1.5 8.3, 1.3 8.1, 1.12 7.89 C0.95 7.68, 0.78 7.45, 0.64 7.21 C0.5 6.96, 0.38 6.71, 0.29 6.45 C0.19 6.19, 0.12 5.91, 0.07 5.64 C0.02 5.36, 0 5.08, 0 4.8 C0 4.53, 0.02 4.24, 0.07 3.97 C0.12 3.7, 0.19 3.42, 0.29 3.16 C0.38 2.9, 0.5 2.64, 0.64 2.4 C0.78 2.16, 0.95 1.93, 1.12 1.72 C1.3 1.5, 1.5 1.3, 1.72 1.12 C1.93 0.95, 2.16 0.78, 2.4 0.64 C2.64 0.5, 2.9 0.38, 3.16 0.29 C3.42 0.19, 3.7 0.12, 3.97 0.07 C4.24 0.02, 4.53 0, 4.8 0 C5.08 0, 5.36 0.02, 5.64 0.07 C5.91 0.12, 6.19 0.19, 6.45 0.29 C6.71 0.38, 6.96 0.5, 7.21 0.64 C7.45 0.78, 7.68 0.95, 7.89 1.12 C8.1 1.3, 8.3 1.5, 8.48 1.72 C8.66 1.93, 8.82 2.16, 8.96 2.4 C9.1 2.64, 9.22 2.9, 9.32 3.16 C9.41 3.42, 9.49 3.7, 9.53 3.97 C9.58 4.24, 9.59 4.66, 9.61 4.8 C9.62 4.94, 9.62 4.66, 9.61 4.8" stroke="none" stroke-width="0" fill="#868e96"></path><path d="M9.61 4.8 C9.61 5.08, 9.58 5.36, 9.53 5.64 C9.49 5.91, 9.41 6.19, 9.32 6.45 C9.22 6.71, 9.1 6.96, 8.96 7.21 C8.82 7.45, 8.66 7.68, 8.48 7.89 C8.3 8.1, 8.1 8.3, 7.89 8.48 C7.68 8.66, 7.45 8.82, 7.21 8.96 C6.96 9.1, 6.71 9.22, 6.45 9.32 C6.19 9.41, 5.91 9.49, 5.64 9.53 C5.36 9.58, 5.08 9.61, 4.8 9.61 C4.53 9.61, 4.24 9.58, 3.97 9.53 C3.7 9.49, 3.42 9.41, 3.16 9.32 C2.9 9.22, 2.64 9.1, 2.4 8.96 C2.16 8.82, 1.93 8.66, 1.72 8.48 C1.5 8.3, 1.3 8.1, 1.12 7.89 C0.95 7.68, 0.78 7.45, 0.64 7.21 C0.5 6.96, 0.38 6.71, 0.29 6.45 C0.19 6.19, 0.12 5.91, 0.07 5.64 C0.02 5.36, 0 5.08, 0 4.8 C0 4.53, 0.02 4.24, 0.07 3.97 C0.12 3.7, 0.19 3.42, 0.29 3.16 C0.38 2.9, 0.5 2.64, 0.64 2.4 C0.78 2.16, 0.95 1.93, 1.12 1.72 C1.3 1.5, 1.5 1.3, 1.72 1.12 C1.93 0.95, 2.16 0.78, 2.4 0.64 C2.64 0.5, 2.9 0.38, 3.16 0.29 C3.42 0.19, 3.7 0.12, 3.97 0.07 C4.24 0.02, 4.53 0, 4.8 0 C5.08 0, 5.36 0.02, 5.64 0.07 C5.91 0.12, 6.19 0.19, 6.45 0.29 C6.71 0.38, 6.96 0.5, 7.21 0.64 C7.45 0.78, 7.68 0.95, 7.89 1.12 C8.1 1.3, 8.3 1.5, 8.48 1.72 C8.66 1.93, 8.82 2.16, 8.96 2.4 C9.1 2.64, 9.22 2.9, 9.32 3.16 C9.41 3.42, 9.49 3.7, 9.53 3.97 C9.58 4.24, 9.59 4.66, 9.61 4.8 C9.62 4.94, 9.62 4.66, 9.61 4.8" stroke="#000000" stroke-width="1" fill="none"></path></g><g stroke-linecap="round" transform="translate(541.661087157092 180.68123700972137) rotate(0 4.803511280661041 4.803511280661041)"><path d="M9.61 4.8 C9.61 5.08, 9.58 5.36, 9.53 5.64 C9.49 5.91, 9.41 6.19, 9.32 6.45 C9.22 6.71, 9.1 6.96, 8.96 7.21 C8.82 7.45, 8.66 7.68, 8.48 7.89 C8.3 8.1, 8.1 8.3, 7.89 8.48 C7.68 8.66, 7.45 8.82, 7.21 8.96 C6.96 9.1, 6.71 9.22, 6.45 9.32 C6.19 9.41, 5.91 9.49, 5.64 9.53 C5.36 9.58, 5.08 9.61, 4.8 9.61 C4.53 9.61, 4.24 9.58, 3.97 9.53 C3.7 9.49, 3.42 9.41, 3.16 9.32 C2.9 9.22, 2.64 9.1, 2.4 8.96 C2.16 8.82, 1.93 8.66, 1.72 8.48 C1.5 8.3, 1.3 8.1, 1.12 7.89 C0.95 7.68, 0.78 7.45, 0.64 7.21 C0.5 6.96, 0.38 6.71, 0.29 6.45 C0.19 6.19, 0.12 5.91, 0.07 5.64 C0.02 5.36, 0 5.08, 0 4.8 C0 4.53, 0.02 4.24, 0.07 3.97 C0.12 3.7, 0.19 3.42, 0.29 3.16 C0.38 2.9, 0.5 2.64, 0.64 2.4 C0.78 2.16, 0.95 1.93, 1.12 1.72 C1.3 1.5, 1.5 1.3, 1.72 1.12 C1.93 0.95, 2.16 0.78, 2.4 0.64 C2.64 0.5, 2.9 0.38, 3.16 0.29 C3.42 0.19, 3.7 0.12, 3.97 0.07 C4.24 0.02, 4.53 0, 4.8 0 C5.08 0, 5.36 0.02, 5.64 0.07 C5.91 0.12, 6.19 0.19, 6.45 0.29 C6.71 0.38, 6.96 0.5, 7.21 0.64 C7.45 0.78, 7.68 0.95, 7.89 1.12 C8.1 1.3, 8.3 1.5, 8.48 1.72 C8.66 1.93, 8.82 2.16, 8.96 2.4 C9.1 2.64, 9.22 2.9, 9.32 3.16 C9.41 3.42, 9.49 3.7, 9.53 3.97 C9.58 4.24, 9.59 4.66, 9.61 4.8 C9.62 4.94, 9.62 4.66, 9.61 4.8" stroke="none" stroke-width="0" fill="#868e96"></path><path d="M9.61 4.8 C9.61 5.08, 9.58 5.36, 9.53 5.64 C9.49 5.91, 9.41 6.19, 9.32 6.45 C9.22 6.71, 9.1 6.96, 8.96 7.21 C8.82 7.45, 8.66 7.68, 8.48 7.89 C8.3 8.1, 8.1 8.3, 7.89 8.48 C7.68 8.66, 7.45 8.82, 7.21 8.96 C6.96 9.1, 6.71 9.22, 6.45 9.32 C6.19 9.41, 5.91 9.49, 5.64 9.53 C5.36 9.58, 5.08 9.61, 4.8 9.61 C4.53 9.61, 4.24 9.58, 3.97 9.53 C3.7 9.49, 3.42 9.41, 3.16 9.32 C2.9 9.22, 2.64 9.1, 2.4 8.96 C2.16 8.82, 1.93 8.66, 1.72 8.48 C1.5 8.3, 1.3 8.1, 1.12 7.89 C0.95 7.68, 0.78 7.45, 0.64 7.21 C0.5 6.96, 0.38 6.71, 0.29 6.45 C0.19 6.19, 0.12 5.91, 0.07 5.64 C0.02 5.36, 0 5.08, 0 4.8 C0 4.53, 0.02 4.24, 0.07 3.97 C0.12 3.7, 0.19 3.42, 0.29 3.16 C0.38 2.9, 0.5 2.64, 0.64 2.4 C0.78 2.16, 0.95 1.93, 1.12 1.72 C1.3 1.5, 1.5 1.3, 1.72 1.12 C1.93 0.95, 2.16 0.78, 2.4 0.64 C2.64 0.5, 2.9 0.38, 3.16 0.29 C3.42 0.19, 3.7 0.12, 3.97 0.07 C4.24 0.02, 4.53 0, 4.8 0 C5.08 0, 5.36 0.02, 5.64 0.07 C5.91 0.12, 6.19 0.19, 6.45 0.29 C6.71 0.38, 6.96 0.5, 7.21 0.64 C7.45 0.78, 7.68 0.95, 7.89 1.12 C8.1 1.3, 8.3 1.5, 8.48 1.72 C8.66 1.93, 8.82 2.16, 8.96 2.4 C9.1 2.64, 9.22 2.9, 9.32 3.16 C9.41 3.42, 9.49 3.7, 9.53 3.97 C9.58 4.24, 9.59 4.66, 9.61 4.8 C9.62 4.94, 9.62 4.66, 9.61 4.8" stroke="#000000" stroke-width="1" fill="none"></path></g><g stroke-linecap="round" transform="translate(533.3071544950735 209.92000132678822) rotate(0 4.803511280661041 4.803511280661041)"><path d="M9.61 4.8 C9.61 5.08, 9.58 5.36, 9.53 5.64 C9.49 5.91, 9.41 6.19, 9.32 6.45 C9.22 6.71, 9.1 6.96, 8.96 7.21 C8.82 7.45, 8.66 7.68, 8.48 7.89 C8.3 8.1, 8.1 8.3, 7.89 8.48 C7.68 8.66, 7.45 8.82, 7.21 8.96 C6.96 9.1, 6.71 9.22, 6.45 9.32 C6.19 9.41, 5.91 9.49, 5.64 9.53 C5.36 9.58, 5.08 9.61, 4.8 9.61 C4.53 9.61, 4.24 9.58, 3.97 9.53 C3.7 9.49, 3.42 9.41, 3.16 9.32 C2.9 9.22, 2.64 9.1, 2.4 8.96 C2.16 8.82, 1.93 8.66, 1.72 8.48 C1.5 8.3, 1.3 8.1, 1.12 7.89 C0.95 7.68, 0.78 7.45, 0.64 7.21 C0.5 6.96, 0.38 6.71, 0.29 6.45 C0.19 6.19, 0.12 5.91, 0.07 5.64 C0.02 5.36, 0 5.08, 0 4.8 C0 4.53, 0.02 4.24, 0.07 3.97 C0.12 3.7, 0.19 3.42, 0.29 3.16 C0.38 2.9, 0.5 2.64, 0.64 2.4 C0.78 2.16, 0.95 1.93, 1.12 1.72 C1.3 1.5, 1.5 1.3, 1.72 1.12 C1.93 0.95, 2.16 0.78, 2.4 0.64 C2.64 0.5, 2.9 0.38, 3.16 0.29 C3.42 0.19, 3.7 0.12, 3.97 0.07 C4.24 0.02, 4.53 0, 4.8 0 C5.08 0, 5.36 0.02, 5.64 0.07 C5.91 0.12, 6.19 0.19, 6.45 0.29 C6.71 0.38, 6.96 0.5, 7.21 0.64 C7.45 0.78, 7.68 0.95, 7.89 1.12 C8.1 1.3, 8.3 1.5, 8.48 1.72 C8.66 1.93, 8.82 2.16, 8.96 2.4 C9.1 2.64, 9.22 2.9, 9.32 3.16 C9.41 3.42, 9.49 3.7, 9.53 3.97 C9.58 4.24, 9.59 4.66, 9.61 4.8 C9.62 4.94, 9.62 4.66, 9.61 4.8" stroke="none" stroke-width="0" fill="#868e96"></path><path d="M9.61 4.8 C9.61 5.08, 9.58 5.36, 9.53 5.64 C9.49 5.91, 9.41 6.19, 9.32 6.45 C9.22 6.71, 9.1 6.96, 8.96 7.21 C8.82 7.45, 8.66 7.68, 8.48 7.89 C8.3 8.1, 8.1 8.3, 7.89 8.48 C7.68 8.66, 7.45 8.82, 7.21 8.96 C6.96 9.1, 6.71 9.22, 6.45 9.32 C6.19 9.41, 5.91 9.49, 5.64 9.53 C5.36 9.58, 5.08 9.61, 4.8 9.61 C4.53 9.61, 4.24 9.58, 3.97 9.53 C3.7 9.49, 3.42 9.41, 3.16 9.32 C2.9 9.22, 2.64 9.1, 2.4 8.96 C2.16 8.82, 1.93 8.66, 1.72 8.48 C1.5 8.3, 1.3 8.1, 1.12 7.89 C0.95 7.68, 0.78 7.45, 0.64 7.21 C0.5 6.96, 0.38 6.71, 0.29 6.45 C0.19 6.19, 0.12 5.91, 0.07 5.64 C0.02 5.36, 0 5.08, 0 4.8 C0 4.53, 0.02 4.24, 0.07 3.97 C0.12 3.7, 0.19 3.42, 0.29 3.16 C0.38 2.9, 0.5 2.64, 0.64 2.4 C0.78 2.16, 0.95 1.93, 1.12 1.72 C1.3 1.5, 1.5 1.3, 1.72 1.12 C1.93 0.95, 2.16 0.78, 2.4 0.64 C2.64 0.5, 2.9 0.38, 3.16 0.29 C3.42 0.19, 3.7 0.12, 3.97 0.07 C4.24 0.02, 4.53 0, 4.8 0 C5.08 0, 5.36 0.02, 5.64 0.07 C5.91 0.12, 6.19 0.19, 6.45 0.29 C6.71 0.38, 6.96 0.5, 7.21 0.64 C7.45 0.78, 7.68 0.95, 7.89 1.12 C8.1 1.3, 8.3 1.5, 8.48 1.72 C8.66 1.93, 8.82 2.16, 8.96 2.4 C9.1 2.64, 9.22 2.9, 9.32 3.16 C9.41 3.42, 9.49 3.7, 9.53 3.97 C9.58 4.24, 9.59 4.66, 9.61 4.8 C9.62 4.94, 9.62 4.66, 9.61 4.8" stroke="#000000" stroke-width="1" fill="none"></path></g><g stroke-linecap="round" transform="translate(501.7710586959515 210.12884964333807) rotate(0 4.803511280661041 4.803511280661041)"><path d="M9.61 4.8 C9.61 5.08, 9.58 5.36, 9.53 5.64 C9.49 5.91, 9.41 6.19, 9.32 6.45 C9.22 6.71, 9.1 6.96, 8.96 7.21 C8.82 7.45, 8.66 7.68, 8.48 7.89 C8.3 8.1, 8.1 8.3, 7.89 8.48 C7.68 8.66, 7.45 8.82, 7.21 8.96 C6.96 9.1, 6.71 9.22, 6.45 9.32 C6.19 9.41, 5.91 9.49, 5.64 9.53 C5.36 9.58, 5.08 9.61, 4.8 9.61 C4.53 9.61, 4.24 9.58, 3.97 9.53 C3.7 9.49, 3.42 9.41, 3.16 9.32 C2.9 9.22, 2.64 9.1, 2.4 8.96 C2.16 8.82, 1.93 8.66, 1.72 8.48 C1.5 8.3, 1.3 8.1, 1.12 7.89 C0.95 7.68, 0.78 7.45, 0.64 7.21 C0.5 6.96, 0.38 6.71, 0.29 6.45 C0.19 6.19, 0.12 5.91, 0.07 5.64 C0.02 5.36, 0 5.08, 0 4.8 C0 4.53, 0.02 4.24, 0.07 3.97 C0.12 3.7, 0.19 3.42, 0.29 3.16 C0.38 2.9, 0.5 2.64, 0.64 2.4 C0.78 2.16, 0.95 1.93, 1.12 1.72 C1.3 1.5, 1.5 1.3, 1.72 1.12 C1.93 0.95, 2.16 0.78, 2.4 0.64 C2.64 0.5, 2.9 0.38, 3.16 0.29 C3.42 0.19, 3.7 0.12, 3.97 0.07 C4.24 0.02, 4.53 0, 4.8 0 C5.08 0, 5.36 0.02, 5.64 0.07 C5.91 0.12, 6.19 0.19, 6.45 0.29 C6.71 0.38, 6.96 0.5, 7.21 0.64 C7.45 0.78, 7.68 0.95, 7.89 1.12 C8.1 1.3, 8.3 1.5, 8.48 1.72 C8.66 1.93, 8.82 2.16, 8.96 2.4 C9.1 2.64, 9.22 2.9, 9.32 3.16 C9.41 3.42, 9.49 3.7, 9.53 3.97 C9.58 4.24, 9.59 4.66, 9.61 4.8 C9.62 4.94, 9.62 4.66, 9.61 4.8" stroke="none" stroke-width="0" fill="#868e96"></path><path d="M9.61 4.8 C9.61 5.08, 9.58 5.36, 9.53 5.64 C9.49 5.91, 9.41 6.19, 9.32 6.45 C9.22 6.71, 9.1 6.96, 8.96 7.21 C8.82 7.45, 8.66 7.68, 8.48 7.89 C8.3 8.1, 8.1 8.3, 7.89 8.48 C7.68 8.66, 7.45 8.82, 7.21 8.96 C6.96 9.1, 6.71 9.22, 6.45 9.32 C6.19 9.41, 5.91 9.49, 5.64 9.53 C5.36 9.58, 5.08 9.61, 4.8 9.61 C4.53 9.61, 4.24 9.58, 3.97 9.53 C3.7 9.49, 3.42 9.41, 3.16 9.32 C2.9 9.22, 2.64 9.1, 2.4 8.96 C2.16 8.82, 1.93 8.66, 1.72 8.48 C1.5 8.3, 1.3 8.1, 1.12 7.89 C0.95 7.68, 0.78 7.45, 0.64 7.21 C0.5 6.96, 0.38 6.71, 0.29 6.45 C0.19 6.19, 0.12 5.91, 0.07 5.64 C0.02 5.36, 0 5.08, 0 4.8 C0 4.53, 0.02 4.24, 0.07 3.97 C0.12 3.7, 0.19 3.42, 0.29 3.16 C0.38 2.9, 0.5 2.64, 0.64 2.4 C0.78 2.16, 0.95 1.93, 1.12 1.72 C1.3 1.5, 1.5 1.3, 1.72 1.12 C1.93 0.95, 2.16 0.78, 2.4 0.64 C2.64 0.5, 2.9 0.38, 3.16 0.29 C3.42 0.19, 3.7 0.12, 3.97 0.07 C4.24 0.02, 4.53 0, 4.8 0 C5.08 0, 5.36 0.02, 5.64 0.07 C5.91 0.12, 6.19 0.19, 6.45 0.29 C6.71 0.38, 6.96 0.5, 7.21 0.64 C7.45 0.78, 7.68 0.95, 7.89 1.12 C8.1 1.3, 8.3 1.5, 8.48 1.72 C8.66 1.93, 8.82 2.16, 8.96 2.4 C9.1 2.64, 9.22 2.9, 9.32 3.16 C9.41 3.42, 9.49 3.7, 9.53 3.97 C9.58 4.24, 9.59 4.66, 9.61 4.8 C9.62 4.94, 9.62 4.66, 9.61 4.8" stroke="#000000" stroke-width="1" fill="none"></path></g><g stroke-linecap="round"><g transform="translate(526.5405912919618 169.25609714010625) rotate(0 8.388317815275741 6.216885598920726)"><path d="M0 0 C2.8 2.07, 13.98 10.36, 16.78 12.43 M0 0 C2.8 2.07, 13.98 10.36, 16.78 12.43" stroke="#000000" stroke-width="1" fill="none"></path></g></g><g stroke-linecap="round"><g transform="translate(547.4547296989986 189.82348923347763) rotate(0 -3.14624057658898 9.868042708412304)"><path d="M0 0 C-1.05 3.29, -5.24 16.45, -6.29 19.74 M0 0 C-1.05 3.29, -5.24 16.45, -6.29 19.74" stroke="#000000" stroke-width="1" fill="none"></path></g></g><g stroke-linecap="round"><g transform="translate(516.9099178901129 170.08538813770883) rotate(0 -8.805139377534715 6.078308768622719)"><path d="M0 0 C-2.94 2.03, -14.68 10.13, -17.61 12.16 M0 0 C-2.94 2.03, -14.68 10.13, -17.61 12.16" stroke="#000000" stroke-width="1" fill="none"></path></g></g><g stroke-linecap="round"><g transform="translate(498.4739650127585 190.05033687833293) rotate(0 3.349116518494384 10.158053551787361)"><path d="M0 0 C1.12 3.39, 5.58 16.93, 6.7 20.32 M0 0 C1.12 3.39, 5.58 16.93, 6.7 20.32" stroke="#000000" stroke-width="1" fill="none"></path></g></g><g stroke-linecap="round"><g transform="translate(511.56331596143536 215.8566863506794) rotate(0 10.532492583258318 -0.13606385088723982)"><path d="M0 0 C3.51 -0.05, 17.55 -0.23, 21.06 -0.27 M0 0 C3.51 -0.05, 17.55 -0.23, 21.06 -0.27" stroke="#000000" stroke-width="1" fill="none"></path></g></g><g stroke-linecap="round"><g transform="translate(503.50262970885433 186.83764181107836) rotate(0 19.520751523144327 0.07008430878522631)"><path d="M0 0 C6.51 0.02, 32.53 0.12, 39.04 0.14 M0 0 C6.51 0.02, 32.53 0.12, 39.04 0.14" stroke="#000000" stroke-width="1" fill="none"></path></g></g><g stroke-linecap="round"><g transform="translate(522.0453502285395 172.55773981243328) rotate(0 -5.847752863413234 19.109620964368787)"><path d="M0 0 C-1.95 6.37, -9.75 31.85, -11.7 38.22 M0 0 C-1.95 6.37, -9.75 31.85, -11.7 38.22" stroke="#000000" stroke-width="1" fill="none"></path></g></g><g stroke-linecap="round"><g transform="translate(524.2411447703453 172.5363948269278) rotate(0 5.847752863413234 19.422893439194468)"><path d="M0 0 C1.95 6.47, 9.75 32.37, 11.7 38.85 M0 0 C1.95 6.47, 9.75 32.37, 11.7 38.85" stroke="#000000" stroke-width="1" fill="none"></path></g></g><g stroke-linecap="round"><g transform="translate(510.57633282596544 211.41328385084853) rotate(0 16.49901700748751 -11.173384935450486)"><path d="M0 0 C5.5 -3.72, 27.5 -18.62, 33 -22.35 M0 0 C5.5 -3.72, 27.5 -18.62, 33 -22.35" stroke="#000000" stroke-width="1" fill="none"></path></g></g><g stroke-linecap="round"><g transform="translate(501.77678039131933 189.40167982651838) rotate(0 16.707773451649018 11.01164939495493)"><path d="M0 0 C5.57 3.67, 27.85 18.35, 33.42 22.02 M0 0 C5.57 3.67, 27.85 18.35, 33.42 22.02" stroke="#000000" stroke-width="1" fill="none"></path></g></g><g stroke-linecap="round" transform="translate(165.9532913782068 765.31302131546) rotate(0 4.803511280661041 4.803511280661041)"><path d="M9.61 4.8 C9.61 5.08, 9.58 5.36, 9.53 5.64 C9.49 5.91, 9.41 6.19, 9.32 6.45 C9.22 6.71, 9.1 6.96, 8.96 7.21 C8.82 7.45, 8.66 7.68, 8.48 7.89 C8.3 8.1, 8.1 8.3, 7.89 8.48 C7.68 8.66, 7.45 8.82, 7.21 8.96 C6.96 9.1, 6.71 9.22, 6.45 9.32 C6.19 9.41, 5.91 9.49, 5.64 9.53 C5.36 9.58, 5.08 9.61, 4.8 9.61 C4.53 9.61, 4.24 9.58, 3.97 9.53 C3.7 9.49, 3.42 9.41, 3.16 9.32 C2.9 9.22, 2.64 9.1, 2.4 8.96 C2.16 8.82, 1.93 8.66, 1.72 8.48 C1.5 8.3, 1.3 8.1, 1.12 7.89 C0.95 7.68, 0.78 7.45, 0.64 7.21 C0.5 6.96, 0.38 6.71, 0.29 6.45 C0.19 6.19, 0.12 5.91, 0.07 5.64 C0.02 5.36, 0 5.08, 0 4.8 C0 4.53, 0.02 4.24, 0.07 3.97 C0.12 3.7, 0.19 3.42, 0.29 3.16 C0.38 2.9, 0.5 2.64, 0.64 2.4 C0.78 2.16, 0.95 1.93, 1.12 1.72 C1.3 1.5, 1.5 1.3, 1.72 1.12 C1.93 0.95, 2.16 0.78, 2.4 0.64 C2.64 0.5, 2.9 0.38, 3.16 0.29 C3.42 0.19, 3.7 0.12, 3.97 0.07 C4.24 0.02, 4.53 0, 4.8 0 C5.08 0, 5.36 0.02, 5.64 0.07 C5.91 0.12, 6.19 0.19, 6.45 0.29 C6.71 0.38, 6.96 0.5, 7.21 0.64 C7.45 0.78, 7.68 0.95, 7.89 1.12 C8.1 1.3, 8.3 1.5, 8.48 1.72 C8.66 1.93, 8.82 2.16, 8.96 2.4 C9.1 2.64, 9.22 2.9, 9.32 3.16 C9.41 3.42, 9.49 3.7, 9.53 3.97 C9.58 4.24, 9.59 4.66, 9.61 4.8 C9.62 4.94, 9.62 4.66, 9.61 4.8" stroke="none" stroke-width="0" fill="#868e96"></path><path d="M9.61 4.8 C9.61 5.08, 9.58 5.36, 9.53 5.64 C9.49 5.91, 9.41 6.19, 9.32 6.45 C9.22 6.71, 9.1 6.96, 8.96 7.21 C8.82 7.45, 8.66 7.68, 8.48 7.89 C8.3 8.1, 8.1 8.3, 7.89 8.48 C7.68 8.66, 7.45 8.82, 7.21 8.96 C6.96 9.1, 6.71 9.22, 6.45 9.32 C6.19 9.41, 5.91 9.49, 5.64 9.53 C5.36 9.58, 5.08 9.61, 4.8 9.61 C4.53 9.61, 4.24 9.58, 3.97 9.53 C3.7 9.49, 3.42 9.41, 3.16 9.32 C2.9 9.22, 2.64 9.1, 2.4 8.96 C2.16 8.82, 1.93 8.66, 1.72 8.48 C1.5 8.3, 1.3 8.1, 1.12 7.89 C0.95 7.68, 0.78 7.45, 0.64 7.21 C0.5 6.96, 0.38 6.71, 0.29 6.45 C0.19 6.19, 0.12 5.91, 0.07 5.64 C0.02 5.36, 0 5.08, 0 4.8 C0 4.53, 0.02 4.24, 0.07 3.97 C0.12 3.7, 0.19 3.42, 0.29 3.16 C0.38 2.9, 0.5 2.64, 0.64 2.4 C0.78 2.16, 0.95 1.93, 1.12 1.72 C1.3 1.5, 1.5 1.3, 1.72 1.12 C1.93 0.95, 2.16 0.78, 2.4 0.64 C2.64 0.5, 2.9 0.38, 3.16 0.29 C3.42 0.19, 3.7 0.12, 3.97 0.07 C4.24 0.02, 4.53 0, 4.8 0 C5.08 0, 5.36 0.02, 5.64 0.07 C5.91 0.12, 6.19 0.19, 6.45 0.29 C6.71 0.38, 6.96 0.5, 7.21 0.64 C7.45 0.78, 7.68 0.95, 7.89 1.12 C8.1 1.3, 8.3 1.5, 8.48 1.72 C8.66 1.93, 8.82 2.16, 8.96 2.4 C9.1 2.64, 9.22 2.9, 9.32 3.16 C9.41 3.42, 9.49 3.7, 9.53 3.97 C9.58 4.24, 9.59 4.66, 9.61 4.8 C9.62 4.94, 9.62 4.66, 9.61 4.8" stroke="#000000" stroke-width="1" fill="none"></path></g><g stroke-linecap="round" transform="translate(141.30919002525343 783.691673171902) rotate(0 4.803511280661041 4.803511280661041)"><path d="M9.61 4.8 C9.61 5.08, 9.58 5.36, 9.53 5.64 C9.49 5.91, 9.41 6.19, 9.32 6.45 C9.22 6.71, 9.1 6.96, 8.96 7.21 C8.82 7.45, 8.66 7.68, 8.48 7.89 C8.3 8.1, 8.1 8.3, 7.89 8.48 C7.68 8.66, 7.45 8.82, 7.21 8.96 C6.96 9.1, 6.71 9.22, 6.45 9.32 C6.19 9.41, 5.91 9.49, 5.64 9.53 C5.36 9.58, 5.08 9.61, 4.8 9.61 C4.53 9.61, 4.24 9.58, 3.97 9.53 C3.7 9.49, 3.42 9.41, 3.16 9.32 C2.9 9.22, 2.64 9.1, 2.4 8.96 C2.16 8.82, 1.93 8.66, 1.72 8.48 C1.5 8.3, 1.3 8.1, 1.12 7.89 C0.95 7.68, 0.78 7.45, 0.64 7.21 C0.5 6.96, 0.38 6.71, 0.29 6.45 C0.19 6.19, 0.12 5.91, 0.07 5.64 C0.02 5.36, 0 5.08, 0 4.8 C0 4.53, 0.02 4.24, 0.07 3.97 C0.12 3.7, 0.19 3.42, 0.29 3.16 C0.38 2.9, 0.5 2.64, 0.64 2.4 C0.78 2.16, 0.95 1.93, 1.12 1.72 C1.3 1.5, 1.5 1.3, 1.72 1.12 C1.93 0.95, 2.16 0.78, 2.4 0.64 C2.64 0.5, 2.9 0.38, 3.16 0.29 C3.42 0.19, 3.7 0.12, 3.97 0.07 C4.24 0.02, 4.53 0, 4.8 0 C5.08 0, 5.36 0.02, 5.64 0.07 C5.91 0.12, 6.19 0.19, 6.45 0.29 C6.71 0.38, 6.96 0.5, 7.21 0.64 C7.45 0.78, 7.68 0.95, 7.89 1.12 C8.1 1.3, 8.3 1.5, 8.48 1.72 C8.66 1.93, 8.82 2.16, 8.96 2.4 C9.1 2.64, 9.22 2.9, 9.32 3.16 C9.41 3.42, 9.49 3.7, 9.53 3.97 C9.58 4.24, 9.59 4.66, 9.61 4.8 C9.62 4.94, 9.62 4.66, 9.61 4.8" stroke="none" stroke-width="0" fill="#868e96"></path><path d="M9.61 4.8 C9.61 5.08, 9.58 5.36, 9.53 5.64 C9.49 5.91, 9.41 6.19, 9.32 6.45 C9.22 6.71, 9.1 6.96, 8.96 7.21 C8.82 7.45, 8.66 7.68, 8.48 7.89 C8.3 8.1, 8.1 8.3, 7.89 8.48 C7.68 8.66, 7.45 8.82, 7.21 8.96 C6.96 9.1, 6.71 9.22, 6.45 9.32 C6.19 9.41, 5.91 9.49, 5.64 9.53 C5.36 9.58, 5.08 9.61, 4.8 9.61 C4.53 9.61, 4.24 9.58, 3.97 9.53 C3.7 9.49, 3.42 9.41, 3.16 9.32 C2.9 9.22, 2.64 9.1, 2.4 8.96 C2.16 8.82, 1.93 8.66, 1.72 8.48 C1.5 8.3, 1.3 8.1, 1.12 7.89 C0.95 7.68, 0.78 7.45, 0.64 7.21 C0.5 6.96, 0.38 6.71, 0.29 6.45 C0.19 6.19, 0.12 5.91, 0.07 5.64 C0.02 5.36, 0 5.08, 0 4.8 C0 4.53, 0.02 4.24, 0.07 3.97 C0.12 3.7, 0.19 3.42, 0.29 3.16 C0.38 2.9, 0.5 2.64, 0.64 2.4 C0.78 2.16, 0.95 1.93, 1.12 1.72 C1.3 1.5, 1.5 1.3, 1.72 1.12 C1.93 0.95, 2.16 0.78, 2.4 0.64 C2.64 0.5, 2.9 0.38, 3.16 0.29 C3.42 0.19, 3.7 0.12, 3.97 0.07 C4.24 0.02, 4.53 0, 4.8 0 C5.08 0, 5.36 0.02, 5.64 0.07 C5.91 0.12, 6.19 0.19, 6.45 0.29 C6.71 0.38, 6.96 0.5, 7.21 0.64 C7.45 0.78, 7.68 0.95, 7.89 1.12 C8.1 1.3, 8.3 1.5, 8.48 1.72 C8.66 1.93, 8.82 2.16, 8.96 2.4 C9.1 2.64, 9.22 2.9, 9.32 3.16 C9.41 3.42, 9.49 3.7, 9.53 3.97 C9.58 4.24, 9.59 4.66, 9.61 4.8 C9.62 4.94, 9.62 4.66, 9.61 4.8" stroke="#000000" stroke-width="1" fill="none"></path></g><g stroke-linecap="round" transform="translate(190.1796960980646 783.2739765388014) rotate(0 4.803511280661041 4.803511280661041)"><path d="M9.61 4.8 C9.61 5.08, 9.58 5.36, 9.53 5.64 C9.49 5.91, 9.41 6.19, 9.32 6.45 C9.22 6.71, 9.1 6.96, 8.96 7.21 C8.82 7.45, 8.66 7.68, 8.48 7.89 C8.3 8.1, 8.1 8.3, 7.89 8.48 C7.68 8.66, 7.45 8.82, 7.21 8.96 C6.96 9.1, 6.71 9.22, 6.45 9.32 C6.19 9.41, 5.91 9.49, 5.64 9.53 C5.36 9.58, 5.08 9.61, 4.8 9.61 C4.53 9.61, 4.24 9.58, 3.97 9.53 C3.7 9.49, 3.42 9.41, 3.16 9.32 C2.9 9.22, 2.64 9.1, 2.4 8.96 C2.16 8.82, 1.93 8.66, 1.72 8.48 C1.5 8.3, 1.3 8.1, 1.12 7.89 C0.95 7.68, 0.78 7.45, 0.64 7.21 C0.5 6.96, 0.38 6.71, 0.29 6.45 C0.19 6.19, 0.12 5.91, 0.07 5.64 C0.02 5.36, 0 5.08, 0 4.8 C0 4.53, 0.02 4.24, 0.07 3.97 C0.12 3.7, 0.19 3.42, 0.29 3.16 C0.38 2.9, 0.5 2.64, 0.64 2.4 C0.78 2.16, 0.95 1.93, 1.12 1.72 C1.3 1.5, 1.5 1.3, 1.72 1.12 C1.93 0.95, 2.16 0.78, 2.4 0.64 C2.64 0.5, 2.9 0.38, 3.16 0.29 C3.42 0.19, 3.7 0.12, 3.97 0.07 C4.24 0.02, 4.53 0, 4.8 0 C5.08 0, 5.36 0.02, 5.64 0.07 C5.91 0.12, 6.19 0.19, 6.45 0.29 C6.71 0.38, 6.96 0.5, 7.21 0.64 C7.45 0.78, 7.68 0.95, 7.89 1.12 C8.1 1.3, 8.3 1.5, 8.48 1.72 C8.66 1.93, 8.82 2.16, 8.96 2.4 C9.1 2.64, 9.22 2.9, 9.32 3.16 C9.41 3.42, 9.49 3.7, 9.53 3.97 C9.58 4.24, 9.59 4.66, 9.61 4.8 C9.62 4.94, 9.62 4.66, 9.61 4.8" stroke="none" stroke-width="0" fill="#868e96"></path><path d="M9.61 4.8 C9.61 5.08, 9.58 5.36, 9.53 5.64 C9.49 5.91, 9.41 6.19, 9.32 6.45 C9.22 6.71, 9.1 6.96, 8.96 7.21 C8.82 7.45, 8.66 7.68, 8.48 7.89 C8.3 8.1, 8.1 8.3, 7.89 8.48 C7.68 8.66, 7.45 8.82, 7.21 8.96 C6.96 9.1, 6.71 9.22, 6.45 9.32 C6.19 9.41, 5.91 9.49, 5.64 9.53 C5.36 9.58, 5.08 9.61, 4.8 9.61 C4.53 9.61, 4.24 9.58, 3.97 9.53 C3.7 9.49, 3.42 9.41, 3.16 9.32 C2.9 9.22, 2.64 9.1, 2.4 8.96 C2.16 8.82, 1.93 8.66, 1.72 8.48 C1.5 8.3, 1.3 8.1, 1.12 7.89 C0.95 7.68, 0.78 7.45, 0.64 7.21 C0.5 6.96, 0.38 6.71, 0.29 6.45 C0.19 6.19, 0.12 5.91, 0.07 5.64 C0.02 5.36, 0 5.08, 0 4.8 C0 4.53, 0.02 4.24, 0.07 3.97 C0.12 3.7, 0.19 3.42, 0.29 3.16 C0.38 2.9, 0.5 2.64, 0.64 2.4 C0.78 2.16, 0.95 1.93, 1.12 1.72 C1.3 1.5, 1.5 1.3, 1.72 1.12 C1.93 0.95, 2.16 0.78, 2.4 0.64 C2.64 0.5, 2.9 0.38, 3.16 0.29 C3.42 0.19, 3.7 0.12, 3.97 0.07 C4.24 0.02, 4.53 0, 4.8 0 C5.08 0, 5.36 0.02, 5.64 0.07 C5.91 0.12, 6.19 0.19, 6.45 0.29 C6.71 0.38, 6.96 0.5, 7.21 0.64 C7.45 0.78, 7.68 0.95, 7.89 1.12 C8.1 1.3, 8.3 1.5, 8.48 1.72 C8.66 1.93, 8.82 2.16, 8.96 2.4 C9.1 2.64, 9.22 2.9, 9.32 3.16 C9.41 3.42, 9.49 3.7, 9.53 3.97 C9.58 4.24, 9.59 4.66, 9.61 4.8 C9.62 4.94, 9.62 4.66, 9.61 4.8" stroke="#000000" stroke-width="1" fill="none"></path></g><g stroke-linecap="round" transform="translate(181.82576343604615 812.5127408558683) rotate(0 4.803511280661041 4.803511280661041)"><path d="M9.61 4.8 C9.61 5.08, 9.58 5.36, 9.53 5.64 C9.49 5.91, 9.41 6.19, 9.32 6.45 C9.22 6.71, 9.1 6.96, 8.96 7.21 C8.82 7.45, 8.66 7.68, 8.48 7.89 C8.3 8.1, 8.1 8.3, 7.89 8.48 C7.68 8.66, 7.45 8.82, 7.21 8.96 C6.96 9.1, 6.71 9.22, 6.45 9.32 C6.19 9.41, 5.91 9.49, 5.64 9.53 C5.36 9.58, 5.08 9.61, 4.8 9.61 C4.53 9.61, 4.24 9.58, 3.97 9.53 C3.7 9.49, 3.42 9.41, 3.16 9.32 C2.9 9.22, 2.64 9.1, 2.4 8.96 C2.16 8.82, 1.93 8.66, 1.72 8.48 C1.5 8.3, 1.3 8.1, 1.12 7.89 C0.95 7.68, 0.78 7.45, 0.64 7.21 C0.5 6.96, 0.38 6.71, 0.29 6.45 C0.19 6.19, 0.12 5.91, 0.07 5.64 C0.02 5.36, 0 5.08, 0 4.8 C0 4.53, 0.02 4.24, 0.07 3.97 C0.12 3.7, 0.19 3.42, 0.29 3.16 C0.38 2.9, 0.5 2.64, 0.64 2.4 C0.78 2.16, 0.95 1.93, 1.12 1.72 C1.3 1.5, 1.5 1.3, 1.72 1.12 C1.93 0.95, 2.16 0.78, 2.4 0.64 C2.64 0.5, 2.9 0.38, 3.16 0.29 C3.42 0.19, 3.7 0.12, 3.97 0.07 C4.24 0.02, 4.53 0, 4.8 0 C5.08 0, 5.36 0.02, 5.64 0.07 C5.91 0.12, 6.19 0.19, 6.45 0.29 C6.71 0.38, 6.96 0.5, 7.21 0.64 C7.45 0.78, 7.68 0.95, 7.89 1.12 C8.1 1.3, 8.3 1.5, 8.48 1.72 C8.66 1.93, 8.82 2.16, 8.96 2.4 C9.1 2.64, 9.22 2.9, 9.32 3.16 C9.41 3.42, 9.49 3.7, 9.53 3.97 C9.58 4.24, 9.59 4.66, 9.61 4.8 C9.62 4.94, 9.62 4.66, 9.61 4.8" stroke="none" stroke-width="0" fill="#868e96"></path><path d="M9.61 4.8 C9.61 5.08, 9.58 5.36, 9.53 5.64 C9.49 5.91, 9.41 6.19, 9.32 6.45 C9.22 6.71, 9.1 6.96, 8.96 7.21 C8.82 7.45, 8.66 7.68, 8.48 7.89 C8.3 8.1, 8.1 8.3, 7.89 8.48 C7.68 8.66, 7.45 8.82, 7.21 8.96 C6.96 9.1, 6.71 9.22, 6.45 9.32 C6.19 9.41, 5.91 9.49, 5.64 9.53 C5.36 9.58, 5.08 9.61, 4.8 9.61 C4.53 9.61, 4.24 9.58, 3.97 9.53 C3.7 9.49, 3.42 9.41, 3.16 9.32 C2.9 9.22, 2.64 9.1, 2.4 8.96 C2.16 8.82, 1.93 8.66, 1.72 8.48 C1.5 8.3, 1.3 8.1, 1.12 7.89 C0.95 7.68, 0.78 7.45, 0.64 7.21 C0.5 6.96, 0.38 6.71, 0.29 6.45 C0.19 6.19, 0.12 5.91, 0.07 5.64 C0.02 5.36, 0 5.08, 0 4.8 C0 4.53, 0.02 4.24, 0.07 3.97 C0.12 3.7, 0.19 3.42, 0.29 3.16 C0.38 2.9, 0.5 2.64, 0.64 2.4 C0.78 2.16, 0.95 1.93, 1.12 1.72 C1.3 1.5, 1.5 1.3, 1.72 1.12 C1.93 0.95, 2.16 0.78, 2.4 0.64 C2.64 0.5, 2.9 0.38, 3.16 0.29 C3.42 0.19, 3.7 0.12, 3.97 0.07 C4.24 0.02, 4.53 0, 4.8 0 C5.08 0, 5.36 0.02, 5.64 0.07 C5.91 0.12, 6.19 0.19, 6.45 0.29 C6.71 0.38, 6.96 0.5, 7.21 0.64 C7.45 0.78, 7.68 0.95, 7.89 1.12 C8.1 1.3, 8.3 1.5, 8.48 1.72 C8.66 1.93, 8.82 2.16, 8.96 2.4 C9.1 2.64, 9.22 2.9, 9.32 3.16 C9.41 3.42, 9.49 3.7, 9.53 3.97 C9.58 4.24, 9.59 4.66, 9.61 4.8 C9.62 4.94, 9.62 4.66, 9.61 4.8" stroke="#000000" stroke-width="1" fill="none"></path></g><g stroke-linecap="round" transform="translate(150.28966763692415 812.7215891724181) rotate(0 4.803511280661041 4.803511280661041)"><path d="M9.61 4.8 C9.61 5.08, 9.58 5.36, 9.53 5.64 C9.49 5.91, 9.41 6.19, 9.32 6.45 C9.22 6.71, 9.1 6.96, 8.96 7.21 C8.82 7.45, 8.66 7.68, 8.48 7.89 C8.3 8.1, 8.1 8.3, 7.89 8.48 C7.68 8.66, 7.45 8.82, 7.21 8.96 C6.96 9.1, 6.71 9.22, 6.45 9.32 C6.19 9.41, 5.91 9.49, 5.64 9.53 C5.36 9.58, 5.08 9.61, 4.8 9.61 C4.53 9.61, 4.24 9.58, 3.97 9.53 C3.7 9.49, 3.42 9.41, 3.16 9.32 C2.9 9.22, 2.64 9.1, 2.4 8.96 C2.16 8.82, 1.93 8.66, 1.72 8.48 C1.5 8.3, 1.3 8.1, 1.12 7.89 C0.95 7.68, 0.78 7.45, 0.64 7.21 C0.5 6.96, 0.38 6.71, 0.29 6.45 C0.19 6.19, 0.12 5.91, 0.07 5.64 C0.02 5.36, 0 5.08, 0 4.8 C0 4.53, 0.02 4.24, 0.07 3.97 C0.12 3.7, 0.19 3.42, 0.29 3.16 C0.38 2.9, 0.5 2.64, 0.64 2.4 C0.78 2.16, 0.95 1.93, 1.12 1.72 C1.3 1.5, 1.5 1.3, 1.72 1.12 C1.93 0.95, 2.16 0.78, 2.4 0.64 C2.64 0.5, 2.9 0.38, 3.16 0.29 C3.42 0.19, 3.7 0.12, 3.97 0.07 C4.24 0.02, 4.53 0, 4.8 0 C5.08 0, 5.36 0.02, 5.64 0.07 C5.91 0.12, 6.19 0.19, 6.45 0.29 C6.71 0.38, 6.96 0.5, 7.21 0.64 C7.45 0.78, 7.68 0.95, 7.89 1.12 C8.1 1.3, 8.3 1.5, 8.48 1.72 C8.66 1.93, 8.82 2.16, 8.96 2.4 C9.1 2.64, 9.22 2.9, 9.32 3.16 C9.41 3.42, 9.49 3.7, 9.53 3.97 C9.58 4.24, 9.59 4.66, 9.61 4.8 C9.62 4.94, 9.62 4.66, 9.61 4.8" stroke="none" stroke-width="0" fill="#868e96"></path><path d="M9.61 4.8 C9.61 5.08, 9.58 5.36, 9.53 5.64 C9.49 5.91, 9.41 6.19, 9.32 6.45 C9.22 6.71, 9.1 6.96, 8.96 7.21 C8.82 7.45, 8.66 7.68, 8.48 7.89 C8.3 8.1, 8.1 8.3, 7.89 8.48 C7.68 8.66, 7.45 8.82, 7.21 8.96 C6.96 9.1, 6.71 9.22, 6.45 9.32 C6.19 9.41, 5.91 9.49, 5.64 9.53 C5.36 9.58, 5.08 9.61, 4.8 9.61 C4.53 9.61, 4.24 9.58, 3.97 9.53 C3.7 9.49, 3.42 9.41, 3.16 9.32 C2.9 9.22, 2.64 9.1, 2.4 8.96 C2.16 8.82, 1.93 8.66, 1.72 8.48 C1.5 8.3, 1.3 8.1, 1.12 7.89 C0.95 7.68, 0.78 7.45, 0.64 7.21 C0.5 6.96, 0.38 6.71, 0.29 6.45 C0.19 6.19, 0.12 5.91, 0.07 5.64 C0.02 5.36, 0 5.08, 0 4.8 C0 4.53, 0.02 4.24, 0.07 3.97 C0.12 3.7, 0.19 3.42, 0.29 3.16 C0.38 2.9, 0.5 2.64, 0.64 2.4 C0.78 2.16, 0.95 1.93, 1.12 1.72 C1.3 1.5, 1.5 1.3, 1.72 1.12 C1.93 0.95, 2.16 0.78, 2.4 0.64 C2.64 0.5, 2.9 0.38, 3.16 0.29 C3.42 0.19, 3.7 0.12, 3.97 0.07 C4.24 0.02, 4.53 0, 4.8 0 C5.08 0, 5.36 0.02, 5.64 0.07 C5.91 0.12, 6.19 0.19, 6.45 0.29 C6.71 0.38, 6.96 0.5, 7.21 0.64 C7.45 0.78, 7.68 0.95, 7.89 1.12 C8.1 1.3, 8.3 1.5, 8.48 1.72 C8.66 1.93, 8.82 2.16, 8.96 2.4 C9.1 2.64, 9.22 2.9, 9.32 3.16 C9.41 3.42, 9.49 3.7, 9.53 3.97 C9.58 4.24, 9.59 4.66, 9.61 4.8 C9.62 4.94, 9.62 4.66, 9.61 4.8" stroke="#000000" stroke-width="1" fill="none"></path></g><g stroke-linecap="round"><g transform="translate(175.05920023293447 771.8488366691863) rotate(0 8.388317815275741 6.216885598920726)"><path d="M0 0 C2.8 2.07, 13.98 10.36, 16.78 12.43 M0 0 C2.8 2.07, 13.98 10.36, 16.78 12.43" stroke="#000000" stroke-width="1" fill="none"></path></g></g><g stroke-linecap="round"><g transform="translate(195.9733386399712 792.4162287625577) rotate(0 -3.14624057658898 9.868042708412304)"><path d="M0 0 C-1.05 3.29, -5.24 16.45, -6.29 19.74 M0 0 C-1.05 3.29, -5.24 16.45, -6.29 19.74" stroke="#000000" stroke-width="1" fill="none"></path></g></g><g stroke-linecap="round"><g transform="translate(165.4285268310855 772.6781276667889) rotate(0 -8.805139377534715 6.078308768622719)"><path d="M0 0 C-2.94 2.03, -14.68 10.13, -17.61 12.16 M0 0 C-2.94 2.03, -14.68 10.13, -17.61 12.16" stroke="#000000" stroke-width="1" fill="none"></path></g></g><g stroke-linecap="round"><g transform="translate(146.99257395373115 792.643076407413) rotate(0 3.349116518494384 10.158053551787361)"><path d="M0 0 C1.12 3.39, 5.58 16.93, 6.7 20.32 M0 0 C1.12 3.39, 5.58 16.93, 6.7 20.32" stroke="#000000" stroke-width="1" fill="none"></path></g></g><g stroke-linecap="round"><g transform="translate(160.081924902408 818.4494258797595) rotate(0 10.532492583258318 -0.13606385088723982)"><path d="M0 0 C3.51 -0.05, 17.55 -0.23, 21.06 -0.27 M0 0 C3.51 -0.05, 17.55 -0.23, 21.06 -0.27" stroke="#000000" stroke-width="1" fill="none"></path></g></g><g stroke-linecap="round"><g transform="translate(152.02123864982696 789.4303813401584) rotate(0 19.520751523144327 0.07008430878522631)"><path d="M0 0 C6.51 0.02, 32.53 0.12, 39.04 0.14 M0 0 C6.51 0.02, 32.53 0.12, 39.04 0.14" stroke="#000000" stroke-width="1" fill="none"></path></g></g><g stroke-linecap="round"><g transform="translate(170.56395916951215 775.1504793415133) rotate(0 -5.847752863413234 19.109620964368787)"><path d="M0 0 C-1.95 6.37, -9.75 31.85, -11.7 38.22 M0 0 C-1.95 6.37, -9.75 31.85, -11.7 38.22" stroke="#000000" stroke-width="1" fill="none"></path></g></g><g stroke-linecap="round"><g transform="translate(172.7597537113179 775.1291343560079) rotate(0 5.847752863413234 19.422893439194468)"><path d="M0 0 C1.95 6.47, 9.75 32.37, 11.7 38.85 M0 0 C1.95 6.47, 9.75 32.37, 11.7 38.85" stroke="#000000" stroke-width="1" fill="none"></path></g></g><g stroke-linecap="round"><g transform="translate(159.09494176693806 814.0060233799286) rotate(0 16.49901700748751 -11.173384935450486)"><path d="M0 0 C5.5 -3.72, 27.5 -18.62, 33 -22.35 M0 0 C5.5 -3.72, 27.5 -18.62, 33 -22.35" stroke="#000000" stroke-width="1" fill="none"></path></g></g><g stroke-linecap="round"><g transform="translate(150.29538933229196 791.9944193555984) rotate(0 16.707773451649018 11.01164939495493)"><path d="M0 0 C5.57 3.67, 27.85 18.35, 33.42 22.02 M0 0 C5.57 3.67, 27.85 18.35, 33.42 22.02" stroke="#000000" stroke-width="1" fill="none"></path></g></g><g stroke-linecap="round"><g transform="translate(916.4671146453375 554.9073621961797) rotate(0 -0.416717529296875 -45)"><path d="M0 0 C-0.14 -15, -0.69 -75, -0.83 -90 M0 0 C-0.14 -15, -0.69 -75, -0.83 -90" stroke="#000000" stroke-width="2" fill="none"></path></g></g><g stroke-linecap="round"><g transform="translate(522.7633657304063 144.16656494140625) rotate(0 -0.416717529296875 -45)"><path d="M0 0 C-0.14 -15, -0.69 -75, -0.83 -90 M0 0 C-0.14 -15, -0.69 -75, -0.83 -90" stroke="#000000" stroke-width="2" fill="none"></path></g></g><g stroke-linecap="round"><g transform="translate(171.28197467137898 746.7593044704863) rotate(0 -0.416717529296875 -45)"><path d="M0 0 C-0.14 -15, -0.69 -75, -0.83 -90 M0 0 C-0.14 -15, -0.69 -75, -0.83 -90" stroke="#000000" stroke-width="2" fill="none"></path></g></g><g stroke-linecap="round" transform="translate(893.9671146453375 420.7407972547735) rotate(0 20.833282470703125 21.666641235351562)"><path d="M41.67 21.67 C41.67 22.92, 41.56 24.19, 41.35 25.43 C41.14 26.66, 40.82 27.9, 40.41 29.08 C40 30.26, 39.48 31.41, 38.88 32.5 C38.27 33.59, 37.57 34.63, 36.79 35.59 C36.02 36.55, 35.15 37.46, 34.22 38.26 C33.3 39.07, 32.29 39.8, 31.25 40.43 C30.21 41.06, 29.09 41.6, 27.96 42.03 C26.83 42.46, 25.64 42.79, 24.45 43 C23.26 43.22, 22.04 43.33, 20.83 43.33 C19.63 43.33, 18.4 43.22, 17.22 43 C16.03 42.79, 14.84 42.46, 13.71 42.03 C12.57 41.6, 11.46 41.06, 10.42 40.43 C9.37 39.8, 8.37 39.07, 7.44 38.26 C6.52 37.46, 5.65 36.55, 4.87 35.59 C4.1 34.63, 3.39 33.59, 2.79 32.5 C2.19 31.41, 1.67 30.26, 1.26 29.08 C0.84 27.9, 0.53 26.66, 0.32 25.43 C0.11 24.19, 0 22.92, 0 21.67 C0 20.41, 0.11 19.14, 0.32 17.9 C0.53 16.67, 0.84 15.43, 1.26 14.26 C1.67 13.08, 2.19 11.92, 2.79 10.83 C3.39 9.75, 4.1 8.7, 4.87 7.74 C5.65 6.78, 6.52 5.88, 7.44 5.07 C8.37 4.26, 9.37 3.53, 10.42 2.9 C11.46 2.28, 12.57 1.74, 13.71 1.31 C14.84 0.88, 16.03 0.55, 17.22 0.33 C18.4 0.11, 19.63 0, 20.83 0 C22.04 0, 23.26 0.11, 24.45 0.33 C25.64 0.55, 26.83 0.88, 27.96 1.31 C29.09 1.74, 30.21 2.28, 31.25 2.9 C32.29 3.53, 33.3 4.26, 34.22 5.07 C35.15 5.88, 36.02 6.78, 36.79 7.74 C37.57 8.7, 38.27 9.75, 38.88 10.83 C39.48 11.92, 40 13.08, 40.41 14.26 C40.82 15.43, 41.14 16.67, 41.35 17.9 C41.56 19.14, 41.61 21.04, 41.67 21.67 C41.72 22.29, 41.72 21.04, 41.67 21.67" stroke="#000000" stroke-width="2" fill="none"></path></g><g stroke-linecap="round" transform="translate(500.26336573040635 10) rotate(0 20.833282470703125 21.666641235351562)"><path d="M41.67 21.67 C41.67 22.92, 41.56 24.19, 41.35 25.43 C41.14 26.66, 40.82 27.9, 40.41 29.08 C40 30.26, 39.48 31.41, 38.88 32.5 C38.27 33.59, 37.57 34.63, 36.79 35.59 C36.02 36.55, 35.15 37.46, 34.22 38.26 C33.3 39.07, 32.29 39.8, 31.25 40.43 C30.21 41.06, 29.09 41.6, 27.96 42.03 C26.83 42.46, 25.64 42.79, 24.45 43 C23.26 43.22, 22.04 43.33, 20.83 43.33 C19.63 43.33, 18.4 43.22, 17.22 43 C16.03 42.79, 14.84 42.46, 13.71 42.03 C12.57 41.6, 11.46 41.06, 10.42 40.43 C9.37 39.8, 8.37 39.07, 7.44 38.26 C6.52 37.46, 5.65 36.55, 4.87 35.59 C4.1 34.63, 3.39 33.59, 2.79 32.5 C2.19 31.41, 1.67 30.26, 1.26 29.08 C0.84 27.9, 0.53 26.66, 0.32 25.43 C0.11 24.19, 0 22.92, 0 21.67 C0 20.41, 0.11 19.14, 0.32 17.9 C0.53 16.67, 0.84 15.43, 1.26 14.26 C1.67 13.08, 2.19 11.92, 2.79 10.83 C3.39 9.75, 4.1 8.7, 4.87 7.74 C5.65 6.78, 6.52 5.88, 7.44 5.07 C8.37 4.26, 9.37 3.53, 10.42 2.9 C11.46 2.28, 12.57 1.74, 13.71 1.31 C14.84 0.88, 16.03 0.55, 17.22 0.33 C18.4 0.11, 19.63 0, 20.83 0 C22.04 0, 23.26 0.11, 24.45 0.33 C25.64 0.55, 26.83 0.88, 27.96 1.31 C29.09 1.74, 30.21 2.28, 31.25 2.9 C32.29 3.53, 33.3 4.26, 34.22 5.07 C35.15 5.88, 36.02 6.78, 36.79 7.74 C37.57 8.7, 38.27 9.75, 38.88 10.83 C39.48 11.92, 40 13.08, 40.41 14.26 C40.82 15.43, 41.14 16.67, 41.35 17.9 C41.56 19.14, 41.61 21.04, 41.67 21.67 C41.72 22.29, 41.72 21.04, 41.67 21.67" stroke="#000000" stroke-width="2" fill="none"></path></g><g stroke-linecap="round" transform="translate(148.78197467137898 612.5927395290801) rotate(0 20.833282470703125 21.666641235351562)"><path d="M41.67 21.67 C41.67 22.92, 41.56 24.19, 41.35 25.43 C41.14 26.66, 40.82 27.9, 40.41 29.08 C40 30.26, 39.48 31.41, 38.88 32.5 C38.27 33.59, 37.57 34.63, 36.79 35.59 C36.02 36.55, 35.15 37.46, 34.22 38.26 C33.3 39.07, 32.29 39.8, 31.25 40.43 C30.21 41.06, 29.09 41.6, 27.96 42.03 C26.83 42.46, 25.64 42.79, 24.45 43 C23.26 43.22, 22.04 43.33, 20.83 43.33 C19.63 43.33, 18.4 43.22, 17.22 43 C16.03 42.79, 14.84 42.46, 13.71 42.03 C12.57 41.6, 11.46 41.06, 10.42 40.43 C9.37 39.8, 8.37 39.07, 7.44 38.26 C6.52 37.46, 5.65 36.55, 4.87 35.59 C4.1 34.63, 3.39 33.59, 2.79 32.5 C2.19 31.41, 1.67 30.26, 1.26 29.08 C0.84 27.9, 0.53 26.66, 0.32 25.43 C0.11 24.19, 0 22.92, 0 21.67 C0 20.41, 0.11 19.14, 0.32 17.9 C0.53 16.67, 0.84 15.43, 1.26 14.26 C1.67 13.08, 2.19 11.92, 2.79 10.83 C3.39 9.75, 4.1 8.7, 4.87 7.74 C5.65 6.78, 6.52 5.88, 7.44 5.07 C8.37 4.26, 9.37 3.53, 10.42 2.9 C11.46 2.28, 12.57 1.74, 13.71 1.31 C14.84 0.88, 16.03 0.55, 17.22 0.33 C18.4 0.11, 19.63 0, 20.83 0 C22.04 0, 23.26 0.11, 24.45 0.33 C25.64 0.55, 26.83 0.88, 27.96 1.31 C29.09 1.74, 30.21 2.28, 31.25 2.9 C32.29 3.53, 33.3 4.26, 34.22 5.07 C35.15 5.88, 36.02 6.78, 36.79 7.74 C37.57 8.7, 38.27 9.75, 38.88 10.83 C39.48 11.92, 40 13.08, 40.41 14.26 C40.82 15.43, 41.14 16.67, 41.35 17.9 C41.56 19.14, 41.61 21.04, 41.67 21.67 C41.72 22.29, 41.72 21.04, 41.67 21.67" stroke="#000000" stroke-width="2" fill="none"></path></g><g stroke-linecap="round" transform="translate(268.9483632890001 301.01836734347853) rotate(0 261.7686123318142 204.3982060750327)"><path d="M0 0 C152.39 0, 304.78 0, 523.54 0 M523.54 0 C523.54 127.87, 523.54 255.73, 523.54 408.8 M523.54 408.8 C387.6 408.8, 251.67 408.8, 0 408.8 M0 408.8 C0 259.25, 0 109.71, 0 0" stroke="#0b7285" stroke-width="2.5" fill="none" stroke-dasharray="8 10"></path></g><g transform="translate(309.83675942179616 349.2888778073984) rotate(0 223.5 165.5)"><text x="0" y="33.375" font-family="Helvetica, Segoe UI Emoji" font-size="36px" fill="#000000" text-anchor="start" style="white-space: pre;" direction="ltr">SPARQL Query</text><text x="0" y="74.75" font-family="Helvetica, Segoe UI Emoji" font-size="36px" fill="#000000" text-anchor="start" style="white-space: pre;" direction="ltr">{</text><text x="0" y="116.125" font-family="Helvetica, Segoe UI Emoji" font-size="36px" fill="#000000" text-anchor="start" style="white-space: pre;" direction="ltr"></text><text x="0" y="157.5" font-family="Helvetica, Segoe UI Emoji" font-size="36px" fill="#000000" text-anchor="start" style="white-space: pre;" direction="ltr">SERVICE &lt;endpoint A&gt; {...}</text><text x="0" y="198.875" font-family="Helvetica, Segoe UI Emoji" font-size="36px" fill="#000000" text-anchor="start" style="white-space: pre;" direction="ltr">SERVICE &lt;endpoint B&gt; {...}</text><text x="0" y="240.25" font-family="Helvetica, Segoe UI Emoji" font-size="36px" fill="#000000" text-anchor="start" style="white-space: pre;" direction="ltr">SERVICE &lt;endpoint C&gt; {...}</text><text x="0" y="281.625" font-family="Helvetica, Segoe UI Emoji" font-size="36px" fill="#000000" text-anchor="start" style="white-space: pre;" direction="ltr"></text><text x="0" y="323" font-family="Helvetica, Segoe UI Emoji" font-size="36px" fill="#000000" text-anchor="start" style="white-space: pre;" direction="ltr">} </text></g><g stroke-linecap="round"><g transform="translate(729.0961656175423 482.6963756372579) rotate(0 -92.96291775173609 -221.48149278428855)"><path d="M0 0 C-8.4 -46.91, -19.38 -207.65, -50.37 -281.48 C-81.36 -355.31, -163.33 -416.05, -185.93 -442.96 M0 0 C-8.4 -46.91, -19.38 -207.65, -50.37 -281.48 C-81.36 -355.31, -163.33 -416.05, -185.93 -442.96" stroke="#087f5b" stroke-width="2" fill="none"></path></g><g transform="translate(729.0961656175423 482.6963756372579) rotate(0 -92.96291775173609 -221.48149278428855)"><path d="M-158.62 -430.53 C-166.39 -434.06, -174.15 -437.6, -185.93 -442.96 M-158.62 -430.53 C-166.12 -433.94, -173.61 -437.35, -185.93 -442.96" stroke="#087f5b" stroke-width="2" fill="none"></path></g><g transform="translate(729.0961656175423 482.6963756372579) rotate(0 -92.96291775173609 -221.48149278428855)"><path d="M-173 -415.89 C-176.68 -423.59, -180.35 -431.29, -185.93 -442.96 M-173 -415.89 C-176.55 -423.32, -180.1 -430.75, -185.93 -442.96" stroke="#087f5b" stroke-width="2" fill="none"></path></g></g><g stroke-linecap="round"><g transform="translate(755.76269665053 528.6222111407305) rotate(0 68.14819335937477 -39.62958441840328)"><path d="M0 0 C22.72 -13.21, 113.58 -66.05, 136.3 -79.26 M0 0 C22.72 -13.21, 113.58 -66.05, 136.3 -79.26" stroke="#087f5b" stroke-width="2" fill="none"></path></g><g transform="translate(755.76269665053 528.6222111407305) rotate(0 68.14819335937477 -39.62958441840328)"><path d="M117.08 -56.22 C124.07 -64.59, 131.05 -72.97, 136.3 -79.26 M117.08 -56.22 C123.89 -64.38, 130.7 -72.55, 136.3 -79.26" stroke="#087f5b" stroke-width="2" fill="none"></path></g><g transform="translate(755.76269665053 528.6222111407305) rotate(0 68.14819335937477 -39.62958441840328)"><path d="M106.77 -73.96 C117.5 -75.88, 128.24 -77.81, 136.3 -79.26 M106.77 -73.96 C117.23 -75.84, 127.7 -77.71, 136.3 -79.26" stroke="#087f5b" stroke-width="2" fill="none"></path></g></g><g stroke-linecap="round"><g transform="translate(729.8368611470573 597.5111678464591) rotate(0 -267.0370822482637 23.431083713107455)"><path d="M0 0 C-3.46 6.67, 1.36 32.22, -20.74 40 C-42.84 47.78, -47.04 47.04, -132.59 46.67 C-218.15 46.3, -467.16 39.26, -534.07 37.78 M0 0 C-3.46 6.67, 1.36 32.22, -20.74 40 C-42.84 47.78, -47.04 47.04, -132.59 46.67 C-218.15 46.3, -467.16 39.26, -534.07 37.78" stroke="#087f5b" stroke-width="2" fill="none"></path></g><g transform="translate(729.8368611470573 597.5111678464591) rotate(0 -267.0370822482637 23.431083713107455)"><path d="M-505.64 28.23 C-515.44 31.52, -525.25 34.82, -534.07 37.78 M-505.64 28.23 C-513.82 30.98, -522.01 33.73, -534.07 37.78" stroke="#087f5b" stroke-width="2" fill="none"></path></g><g transform="translate(729.8368611470573 597.5111678464591) rotate(0 -267.0370822482637 23.431083713107455)"><path d="M-506.15 48.74 C-515.78 44.96, -525.41 41.18, -534.07 37.78 M-506.15 48.74 C-514.19 45.58, -522.23 42.43, -534.07 37.78" stroke="#087f5b" stroke-width="2" fill="none"></path></g></g></svg>