<svg version="1.1" xmlns="http://www.w3.org/2000/svg" viewBox="0 0 616.4789316204838 217.22222222222263" width="1849.4367948614513" height="651.6666666666679">
  <!-- svg-source:excalidraw -->
  
  <defs>
    <style>
      @font-face {
        font-family: "Virgil";
        src: url("https://excalidraw.com/Virgil.woff2");
      }
      @font-face {
        font-family: "Cascadia";
        src: url("https://excalidraw.com/Cascadia.woff2");
      }
    </style>
  </defs>
  <rect x="0" y="0" width="616.4789316204838" height="217.22222222222263" fill="#ffffff"></rect><g stroke-linecap="round" transform="translate(40.66918798908091 90.74927038021087) rotate(0 16.78297213308906 16.516603817136456)"><path d="M33.57 16.52 C33.57 17.47, 33.48 18.44, 33.31 19.38 C33.14 20.33, 32.89 21.27, 32.55 22.17 C32.22 23.06, 31.8 23.95, 31.32 24.77 C30.83 25.6, 30.26 26.4, 29.64 27.13 C29.02 27.87, 28.32 28.55, 27.57 29.17 C26.83 29.78, 26.02 30.34, 25.17 30.82 C24.33 31.3, 23.44 31.71, 22.52 32.04 C21.61 32.36, 20.65 32.62, 19.7 32.78 C18.74 32.95, 17.75 33.03, 16.78 33.03 C15.81 33.03, 14.83 32.95, 13.87 32.78 C12.91 32.62, 11.96 32.36, 11.04 32.04 C10.13 31.71, 9.23 31.3, 8.39 30.82 C7.55 30.34, 6.74 29.78, 6 29.17 C5.25 28.55, 4.55 27.87, 3.93 27.13 C3.3 26.4, 2.73 25.6, 2.25 24.77 C1.76 23.95, 1.34 23.06, 1.01 22.17 C0.68 21.27, 0.42 20.33, 0.25 19.38 C0.09 18.44, 0 17.47, 0 16.52 C0 15.56, 0.09 14.59, 0.25 13.65 C0.42 12.71, 0.68 11.77, 1.01 10.87 C1.34 9.97, 1.76 9.09, 2.25 8.26 C2.73 7.43, 3.3 6.63, 3.93 5.9 C4.55 5.17, 5.25 4.48, 6 3.86 C6.74 3.25, 7.55 2.69, 8.39 2.21 C9.23 1.73, 10.13 1.32, 11.04 1 C11.96 0.67, 12.91 0.42, 13.87 0.25 C14.83 0.08, 15.81 0, 16.78 0 C17.75 0, 18.74 0.08, 19.7 0.25 C20.65 0.42, 21.61 0.67, 22.52 1 C23.44 1.32, 24.33 1.73, 25.17 2.21 C26.02 2.69, 26.83 3.25, 27.57 3.86 C28.32 4.48, 29.02 5.17, 29.64 5.9 C30.26 6.63, 30.83 7.43, 31.32 8.26 C31.8 9.09, 32.22 9.97, 32.55 10.87 C32.89 11.77, 33.14 12.71, 33.31 13.65 C33.48 14.59, 33.52 16.04, 33.57 16.52 C33.61 16.99, 33.61 16.04, 33.57 16.52" stroke="#000000" stroke-width="1.5" fill="none" stroke-dasharray="8 9"></path></g><g stroke-linecap="round" transform="translate(303.2572592393917 90.20390929631867) rotate(4.671131808171549 16.78297213308906 17.049401422423216)"><path d="M33.57 17.05 C33.57 18.04, 33.48 19.04, 33.31 20.01 C33.14 20.98, 32.89 21.95, 32.55 22.88 C32.22 23.81, 31.8 24.72, 31.32 25.57 C30.83 26.43, 30.26 27.25, 29.64 28.01 C29.02 28.76, 28.32 29.48, 27.57 30.11 C26.83 30.74, 26.02 31.32, 25.17 31.81 C24.33 32.31, 23.44 32.73, 22.52 33.07 C21.61 33.41, 20.65 33.67, 19.7 33.84 C18.74 34.01, 17.75 34.1, 16.78 34.1 C15.81 34.1, 14.83 34.01, 13.87 33.84 C12.91 33.67, 11.96 33.41, 11.04 33.07 C10.13 32.73, 9.23 32.31, 8.39 31.81 C7.55 31.32, 6.74 30.74, 6 30.11 C5.25 29.48, 4.55 28.76, 3.93 28.01 C3.3 27.25, 2.73 26.43, 2.25 25.57 C1.76 24.72, 1.34 23.81, 1.01 22.88 C0.68 21.95, 0.42 20.98, 0.25 20.01 C0.09 19.04, 0 18.04, 0 17.05 C0 16.06, 0.09 15.06, 0.25 14.09 C0.42 13.12, 0.68 12.15, 1.01 11.22 C1.34 10.29, 1.76 9.38, 2.25 8.52 C2.73 7.67, 3.3 6.85, 3.93 6.09 C4.55 5.33, 5.25 4.62, 6 3.99 C6.74 3.35, 7.55 2.78, 8.39 2.28 C9.23 1.79, 10.13 1.37, 11.04 1.03 C11.96 0.69, 12.91 0.43, 13.87 0.26 C14.83 0.09, 15.81 0, 16.78 0 C17.75 0, 18.74 0.09, 19.7 0.26 C20.65 0.43, 21.61 0.69, 22.52 1.03 C23.44 1.37, 24.33 1.79, 25.17 2.28 C26.02 2.78, 26.83 3.35, 27.57 3.99 C28.32 4.62, 29.02 5.33, 29.64 6.09 C30.26 6.85, 30.83 7.67, 31.32 8.52 C31.8 9.38, 32.22 10.29, 32.55 11.22 C32.89 12.15, 33.14 13.12, 33.31 14.09 C33.48 15.06, 33.52 16.56, 33.57 17.05 C33.61 17.54, 33.61 16.56, 33.57 17.05" stroke="#000000" stroke-width="1.5" fill="none" stroke-dasharray="8 9"></path></g><g stroke-linecap="round" transform="translate(533.2572592393917 92.05571593694367) rotate(4.671131808171549 16.78297213308906 17.049401422423216)"><path d="M33.57 17.05 C33.57 18.04, 33.48 19.04, 33.31 20.01 C33.14 20.98, 32.89 21.95, 32.55 22.88 C32.22 23.81, 31.8 24.72, 31.32 25.57 C30.83 26.43, 30.26 27.25, 29.64 28.01 C29.02 28.76, 28.32 29.48, 27.57 30.11 C26.83 30.74, 26.02 31.32, 25.17 31.81 C24.33 32.31, 23.44 32.73, 22.52 33.07 C21.61 33.41, 20.65 33.67, 19.7 33.84 C18.74 34.01, 17.75 34.1, 16.78 34.1 C15.81 34.1, 14.83 34.01, 13.87 33.84 C12.91 33.67, 11.96 33.41, 11.04 33.07 C10.13 32.73, 9.23 32.31, 8.39 31.81 C7.55 31.32, 6.74 30.74, 6 30.11 C5.25 29.48, 4.55 28.76, 3.93 28.01 C3.3 27.25, 2.73 26.43, 2.25 25.57 C1.76 24.72, 1.34 23.81, 1.01 22.88 C0.68 21.95, 0.42 20.98, 0.25 20.01 C0.09 19.04, 0 18.04, 0 17.05 C0 16.06, 0.09 15.06, 0.25 14.09 C0.42 13.12, 0.68 12.15, 1.01 11.22 C1.34 10.29, 1.76 9.38, 2.25 8.52 C2.73 7.67, 3.3 6.85, 3.93 6.09 C4.55 5.33, 5.25 4.62, 6 3.99 C6.74 3.35, 7.55 2.78, 8.39 2.28 C9.23 1.79, 10.13 1.37, 11.04 1.03 C11.96 0.69, 12.91 0.43, 13.87 0.26 C14.83 0.09, 15.81 0, 16.78 0 C17.75 0, 18.74 0.09, 19.7 0.26 C20.65 0.43, 21.61 0.69, 22.52 1.03 C23.44 1.37, 24.33 1.79, 25.17 2.28 C26.02 2.78, 26.83 3.35, 27.57 3.99 C28.32 4.62, 29.02 5.33, 29.64 6.09 C30.26 6.85, 30.83 7.67, 31.32 8.52 C31.8 9.38, 32.22 10.29, 32.55 11.22 C32.89 12.15, 33.14 13.12, 33.31 14.09 C33.48 15.06, 33.52 16.56, 33.57 17.05 C33.61 17.54, 33.61 16.56, 33.57 17.05" stroke="#000000" stroke-width="1.5" fill="none" stroke-dasharray="8 9"></path></g><g stroke-linecap="round"><g transform="translate(78.08592686970132 112.90976133724871) rotate(3.8789134570850092 110.13538190099052 -6.919052525240659)"><path d="M0 0 C36.71 -2.31, 183.56 -11.53, 220.27 -13.84 M0 0 C36.71 -2.31, 183.56 -11.53, 220.27 -13.84" stroke="#000000" stroke-width="1" fill="none"></path></g><g transform="translate(78.08592686970132 112.90976133724871) rotate(3.8789134570850092 110.13538190099052 -6.919052525240659)"><path d="M192.78 -1.83 C203.28 -6.42, 213.79 -11.01, 220.27 -13.84 M192.78 -1.83 C201.37 -5.58, 209.96 -9.33, 220.27 -13.84" stroke="#000000" stroke-width="1" fill="none"></path></g><g transform="translate(78.08592686970132 112.90976133724871) rotate(3.8789134570850092 110.13538190099052 -6.919052525240659)"><path d="M191.49 -22.31 C202.49 -19.07, 213.48 -15.84, 220.27 -13.84 M191.49 -22.31 C200.48 -19.66, 209.47 -17.02, 220.27 -13.84" stroke="#000000" stroke-width="1" fill="none"></path></g></g><g transform="translate(10 132.49540673941738) rotate(0 43.5 12.5)"><text x="0" y="20" font-family="Helvetica, Segoe UI Emoji" font-size="22.30542730004413px" fill="#2b8a3e" text-anchor="start" style="white-space: pre;" direction="ltr">?country</text></g><g transform="translate(234.1610969069343 132.9157532300478) rotate(0 37.5 12.5)"><text x="0" y="20" font-family="Helvetica, Segoe UI Emoji" font-size="22.30542730004413px" fill="#2b8a3e" text-anchor="start" style="white-space: pre;" direction="ltr">?leader</text></g><g transform="translate(547.4789316204838 132.9487851720296) rotate(0 29.5 12.5)"><text x="0" y="20" font-family="Helvetica, Segoe UI Emoji" font-size="22.30542730004413px" fill="#2b8a3e" text-anchor="start" style="white-space: pre;" direction="ltr">?child</text></g><g transform="translate(92.34761075776805 80.74076334635447) rotate(0 83 12.5)"><text x="0" y="20" font-family="Helvetica, Segoe UI Emoji" font-size="22.30542730004413px" fill="#000000" text-anchor="start" style="white-space: pre;" direction="ltr">dbo:leaderName</text></g><g transform="translate(387.53288636540674 10) rotate(0 45 12.5)"><text x="0" y="20" font-family="Helvetica, Segoe UI Emoji" font-size="22.30542730004413px" fill="#000000" text-anchor="start" style="white-space: pre;" direction="ltr">dbo:child</text></g><g transform="translate(383.45885750255957 182.22222222222263) rotate(0 53.5 12.5)"><text x="0" y="20" font-family="Helvetica, Segoe UI Emoji" font-size="22.30542730004413px" fill="#000000" text-anchor="start" style="white-space: pre;" direction="ltr">dbo:parent</text></g><g stroke-linecap="round"><g transform="translate(329.0897779431634 86.98052712768913) rotate(0 106.29625108506957 -22.742897480059582)"><path d="M0 1.27 C8.32 -6.1, 23.38 -35.45, 49.89 -42.94 C76.41 -50.44, 131.97 -51.45, 159.08 -43.7 C186.2 -35.95, 203.67 -4.32, 212.59 3.55 M0 1.27 C8.32 -6.1, 23.38 -35.45, 49.89 -42.94 C76.41 -50.44, 131.97 -51.45, 159.08 -43.7 C186.2 -35.95, 203.67 -4.32, 212.59 3.55" stroke="#000000" stroke-width="1" fill="none"></path></g><g transform="translate(329.0897779431634 86.98052712768913) rotate(0 106.29625108506957 -22.742897480059582)"><path d="M186.53 -11.3 C195.29 -6.31, 204.06 -1.31, 212.59 3.55 M186.53 -11.3 C193.14 -7.53, 199.76 -3.76, 212.59 3.55" stroke="#000000" stroke-width="1" fill="none"></path></g><g transform="translate(329.0897779431634 86.98052712768913) rotate(0 106.29625108506957 -22.742897480059582)"><path d="M202.18 -24.58 C205.68 -15.12, 209.18 -5.66, 212.59 3.55 M202.18 -24.58 C204.82 -17.44, 207.46 -10.3, 212.59 3.55" stroke="#000000" stroke-width="1" fill="none"></path></g></g><g stroke-linecap="round"><g transform="translate(330.457735224918 128.5330286662993) rotate(0 102.74474418357045 23.744766705158327)"><path d="M0 -0.01 C9.43 7.32, 30.11 36.52, 56.55 43.99 C82.99 51.46, 133.82 52.57, 158.64 44.81 C183.46 37.04, 197.68 5.28, 205.49 -2.62 M0 -0.01 C9.43 7.32, 30.11 36.52, 56.55 43.99 C82.99 51.46, 133.82 52.57, 158.64 44.81 C183.46 37.04, 197.68 5.28, 205.49 -2.62" stroke="#000000" stroke-width="1" fill="none"></path></g><g transform="translate(330.457735224918 128.5330286662993) rotate(0 102.74474418357045 23.744766705158327)"><path d="M27.53 11.9 C17.77 7.68, 8.01 3.46, 0 -0.01 M27.53 11.9 C21.59 9.33, 15.65 6.76, 0 -0.01" stroke="#000000" stroke-width="1" fill="none"></path></g><g transform="translate(330.457735224918 128.5330286662993) rotate(0 102.74474418357045 23.744766705158327)"><path d="M13.43 26.81 C8.67 17.3, 3.91 7.79, 0 -0.01 M13.43 26.81 C10.53 21.03, 7.64 15.24, 0 -0.01" stroke="#000000" stroke-width="1" fill="none"></path></g></g></svg>