<svg version="1.1" xmlns="http://www.w3.org/2000/svg" viewBox="0 0 1189.3335037231445 471.6666793823242" width="3568.0005111694336" height="1415.0000381469727">
  <!-- svg-source:excalidraw -->
  
  <defs>
    <style>
      @font-face {
        font-family: "Virgil";
        src: url("https://excalidraw.com/Virgil.woff2");
      }
      @font-face {
        font-family: "Cascadia";
        src: url("https://excalidraw.com/Cascadia.woff2");
      }
    </style>
  </defs>
  <g stroke-linecap="round"><g transform="translate(61.437851859329385 186.73395676236032) rotate(0 90.6534480990058 0.16487588002655684)"><path d="M0 0 C30.22 0.05, 151.09 0.27, 181.31 0.33 M0 0 C30.22 0.05, 151.09 0.27, 181.31 0.33" stroke="#000000" stroke-width="1" fill="none"></path></g></g><g stroke-linecap="round" transform="translate(66.31720289173609 172.91781234754308) rotate(0 3.5508577306727602 3.4987719219643623)"><path d="M7.1 3.5 C7.1 3.7, 7.08 3.91, 7.05 4.11 C7.01 4.31, 6.96 4.51, 6.89 4.7 C6.82 4.89, 6.73 5.07, 6.63 5.25 C6.52 5.42, 6.4 5.59, 6.27 5.75 C6.14 5.9, 5.99 6.05, 5.83 6.18 C5.68 6.31, 5.5 6.43, 5.33 6.53 C5.15 6.63, 4.96 6.72, 4.77 6.79 C4.57 6.86, 4.37 6.91, 4.17 6.94 C3.97 6.98, 3.76 7, 3.55 7 C3.35 7, 3.14 6.98, 2.93 6.94 C2.73 6.91, 2.53 6.86, 2.34 6.79 C2.14 6.72, 1.95 6.63, 1.78 6.53 C1.6 6.43, 1.43 6.31, 1.27 6.18 C1.11 6.05, 0.96 5.9, 0.83 5.75 C0.7 5.59, 0.58 5.42, 0.48 5.25 C0.37 5.07, 0.28 4.89, 0.21 4.7 C0.14 4.51, 0.09 4.31, 0.05 4.11 C0.02 3.91, 0 3.7, 0 3.5 C0 3.3, 0.02 3.09, 0.05 2.89 C0.09 2.69, 0.14 2.49, 0.21 2.3 C0.28 2.11, 0.37 1.92, 0.48 1.75 C0.58 1.57, 0.7 1.4, 0.83 1.25 C0.96 1.09, 1.11 0.95, 1.27 0.82 C1.43 0.69, 1.6 0.57, 1.78 0.47 C1.95 0.37, 2.14 0.28, 2.34 0.21 C2.53 0.14, 2.73 0.09, 2.93 0.05 C3.14 0.02, 3.35 0, 3.55 0 C3.76 0, 3.97 0.02, 4.17 0.05 C4.37 0.09, 4.57 0.14, 4.77 0.21 C4.96 0.28, 5.15 0.37, 5.33 0.47 C5.5 0.57, 5.68 0.69, 5.83 0.82 C5.99 0.95, 6.14 1.09, 6.27 1.25 C6.4 1.4, 6.52 1.57, 6.63 1.75 C6.73 1.92, 6.82 2.11, 6.89 2.3 C6.96 2.49, 7.01 2.69, 7.05 2.89 C7.08 3.09, 7.09 3.4, 7.1 3.5 C7.11 3.6, 7.11 3.4, 7.1 3.5" stroke="none" stroke-width="0" fill="#ffffff"></path><path d="M7.1 3.5 C7.1 3.7, 7.08 3.91, 7.05 4.11 C7.01 4.31, 6.96 4.51, 6.89 4.7 C6.82 4.89, 6.73 5.07, 6.63 5.25 C6.52 5.42, 6.4 5.59, 6.27 5.75 C6.14 5.9, 5.99 6.05, 5.83 6.18 C5.68 6.31, 5.5 6.43, 5.33 6.53 C5.15 6.63, 4.96 6.72, 4.77 6.79 C4.57 6.86, 4.37 6.91, 4.17 6.94 C3.97 6.98, 3.76 7, 3.55 7 C3.35 7, 3.14 6.98, 2.93 6.94 C2.73 6.91, 2.53 6.86, 2.34 6.79 C2.14 6.72, 1.95 6.63, 1.78 6.53 C1.6 6.43, 1.43 6.31, 1.27 6.18 C1.11 6.05, 0.96 5.9, 0.83 5.75 C0.7 5.59, 0.58 5.42, 0.48 5.25 C0.37 5.07, 0.28 4.89, 0.21 4.7 C0.14 4.51, 0.09 4.31, 0.05 4.11 C0.02 3.91, 0 3.7, 0 3.5 C0 3.3, 0.02 3.09, 0.05 2.89 C0.09 2.69, 0.14 2.49, 0.21 2.3 C0.28 2.11, 0.37 1.92, 0.48 1.75 C0.58 1.57, 0.7 1.4, 0.83 1.25 C0.96 1.09, 1.11 0.95, 1.27 0.82 C1.43 0.69, 1.6 0.57, 1.78 0.47 C1.95 0.37, 2.14 0.28, 2.34 0.21 C2.53 0.14, 2.73 0.09, 2.93 0.05 C3.14 0.02, 3.35 0, 3.55 0 C3.76 0, 3.97 0.02, 4.17 0.05 C4.37 0.09, 4.57 0.14, 4.77 0.21 C4.96 0.28, 5.15 0.37, 5.33 0.47 C5.5 0.57, 5.68 0.69, 5.83 0.82 C5.99 0.95, 6.14 1.09, 6.27 1.25 C6.4 1.4, 6.52 1.57, 6.63 1.75 C6.73 1.92, 6.82 2.11, 6.89 2.3 C6.96 2.49, 7.01 2.69, 7.05 2.89 C7.08 3.09, 7.09 3.4, 7.1 3.5 C7.11 3.6, 7.11 3.4, 7.1 3.5" stroke="#000000" stroke-width="1" fill="none"></path></g><g stroke-linecap="round" transform="translate(76.54324662660656 172.91781234754308) rotate(0 3.5508577306727602 3.4987719219643623)"><path d="M7.1 3.5 C7.1 3.7, 7.08 3.91, 7.05 4.11 C7.01 4.31, 6.96 4.51, 6.89 4.7 C6.82 4.89, 6.73 5.07, 6.63 5.25 C6.52 5.42, 6.4 5.59, 6.27 5.75 C6.14 5.9, 5.99 6.05, 5.83 6.18 C5.68 6.31, 5.5 6.43, 5.33 6.53 C5.15 6.63, 4.96 6.72, 4.77 6.79 C4.57 6.86, 4.37 6.91, 4.17 6.94 C3.97 6.98, 3.76 7, 3.55 7 C3.35 7, 3.14 6.98, 2.93 6.94 C2.73 6.91, 2.53 6.86, 2.34 6.79 C2.14 6.72, 1.95 6.63, 1.78 6.53 C1.6 6.43, 1.43 6.31, 1.27 6.18 C1.11 6.05, 0.96 5.9, 0.83 5.75 C0.7 5.59, 0.58 5.42, 0.48 5.25 C0.37 5.07, 0.28 4.89, 0.21 4.7 C0.14 4.51, 0.09 4.31, 0.05 4.11 C0.02 3.91, 0 3.7, 0 3.5 C0 3.3, 0.02 3.09, 0.05 2.89 C0.09 2.69, 0.14 2.49, 0.21 2.3 C0.28 2.11, 0.37 1.92, 0.48 1.75 C0.58 1.57, 0.7 1.4, 0.83 1.25 C0.96 1.09, 1.11 0.95, 1.27 0.82 C1.43 0.69, 1.6 0.57, 1.78 0.47 C1.95 0.37, 2.14 0.28, 2.34 0.21 C2.53 0.14, 2.73 0.09, 2.93 0.05 C3.14 0.02, 3.35 0, 3.55 0 C3.76 0, 3.97 0.02, 4.17 0.05 C4.37 0.09, 4.57 0.14, 4.77 0.21 C4.96 0.28, 5.15 0.37, 5.33 0.47 C5.5 0.57, 5.68 0.69, 5.83 0.82 C5.99 0.95, 6.14 1.09, 6.27 1.25 C6.4 1.4, 6.52 1.57, 6.63 1.75 C6.73 1.92, 6.82 2.11, 6.89 2.3 C6.96 2.49, 7.01 2.69, 7.05 2.89 C7.08 3.09, 7.09 3.4, 7.1 3.5 C7.11 3.6, 7.11 3.4, 7.1 3.5" stroke="none" stroke-width="0" fill="#ffffff"></path><path d="M7.1 3.5 C7.1 3.7, 7.08 3.91, 7.05 4.11 C7.01 4.31, 6.96 4.51, 6.89 4.7 C6.82 4.89, 6.73 5.07, 6.63 5.25 C6.52 5.42, 6.4 5.59, 6.27 5.75 C6.14 5.9, 5.99 6.05, 5.83 6.18 C5.68 6.31, 5.5 6.43, 5.33 6.53 C5.15 6.63, 4.96 6.72, 4.77 6.79 C4.57 6.86, 4.37 6.91, 4.17 6.94 C3.97 6.98, 3.76 7, 3.55 7 C3.35 7, 3.14 6.98, 2.93 6.94 C2.73 6.91, 2.53 6.86, 2.34 6.79 C2.14 6.72, 1.95 6.63, 1.78 6.53 C1.6 6.43, 1.43 6.31, 1.27 6.18 C1.11 6.05, 0.96 5.9, 0.83 5.75 C0.7 5.59, 0.58 5.42, 0.48 5.25 C0.37 5.07, 0.28 4.89, 0.21 4.7 C0.14 4.51, 0.09 4.31, 0.05 4.11 C0.02 3.91, 0 3.7, 0 3.5 C0 3.3, 0.02 3.09, 0.05 2.89 C0.09 2.69, 0.14 2.49, 0.21 2.3 C0.28 2.11, 0.37 1.92, 0.48 1.75 C0.58 1.57, 0.7 1.4, 0.83 1.25 C0.96 1.09, 1.11 0.95, 1.27 0.82 C1.43 0.69, 1.6 0.57, 1.78 0.47 C1.95 0.37, 2.14 0.28, 2.34 0.21 C2.53 0.14, 2.73 0.09, 2.93 0.05 C3.14 0.02, 3.35 0, 3.55 0 C3.76 0, 3.97 0.02, 4.17 0.05 C4.37 0.09, 4.57 0.14, 4.77 0.21 C4.96 0.28, 5.15 0.37, 5.33 0.47 C5.5 0.57, 5.68 0.69, 5.83 0.82 C5.99 0.95, 6.14 1.09, 6.27 1.25 C6.4 1.4, 6.52 1.57, 6.63 1.75 C6.73 1.92, 6.82 2.11, 6.89 2.3 C6.96 2.49, 7.01 2.69, 7.05 2.89 C7.08 3.09, 7.09 3.4, 7.1 3.5 C7.11 3.6, 7.11 3.4, 7.1 3.5" stroke="#000000" stroke-width="1" fill="none"></path></g><g stroke-linecap="round" transform="translate(86.41904405726746 172.91781234754308) rotate(0 3.5508577306727602 3.4987719219643623)"><path d="M7.1 3.5 C7.1 3.7, 7.08 3.91, 7.05 4.11 C7.01 4.31, 6.96 4.51, 6.89 4.7 C6.82 4.89, 6.73 5.07, 6.63 5.25 C6.52 5.42, 6.4 5.59, 6.27 5.75 C6.14 5.9, 5.99 6.05, 5.83 6.18 C5.68 6.31, 5.5 6.43, 5.33 6.53 C5.15 6.63, 4.96 6.72, 4.77 6.79 C4.57 6.86, 4.37 6.91, 4.17 6.94 C3.97 6.98, 3.76 7, 3.55 7 C3.35 7, 3.14 6.98, 2.93 6.94 C2.73 6.91, 2.53 6.86, 2.34 6.79 C2.14 6.72, 1.95 6.63, 1.78 6.53 C1.6 6.43, 1.43 6.31, 1.27 6.18 C1.11 6.05, 0.96 5.9, 0.83 5.75 C0.7 5.59, 0.58 5.42, 0.48 5.25 C0.37 5.07, 0.28 4.89, 0.21 4.7 C0.14 4.51, 0.09 4.31, 0.05 4.11 C0.02 3.91, 0 3.7, 0 3.5 C0 3.3, 0.02 3.09, 0.05 2.89 C0.09 2.69, 0.14 2.49, 0.21 2.3 C0.28 2.11, 0.37 1.92, 0.48 1.75 C0.58 1.57, 0.7 1.4, 0.83 1.25 C0.96 1.09, 1.11 0.95, 1.27 0.82 C1.43 0.69, 1.6 0.57, 1.78 0.47 C1.95 0.37, 2.14 0.28, 2.34 0.21 C2.53 0.14, 2.73 0.09, 2.93 0.05 C3.14 0.02, 3.35 0, 3.55 0 C3.76 0, 3.97 0.02, 4.17 0.05 C4.37 0.09, 4.57 0.14, 4.77 0.21 C4.96 0.28, 5.15 0.37, 5.33 0.47 C5.5 0.57, 5.68 0.69, 5.83 0.82 C5.99 0.95, 6.14 1.09, 6.27 1.25 C6.4 1.4, 6.52 1.57, 6.63 1.75 C6.73 1.92, 6.82 2.11, 6.89 2.3 C6.96 2.49, 7.01 2.69, 7.05 2.89 C7.08 3.09, 7.09 3.4, 7.1 3.5 C7.11 3.6, 7.11 3.4, 7.1 3.5" stroke="none" stroke-width="0" fill="#ffffff"></path><path d="M7.1 3.5 C7.1 3.7, 7.08 3.91, 7.05 4.11 C7.01 4.31, 6.96 4.51, 6.89 4.7 C6.82 4.89, 6.73 5.07, 6.63 5.25 C6.52 5.42, 6.4 5.59, 6.27 5.75 C6.14 5.9, 5.99 6.05, 5.83 6.18 C5.68 6.31, 5.5 6.43, 5.33 6.53 C5.15 6.63, 4.96 6.72, 4.77 6.79 C4.57 6.86, 4.37 6.91, 4.17 6.94 C3.97 6.98, 3.76 7, 3.55 7 C3.35 7, 3.14 6.98, 2.93 6.94 C2.73 6.91, 2.53 6.86, 2.34 6.79 C2.14 6.72, 1.95 6.63, 1.78 6.53 C1.6 6.43, 1.43 6.31, 1.27 6.18 C1.11 6.05, 0.96 5.9, 0.83 5.75 C0.7 5.59, 0.58 5.42, 0.48 5.25 C0.37 5.07, 0.28 4.89, 0.21 4.7 C0.14 4.51, 0.09 4.31, 0.05 4.11 C0.02 3.91, 0 3.7, 0 3.5 C0 3.3, 0.02 3.09, 0.05 2.89 C0.09 2.69, 0.14 2.49, 0.21 2.3 C0.28 2.11, 0.37 1.92, 0.48 1.75 C0.58 1.57, 0.7 1.4, 0.83 1.25 C0.96 1.09, 1.11 0.95, 1.27 0.82 C1.43 0.69, 1.6 0.57, 1.78 0.47 C1.95 0.37, 2.14 0.28, 2.34 0.21 C2.53 0.14, 2.73 0.09, 2.93 0.05 C3.14 0.02, 3.35 0, 3.55 0 C3.76 0, 3.97 0.02, 4.17 0.05 C4.37 0.09, 4.57 0.14, 4.77 0.21 C4.96 0.28, 5.15 0.37, 5.33 0.47 C5.5 0.57, 5.68 0.69, 5.83 0.82 C5.99 0.95, 6.14 1.09, 6.27 1.25 C6.4 1.4, 6.52 1.57, 6.63 1.75 C6.73 1.92, 6.82 2.11, 6.89 2.3 C6.96 2.49, 7.01 2.69, 7.05 2.89 C7.08 3.09, 7.09 3.4, 7.1 3.5 C7.11 3.6, 7.11 3.4, 7.1 3.5" stroke="#000000" stroke-width="1" fill="none"></path></g><g stroke-linecap="round"><g transform="translate(54.64266074070292 228.50366953389312) rotate(0 96.22444746933161 0.8938526948468279)" fill-rule="evenodd"><path d="M0 0 L0.87 -58.19 L2.83 -61.9 L5.74 -63.36 L154.65 -63.41 L188.68 -62.78 L190.4 -61.19 L192.11 -57.78 L192.47 -51.21 L191.59 27.02 L192.21 60.51 L190.88 64.14 L188.78 65.31 L58.87 64.06 L4.66 64.33 L1.5 63.14 L0.12 59.19 L0 0" stroke="none" stroke-width="0" fill="#ffffff" fill-rule="evenodd"></path><path d="M0 0 C0.04 -4.32, 0.17 -17.32, 0.22 -25.9 C0.27 -34.48, -0.13 -45.48, 0.31 -51.48 C0.74 -57.48, 0.53 -59.9, 2.83 -61.9 C5.13 -63.9, 4.53 -63.27, 14.1 -63.48 C23.67 -63.68, 42.13 -63.16, 60.24 -63.14 C78.35 -63.13, 102.76 -63.39, 122.73 -63.39 C142.7 -63.39, 168.78 -63.51, 180.06 -63.14 C191.33 -62.78, 188.33 -63.18, 190.4 -61.19 C192.47 -59.2, 192.2 -57.4, 192.47 -51.21 C192.75 -45.03, 192.12 -33.02, 192.03 -24.07 C191.94 -15.11, 192 -6, 191.92 2.51 C191.85 11.03, 191.55 18.5, 191.59 27.02 C191.63 35.55, 192.28 47.48, 192.17 53.67 C192.05 59.85, 192.83 62.23, 190.88 64.14 C188.94 66.05, 190.68 65.02, 180.5 65.14 C170.31 65.26, 150.03 65.07, 129.76 64.89 C109.49 64.71, 78.27 64.18, 58.87 64.06 C39.47 63.93, 22.91 64.29, 13.35 64.14 C3.79 63.99, 3.7 65.14, 1.5 63.14 C-0.69 61.15, 0.44 58.26, 0.18 52.17 C-0.09 46.08, -0.06 35.3, -0.09 26.6 C-0.12 17.91, -0.01 4.43, 0 0 M0 0 C0.04 -4.32, 0.17 -17.32, 0.22 -25.9 C0.27 -34.48, -0.13 -45.48, 0.31 -51.48 C0.74 -57.48, 0.53 -59.9, 2.83 -61.9 C5.13 -63.9, 4.53 -63.27, 14.1 -63.48 C23.67 -63.68, 42.13 -63.16, 60.24 -63.14 C78.35 -63.13, 102.76 -63.39, 122.73 -63.39 C142.7 -63.39, 168.78 -63.51, 180.06 -63.14 C191.33 -62.78, 188.33 -63.18, 190.4 -61.19 C192.47 -59.2, 192.2 -57.4, 192.47 -51.21 C192.75 -45.03, 192.12 -33.02, 192.03 -24.07 C191.94 -15.11, 192 -6, 191.92 2.51 C191.85 11.03, 191.55 18.5, 191.59 27.02 C191.63 35.55, 192.28 47.48, 192.17 53.67 C192.05 59.85, 192.83 62.23, 190.88 64.14 C188.94 66.05, 190.68 65.02, 180.5 65.14 C170.31 65.26, 150.03 65.07, 129.76 64.89 C109.49 64.71, 78.27 64.18, 58.87 64.06 C39.47 63.93, 22.91 64.29, 13.35 64.14 C3.79 63.99, 3.7 65.14, 1.5 63.14 C-0.69 61.15, 0.44 58.26, 0.18 52.17 C-0.09 46.08, -0.06 35.3, -0.09 26.6 C-0.12 17.91, -0.01 4.43, 0 0" stroke="#000000" stroke-width="1" fill="none"></path></g></g><g stroke-linecap="round"><g transform="translate(169.51924432525448 171.79729431323358) rotate(0 0.9681935927719678 4.3880135949139)" fill-rule="evenodd"><path d="M0 0 L63.42 0.24 L65.49 0.56 L67.16 4.9 L65.59 8.48 L-61.95 8.85 L-63.77 8.46 L-65.23 5.37 L-63.5 0.61 L-61.35 0.26 L0 0" stroke="none" stroke-width="0" fill="#ffffff" fill-rule="evenodd"></path><path d="M0 0 C9.61 0, 46.63 -0.31, 57.65 0 C68.67 0.31, 64.71 0.56, 66.12 1.86 C67.53 3.16, 67.5 6.68, 66.12 7.78 C64.74 8.88, 68.85 8.32, 57.83 8.46 C46.81 8.6, 18.56 8.63, 0 8.63 C-18.56 8.63, -42.88 8.49, -53.51 8.46 C-64.13 8.43, -61.97 9.53, -63.77 8.46 C-65.58 7.39, -65.67 3.44, -64.32 2.03 C-62.96 0.62, -66.39 0.34, -55.67 0 C-44.95 -0.34, -9.28 0, 0 0 M0 0 C9.61 0, 46.63 -0.31, 57.65 0 C68.67 0.31, 64.71 0.56, 66.12 1.86 C67.53 3.16, 67.5 6.68, 66.12 7.78 C64.74 8.88, 68.85 8.32, 57.83 8.46 C46.81 8.6, 18.56 8.63, 0 8.63 C-18.56 8.63, -42.88 8.49, -53.51 8.46 C-64.13 8.43, -61.97 9.53, -63.77 8.46 C-65.58 7.39, -65.67 3.44, -64.32 2.03 C-62.96 0.62, -66.39 0.34, -55.67 0 C-44.95 -0.34, -9.28 0, 0 0" stroke="#000000" stroke-width="1" fill="none"></path></g></g><g stroke-linecap="round"><g transform="translate(132.77121062397782 139.23395676236032) rotate(0 90.6534480990058 0.16487588002655684)"><path d="M0 0 C30.22 0.05, 151.09 0.27, 181.31 0.33 M0 0 C30.22 0.05, 151.09 0.27, 181.31 0.33" stroke="#000000" stroke-width="1" fill="none"></path></g></g><g stroke-linecap="round" transform="translate(137.65056165638453 125.41781234754308) rotate(0 3.5508577306727602 3.4987719219643623)"><path d="M7.1 3.5 C7.1 3.7, 7.08 3.91, 7.05 4.11 C7.01 4.31, 6.96 4.51, 6.89 4.7 C6.82 4.89, 6.73 5.07, 6.63 5.25 C6.52 5.42, 6.4 5.59, 6.27 5.75 C6.14 5.9, 5.99 6.05, 5.83 6.18 C5.68 6.31, 5.5 6.43, 5.33 6.53 C5.15 6.63, 4.96 6.72, 4.77 6.79 C4.57 6.86, 4.37 6.91, 4.17 6.94 C3.97 6.98, 3.76 7, 3.55 7 C3.35 7, 3.14 6.98, 2.93 6.94 C2.73 6.91, 2.53 6.86, 2.34 6.79 C2.14 6.72, 1.95 6.63, 1.78 6.53 C1.6 6.43, 1.43 6.31, 1.27 6.18 C1.11 6.05, 0.96 5.9, 0.83 5.75 C0.7 5.59, 0.58 5.42, 0.48 5.25 C0.37 5.07, 0.28 4.89, 0.21 4.7 C0.14 4.51, 0.09 4.31, 0.05 4.11 C0.02 3.91, 0 3.7, 0 3.5 C0 3.3, 0.02 3.09, 0.05 2.89 C0.09 2.69, 0.14 2.49, 0.21 2.3 C0.28 2.11, 0.37 1.92, 0.48 1.75 C0.58 1.57, 0.7 1.4, 0.83 1.25 C0.96 1.09, 1.11 0.95, 1.27 0.82 C1.43 0.69, 1.6 0.57, 1.78 0.47 C1.95 0.37, 2.14 0.28, 2.34 0.21 C2.53 0.14, 2.73 0.09, 2.93 0.05 C3.14 0.02, 3.35 0, 3.55 0 C3.76 0, 3.97 0.02, 4.17 0.05 C4.37 0.09, 4.57 0.14, 4.77 0.21 C4.96 0.28, 5.15 0.37, 5.33 0.47 C5.5 0.57, 5.68 0.69, 5.83 0.82 C5.99 0.95, 6.14 1.09, 6.27 1.25 C6.4 1.4, 6.52 1.57, 6.63 1.75 C6.73 1.92, 6.82 2.11, 6.89 2.3 C6.96 2.49, 7.01 2.69, 7.05 2.89 C7.08 3.09, 7.09 3.4, 7.1 3.5 C7.11 3.6, 7.11 3.4, 7.1 3.5" stroke="none" stroke-width="0" fill="#ffffff"></path><path d="M7.1 3.5 C7.1 3.7, 7.08 3.91, 7.05 4.11 C7.01 4.31, 6.96 4.51, 6.89 4.7 C6.82 4.89, 6.73 5.07, 6.63 5.25 C6.52 5.42, 6.4 5.59, 6.27 5.75 C6.14 5.9, 5.99 6.05, 5.83 6.18 C5.68 6.31, 5.5 6.43, 5.33 6.53 C5.15 6.63, 4.96 6.72, 4.77 6.79 C4.57 6.86, 4.37 6.91, 4.17 6.94 C3.97 6.98, 3.76 7, 3.55 7 C3.35 7, 3.14 6.98, 2.93 6.94 C2.73 6.91, 2.53 6.86, 2.34 6.79 C2.14 6.72, 1.95 6.63, 1.78 6.53 C1.6 6.43, 1.43 6.31, 1.27 6.18 C1.11 6.05, 0.96 5.9, 0.83 5.75 C0.7 5.59, 0.58 5.42, 0.48 5.25 C0.37 5.07, 0.28 4.89, 0.21 4.7 C0.14 4.51, 0.09 4.31, 0.05 4.11 C0.02 3.91, 0 3.7, 0 3.5 C0 3.3, 0.02 3.09, 0.05 2.89 C0.09 2.69, 0.14 2.49, 0.21 2.3 C0.28 2.11, 0.37 1.92, 0.48 1.75 C0.58 1.57, 0.7 1.4, 0.83 1.25 C0.96 1.09, 1.11 0.95, 1.27 0.82 C1.43 0.69, 1.6 0.57, 1.78 0.47 C1.95 0.37, 2.14 0.28, 2.34 0.21 C2.53 0.14, 2.73 0.09, 2.93 0.05 C3.14 0.02, 3.35 0, 3.55 0 C3.76 0, 3.97 0.02, 4.17 0.05 C4.37 0.09, 4.57 0.14, 4.77 0.21 C4.96 0.28, 5.15 0.37, 5.33 0.47 C5.5 0.57, 5.68 0.69, 5.83 0.82 C5.99 0.95, 6.14 1.09, 6.27 1.25 C6.4 1.4, 6.52 1.57, 6.63 1.75 C6.73 1.92, 6.82 2.11, 6.89 2.3 C6.96 2.49, 7.01 2.69, 7.05 2.89 C7.08 3.09, 7.09 3.4, 7.1 3.5 C7.11 3.6, 7.11 3.4, 7.1 3.5" stroke="#000000" stroke-width="1" fill="none"></path></g><g stroke-linecap="round" transform="translate(147.876605391255 125.41781234754308) rotate(0 3.5508577306727602 3.4987719219643623)"><path d="M7.1 3.5 C7.1 3.7, 7.08 3.91, 7.05 4.11 C7.01 4.31, 6.96 4.51, 6.89 4.7 C6.82 4.89, 6.73 5.07, 6.63 5.25 C6.52 5.42, 6.4 5.59, 6.27 5.75 C6.14 5.9, 5.99 6.05, 5.83 6.18 C5.68 6.31, 5.5 6.43, 5.33 6.53 C5.15 6.63, 4.96 6.72, 4.77 6.79 C4.57 6.86, 4.37 6.91, 4.17 6.94 C3.97 6.98, 3.76 7, 3.55 7 C3.35 7, 3.14 6.98, 2.93 6.94 C2.73 6.91, 2.53 6.86, 2.34 6.79 C2.14 6.72, 1.95 6.63, 1.78 6.53 C1.6 6.43, 1.43 6.31, 1.27 6.18 C1.11 6.05, 0.96 5.9, 0.83 5.75 C0.7 5.59, 0.58 5.42, 0.48 5.25 C0.37 5.07, 0.28 4.89, 0.21 4.7 C0.14 4.51, 0.09 4.31, 0.05 4.11 C0.02 3.91, 0 3.7, 0 3.5 C0 3.3, 0.02 3.09, 0.05 2.89 C0.09 2.69, 0.14 2.49, 0.21 2.3 C0.28 2.11, 0.37 1.92, 0.48 1.75 C0.58 1.57, 0.7 1.4, 0.83 1.25 C0.96 1.09, 1.11 0.95, 1.27 0.82 C1.43 0.69, 1.6 0.57, 1.78 0.47 C1.95 0.37, 2.14 0.28, 2.34 0.21 C2.53 0.14, 2.73 0.09, 2.93 0.05 C3.14 0.02, 3.35 0, 3.55 0 C3.76 0, 3.97 0.02, 4.17 0.05 C4.37 0.09, 4.57 0.14, 4.77 0.21 C4.96 0.28, 5.15 0.37, 5.33 0.47 C5.5 0.57, 5.68 0.69, 5.83 0.82 C5.99 0.95, 6.14 1.09, 6.27 1.25 C6.4 1.4, 6.52 1.57, 6.63 1.75 C6.73 1.92, 6.82 2.11, 6.89 2.3 C6.96 2.49, 7.01 2.69, 7.05 2.89 C7.08 3.09, 7.09 3.4, 7.1 3.5 C7.11 3.6, 7.11 3.4, 7.1 3.5" stroke="none" stroke-width="0" fill="#ffffff"></path><path d="M7.1 3.5 C7.1 3.7, 7.08 3.91, 7.05 4.11 C7.01 4.31, 6.96 4.51, 6.89 4.7 C6.82 4.89, 6.73 5.07, 6.63 5.25 C6.52 5.42, 6.4 5.59, 6.27 5.75 C6.14 5.9, 5.99 6.05, 5.83 6.18 C5.68 6.31, 5.5 6.43, 5.33 6.53 C5.15 6.63, 4.96 6.72, 4.77 6.79 C4.57 6.86, 4.37 6.91, 4.17 6.94 C3.97 6.98, 3.76 7, 3.55 7 C3.35 7, 3.14 6.98, 2.93 6.94 C2.73 6.91, 2.53 6.86, 2.34 6.79 C2.14 6.72, 1.95 6.63, 1.78 6.53 C1.6 6.43, 1.43 6.31, 1.27 6.18 C1.11 6.05, 0.96 5.9, 0.83 5.75 C0.7 5.59, 0.58 5.42, 0.48 5.25 C0.37 5.07, 0.28 4.89, 0.21 4.7 C0.14 4.51, 0.09 4.31, 0.05 4.11 C0.02 3.91, 0 3.7, 0 3.5 C0 3.3, 0.02 3.09, 0.05 2.89 C0.09 2.69, 0.14 2.49, 0.21 2.3 C0.28 2.11, 0.37 1.92, 0.48 1.75 C0.58 1.57, 0.7 1.4, 0.83 1.25 C0.96 1.09, 1.11 0.95, 1.27 0.82 C1.43 0.69, 1.6 0.57, 1.78 0.47 C1.95 0.37, 2.14 0.28, 2.34 0.21 C2.53 0.14, 2.73 0.09, 2.93 0.05 C3.14 0.02, 3.35 0, 3.55 0 C3.76 0, 3.97 0.02, 4.17 0.05 C4.37 0.09, 4.57 0.14, 4.77 0.21 C4.96 0.28, 5.15 0.37, 5.33 0.47 C5.5 0.57, 5.68 0.69, 5.83 0.82 C5.99 0.95, 6.14 1.09, 6.27 1.25 C6.4 1.4, 6.52 1.57, 6.63 1.75 C6.73 1.92, 6.82 2.11, 6.89 2.3 C6.96 2.49, 7.01 2.69, 7.05 2.89 C7.08 3.09, 7.09 3.4, 7.1 3.5 C7.11 3.6, 7.11 3.4, 7.1 3.5" stroke="#000000" stroke-width="1" fill="none"></path></g><g stroke-linecap="round" transform="translate(157.7524028219159 125.41781234754308) rotate(0 3.5508577306727602 3.4987719219643623)"><path d="M7.1 3.5 C7.1 3.7, 7.08 3.91, 7.05 4.11 C7.01 4.31, 6.96 4.51, 6.89 4.7 C6.82 4.89, 6.73 5.07, 6.63 5.25 C6.52 5.42, 6.4 5.59, 6.27 5.75 C6.14 5.9, 5.99 6.05, 5.83 6.18 C5.68 6.31, 5.5 6.43, 5.33 6.53 C5.15 6.63, 4.96 6.72, 4.77 6.79 C4.57 6.86, 4.37 6.91, 4.17 6.94 C3.97 6.98, 3.76 7, 3.55 7 C3.35 7, 3.14 6.98, 2.93 6.94 C2.73 6.91, 2.53 6.86, 2.34 6.79 C2.14 6.72, 1.95 6.63, 1.78 6.53 C1.6 6.43, 1.43 6.31, 1.27 6.18 C1.11 6.05, 0.96 5.9, 0.83 5.75 C0.7 5.59, 0.58 5.42, 0.48 5.25 C0.37 5.07, 0.28 4.89, 0.21 4.7 C0.14 4.51, 0.09 4.31, 0.05 4.11 C0.02 3.91, 0 3.7, 0 3.5 C0 3.3, 0.02 3.09, 0.05 2.89 C0.09 2.69, 0.14 2.49, 0.21 2.3 C0.28 2.11, 0.37 1.92, 0.48 1.75 C0.58 1.57, 0.7 1.4, 0.83 1.25 C0.96 1.09, 1.11 0.95, 1.27 0.82 C1.43 0.69, 1.6 0.57, 1.78 0.47 C1.95 0.37, 2.14 0.28, 2.34 0.21 C2.53 0.14, 2.73 0.09, 2.93 0.05 C3.14 0.02, 3.35 0, 3.55 0 C3.76 0, 3.97 0.02, 4.17 0.05 C4.37 0.09, 4.57 0.14, 4.77 0.21 C4.96 0.28, 5.15 0.37, 5.33 0.47 C5.5 0.57, 5.68 0.69, 5.83 0.82 C5.99 0.95, 6.14 1.09, 6.27 1.25 C6.4 1.4, 6.52 1.57, 6.63 1.75 C6.73 1.92, 6.82 2.11, 6.89 2.3 C6.96 2.49, 7.01 2.69, 7.05 2.89 C7.08 3.09, 7.09 3.4, 7.1 3.5 C7.11 3.6, 7.11 3.4, 7.1 3.5" stroke="none" stroke-width="0" fill="#ffffff"></path><path d="M7.1 3.5 C7.1 3.7, 7.08 3.91, 7.05 4.11 C7.01 4.31, 6.96 4.51, 6.89 4.7 C6.82 4.89, 6.73 5.07, 6.63 5.25 C6.52 5.42, 6.4 5.59, 6.27 5.75 C6.14 5.9, 5.99 6.05, 5.83 6.18 C5.68 6.31, 5.5 6.43, 5.33 6.53 C5.15 6.63, 4.96 6.72, 4.77 6.79 C4.57 6.86, 4.37 6.91, 4.17 6.94 C3.97 6.98, 3.76 7, 3.55 7 C3.35 7, 3.14 6.98, 2.93 6.94 C2.73 6.91, 2.53 6.86, 2.34 6.79 C2.14 6.72, 1.95 6.63, 1.78 6.53 C1.6 6.43, 1.43 6.31, 1.27 6.18 C1.11 6.05, 0.96 5.9, 0.83 5.75 C0.7 5.59, 0.58 5.42, 0.48 5.25 C0.37 5.07, 0.28 4.89, 0.21 4.7 C0.14 4.51, 0.09 4.31, 0.05 4.11 C0.02 3.91, 0 3.7, 0 3.5 C0 3.3, 0.02 3.09, 0.05 2.89 C0.09 2.69, 0.14 2.49, 0.21 2.3 C0.28 2.11, 0.37 1.92, 0.48 1.75 C0.58 1.57, 0.7 1.4, 0.83 1.25 C0.96 1.09, 1.11 0.95, 1.27 0.82 C1.43 0.69, 1.6 0.57, 1.78 0.47 C1.95 0.37, 2.14 0.28, 2.34 0.21 C2.53 0.14, 2.73 0.09, 2.93 0.05 C3.14 0.02, 3.35 0, 3.55 0 C3.76 0, 3.97 0.02, 4.17 0.05 C4.37 0.09, 4.57 0.14, 4.77 0.21 C4.96 0.28, 5.15 0.37, 5.33 0.47 C5.5 0.57, 5.68 0.69, 5.83 0.82 C5.99 0.95, 6.14 1.09, 6.27 1.25 C6.4 1.4, 6.52 1.57, 6.63 1.75 C6.73 1.92, 6.82 2.11, 6.89 2.3 C6.96 2.49, 7.01 2.69, 7.05 2.89 C7.08 3.09, 7.09 3.4, 7.1 3.5 C7.11 3.6, 7.11 3.4, 7.1 3.5" stroke="#000000" stroke-width="1" fill="none"></path></g><g stroke-linecap="round"><g transform="translate(125.97601950535136 181.00366953389312) rotate(0 96.22444746933161 0.8938526948468279)" fill-rule="evenodd"><path d="M0 0 L0.87 -58.19 L2.83 -61.9 L5.74 -63.36 L154.65 -63.41 L188.68 -62.78 L190.4 -61.19 L192.11 -57.78 L192.47 -51.21 L191.59 27.02 L192.21 60.51 L190.88 64.14 L188.78 65.31 L58.87 64.06 L4.66 64.33 L1.5 63.14 L0.12 59.19 L0 0" stroke="none" stroke-width="0" fill="#ffffff" fill-rule="evenodd"></path><path d="M0 0 C0.04 -4.32, 0.17 -17.32, 0.22 -25.9 C0.27 -34.48, -0.13 -45.48, 0.31 -51.48 C0.74 -57.48, 0.53 -59.9, 2.83 -61.9 C5.13 -63.9, 4.53 -63.27, 14.1 -63.48 C23.67 -63.68, 42.13 -63.16, 60.24 -63.14 C78.35 -63.13, 102.76 -63.39, 122.73 -63.39 C142.7 -63.39, 168.78 -63.51, 180.06 -63.14 C191.33 -62.78, 188.33 -63.18, 190.4 -61.19 C192.47 -59.2, 192.2 -57.4, 192.47 -51.21 C192.75 -45.03, 192.12 -33.02, 192.03 -24.07 C191.94 -15.11, 192 -6, 191.92 2.51 C191.85 11.03, 191.55 18.5, 191.59 27.02 C191.63 35.55, 192.28 47.48, 192.17 53.67 C192.05 59.85, 192.83 62.23, 190.88 64.14 C188.94 66.05, 190.68 65.02, 180.5 65.14 C170.31 65.26, 150.03 65.07, 129.76 64.89 C109.49 64.71, 78.27 64.18, 58.87 64.06 C39.47 63.93, 22.91 64.29, 13.35 64.14 C3.79 63.99, 3.7 65.14, 1.5 63.14 C-0.69 61.15, 0.44 58.26, 0.18 52.17 C-0.09 46.08, -0.06 35.3, -0.09 26.6 C-0.12 17.91, -0.01 4.43, 0 0 M0 0 C0.04 -4.32, 0.17 -17.32, 0.22 -25.9 C0.27 -34.48, -0.13 -45.48, 0.31 -51.48 C0.74 -57.48, 0.53 -59.9, 2.83 -61.9 C5.13 -63.9, 4.53 -63.27, 14.1 -63.48 C23.67 -63.68, 42.13 -63.16, 60.24 -63.14 C78.35 -63.13, 102.76 -63.39, 122.73 -63.39 C142.7 -63.39, 168.78 -63.51, 180.06 -63.14 C191.33 -62.78, 188.33 -63.18, 190.4 -61.19 C192.47 -59.2, 192.2 -57.4, 192.47 -51.21 C192.75 -45.03, 192.12 -33.02, 192.03 -24.07 C191.94 -15.11, 192 -6, 191.92 2.51 C191.85 11.03, 191.55 18.5, 191.59 27.02 C191.63 35.55, 192.28 47.48, 192.17 53.67 C192.05 59.85, 192.83 62.23, 190.88 64.14 C188.94 66.05, 190.68 65.02, 180.5 65.14 C170.31 65.26, 150.03 65.07, 129.76 64.89 C109.49 64.71, 78.27 64.18, 58.87 64.06 C39.47 63.93, 22.91 64.29, 13.35 64.14 C3.79 63.99, 3.7 65.14, 1.5 63.14 C-0.69 61.15, 0.44 58.26, 0.18 52.17 C-0.09 46.08, -0.06 35.3, -0.09 26.6 C-0.12 17.91, -0.01 4.43, 0 0" stroke="#000000" stroke-width="1" fill="none"></path></g></g><g stroke-linecap="round"><g transform="translate(240.8526030899029 124.29729431323358) rotate(0 0.9681935927719678 4.3880135949139)" fill-rule="evenodd"><path d="M0 0 L63.42 0.24 L65.49 0.56 L67.16 4.9 L65.59 8.48 L-61.95 8.85 L-63.77 8.46 L-65.23 5.37 L-63.5 0.61 L-61.35 0.26 L0 0" stroke="none" stroke-width="0" fill="#ffffff" fill-rule="evenodd"></path><path d="M0 0 C9.61 0, 46.63 -0.31, 57.65 0 C68.67 0.31, 64.71 0.56, 66.12 1.86 C67.53 3.16, 67.5 6.68, 66.12 7.78 C64.74 8.88, 68.85 8.32, 57.83 8.46 C46.81 8.6, 18.56 8.63, 0 8.63 C-18.56 8.63, -42.88 8.49, -53.51 8.46 C-64.13 8.43, -61.97 9.53, -63.77 8.46 C-65.58 7.39, -65.67 3.44, -64.32 2.03 C-62.96 0.62, -66.39 0.34, -55.67 0 C-44.95 -0.34, -9.28 0, 0 0 M0 0 C9.61 0, 46.63 -0.31, 57.65 0 C68.67 0.31, 64.71 0.56, 66.12 1.86 C67.53 3.16, 67.5 6.68, 66.12 7.78 C64.74 8.88, 68.85 8.32, 57.83 8.46 C46.81 8.6, 18.56 8.63, 0 8.63 C-18.56 8.63, -42.88 8.49, -53.51 8.46 C-64.13 8.43, -61.97 9.53, -63.77 8.46 C-65.58 7.39, -65.67 3.44, -64.32 2.03 C-62.96 0.62, -66.39 0.34, -55.67 0 C-44.95 -0.34, -9.28 0, 0 0" stroke="#000000" stroke-width="1" fill="none"></path></g></g><g transform="translate(818.3293901473753 361.9861483623645) rotate(0 47 10.5)"><text x="47" y="17" font-family="Helvetica, Segoe UI Emoji" font-size="18.608326211806087px" fill="#000000" text-anchor="middle" style="white-space: pre;" direction="ltr">RDF Store </text></g><g transform="translate(899.662581065344 126.81952238580197) rotate(0 127.27770124162907 16.916656494140625)"><text x="127.27770124162952" y="26.83331298828125" font-family="Helvetica, Segoe UI Emoji" font-size="29.980063091051107px" fill="#000000" text-anchor="middle" style="white-space: pre;" direction="ltr">SPARQL Endpoint </text></g><g transform="translate(493.87685152084305 109.31946135064572) rotate(0 98.5 14.5)"><text x="98.5" y="23" font-family="Helvetica, Segoe UI Emoji" font-size="25.25415700173717px" fill="#000000" text-anchor="middle" style="white-space: pre;" direction="ltr">SPARQL protocol</text></g><g transform="translate(545.7100729563899 148.98619413873166) rotate(0 33.5 14.5)"><text x="33.5" y="23" font-family="Helvetica, Segoe UI Emoji" font-size="25.25415700173717px" fill="#000000" text-anchor="middle" style="white-space: pre;" direction="ltr">HTTP</text></g><g stroke-linecap="round"><g transform="translate(822.8294550661012 259.20900040536435) rotate(0 37.90821417160987 41.290243759778605)" fill-rule="evenodd"><path d="M0 0 L-0.21 82.48 L1.1 84.87 L9.53 88.08 L17.53 89.46 L40.54 90.42 L62.53 88.88 L69.64 87.14 L75.74 83.85 L75.99 -1.12 L75.49 -0.3 L70.6 -3.94 L66.62 -5.12 L36.86 -7.83 L18.05 -6.77 L9.68 -5.11 L3.26 -3.18 L0.68 -1.39 L0 0" stroke="none" stroke-width="0" fill="#ced4da" fill-rule="evenodd"></path><path d="M0 0 C0.04 12.38, 0.25 60.47, 0.25 74.26 C0.25 88.04, -0.6 80.69, 0.01 82.71 C0.62 84.73, 1 85.24, 3.92 86.36 C6.84 87.49, 11.43 88.78, 17.53 89.46 C23.64 90.13, 33.04 90.51, 40.54 90.42 C48.04 90.32, 56.91 89.75, 62.53 88.88 C68.14 88.01, 71.98 86.34, 74.21 85.21 C76.43 84.08, 75.54 83.76, 75.85 82.11 C76.17 80.46, 76.08 87.95, 76.08 75.3 C76.09 62.66, 76 18.83, 75.9 6.23 C75.8 -6.37, 76.38 1.4, 75.49 -0.3 C74.61 -1.99, 73.14 -2.98, 70.6 -3.94 C68.07 -4.9, 65.94 -5.41, 60.31 -6.06 C54.69 -6.7, 43.9 -7.71, 36.86 -7.83 C29.81 -7.95, 23.65 -7.55, 18.05 -6.77 C12.45 -6, 6.27 -4.3, 3.26 -3.18 C0.24 -2.06, 0.5 -0.57, -0.04 -0.04 C-0.58 0.49, -0.01 -0.01, 0 0 M0 0 C0.04 12.38, 0.25 60.47, 0.25 74.26 C0.25 88.04, -0.6 80.69, 0.01 82.71 C0.62 84.73, 1 85.24, 3.92 86.36 C6.84 87.49, 11.43 88.78, 17.53 89.46 C23.64 90.13, 33.04 90.51, 40.54 90.42 C48.04 90.32, 56.91 89.75, 62.53 88.88 C68.14 88.01, 71.98 86.34, 74.21 85.21 C76.43 84.08, 75.54 83.76, 75.85 82.11 C76.17 80.46, 76.08 87.95, 76.08 75.3 C76.09 62.66, 76 18.83, 75.9 6.23 C75.8 -6.37, 76.38 1.4, 75.49 -0.3 C74.61 -1.99, 73.14 -2.98, 70.6 -3.94 C68.07 -4.9, 65.94 -5.41, 60.31 -6.06 C54.69 -6.7, 43.9 -7.71, 36.86 -7.83 C29.81 -7.95, 23.65 -7.55, 18.05 -6.77 C12.45 -6, 6.27 -4.3, 3.26 -3.18 C0.24 -2.06, 0.5 -0.57, -0.04 -0.04 C-0.58 0.49, -0.01 -0.01, 0 0" stroke="#000000" stroke-width="1" fill="none"></path></g></g><g stroke-linecap="round" transform="translate(822.2574332356453 250.33982318236667) rotate(0 37.818403832750846 7.648487655639656)"><path d="M75.64 7.65 C75.64 8.09, 75.44 8.54, 75.06 8.98 C74.68 9.41, 74.1 9.85, 73.36 10.26 C72.61 10.68, 71.66 11.09, 70.57 11.47 C69.48 11.86, 68.2 12.23, 66.79 12.56 C65.38 12.9, 63.8 13.22, 62.13 13.51 C60.45 13.79, 58.62 14.05, 56.73 14.27 C54.83 14.49, 52.81 14.68, 50.75 14.84 C48.7 14.99, 46.54 15.1, 44.39 15.18 C42.23 15.26, 40.01 15.3, 37.82 15.3 C35.63 15.3, 33.41 15.26, 31.25 15.18 C29.1 15.1, 26.94 14.99, 24.88 14.84 C22.83 14.68, 20.8 14.49, 18.91 14.27 C17.01 14.05, 15.19 13.79, 13.51 13.51 C11.83 13.22, 10.25 12.9, 8.85 12.56 C7.44 12.23, 6.16 11.86, 5.07 11.47 C3.97 11.09, 3.03 10.68, 2.28 10.26 C1.53 9.85, 0.95 9.41, 0.57 8.98 C0.19 8.54, 0 8.09, 0 7.65 C0 7.21, 0.19 6.76, 0.57 6.32 C0.95 5.88, 1.53 5.45, 2.28 5.03 C3.03 4.62, 3.97 4.21, 5.07 3.82 C6.16 3.44, 7.44 3.07, 8.85 2.73 C10.25 2.39, 11.83 2.07, 13.51 1.79 C15.19 1.5, 17.01 1.25, 18.91 1.02 C20.8 0.8, 22.83 0.61, 24.88 0.46 C26.94 0.31, 29.1 0.19, 31.25 0.12 C33.41 0.04, 35.63 0, 37.82 0 C40.01 0, 42.23 0.04, 44.39 0.12 C46.54 0.19, 48.7 0.31, 50.75 0.46 C52.81 0.61, 54.83 0.8, 56.73 1.02 C58.62 1.25, 60.45 1.5, 62.13 1.79 C63.8 2.07, 65.38 2.39, 66.79 2.73 C68.2 3.07, 69.48 3.44, 70.57 3.82 C71.66 4.21, 72.61 4.62, 73.36 5.03 C74.1 5.45, 74.68 5.88, 75.06 6.32 C75.44 6.76, 75.54 7.43, 75.64 7.65 C75.73 7.87, 75.73 7.43, 75.64 7.65" stroke="none" stroke-width="0" fill="#fff"></path><path d="M75.64 7.65 C75.64 8.09, 75.44 8.54, 75.06 8.98 C74.68 9.41, 74.1 9.85, 73.36 10.26 C72.61 10.68, 71.66 11.09, 70.57 11.47 C69.48 11.86, 68.2 12.23, 66.79 12.56 C65.38 12.9, 63.8 13.22, 62.13 13.51 C60.45 13.79, 58.62 14.05, 56.73 14.27 C54.83 14.49, 52.81 14.68, 50.75 14.84 C48.7 14.99, 46.54 15.1, 44.39 15.18 C42.23 15.26, 40.01 15.3, 37.82 15.3 C35.63 15.3, 33.41 15.26, 31.25 15.18 C29.1 15.1, 26.94 14.99, 24.88 14.84 C22.83 14.68, 20.8 14.49, 18.91 14.27 C17.01 14.05, 15.19 13.79, 13.51 13.51 C11.83 13.22, 10.25 12.9, 8.85 12.56 C7.44 12.23, 6.16 11.86, 5.07 11.47 C3.97 11.09, 3.03 10.68, 2.28 10.26 C1.53 9.85, 0.95 9.41, 0.57 8.98 C0.19 8.54, 0 8.09, 0 7.65 C0 7.21, 0.19 6.76, 0.57 6.32 C0.95 5.88, 1.53 5.45, 2.28 5.03 C3.03 4.62, 3.97 4.21, 5.07 3.82 C6.16 3.44, 7.44 3.07, 8.85 2.73 C10.25 2.39, 11.83 2.07, 13.51 1.79 C15.19 1.5, 17.01 1.25, 18.91 1.02 C20.8 0.8, 22.83 0.61, 24.88 0.46 C26.94 0.31, 29.1 0.19, 31.25 0.12 C33.41 0.04, 35.63 0, 37.82 0 C40.01 0, 42.23 0.04, 44.39 0.12 C46.54 0.19, 48.7 0.31, 50.75 0.46 C52.81 0.61, 54.83 0.8, 56.73 1.02 C58.62 1.25, 60.45 1.5, 62.13 1.79 C63.8 2.07, 65.38 2.39, 66.79 2.73 C68.2 3.07, 69.48 3.44, 70.57 3.82 C71.66 4.21, 72.61 4.62, 73.36 5.03 C74.1 5.45, 74.68 5.88, 75.06 6.32 C75.44 6.76, 75.54 7.43, 75.64 7.65 C75.73 7.87, 75.73 7.43, 75.64 7.65" stroke="#000000" stroke-width="1" fill="none"></path></g><g stroke-linecap="round" transform="translate(856.5048204299728 273.55375499194633) rotate(0 4.803511280661041 4.803511280661041)"><path d="M9.61 4.8 C9.61 5.08, 9.58 5.36, 9.53 5.64 C9.49 5.91, 9.41 6.19, 9.32 6.45 C9.22 6.71, 9.1 6.96, 8.96 7.21 C8.82 7.45, 8.66 7.68, 8.48 7.89 C8.3 8.1, 8.1 8.3, 7.89 8.48 C7.68 8.66, 7.45 8.82, 7.21 8.96 C6.96 9.1, 6.71 9.22, 6.45 9.32 C6.19 9.41, 5.91 9.49, 5.64 9.53 C5.36 9.58, 5.08 9.61, 4.8 9.61 C4.53 9.61, 4.24 9.58, 3.97 9.53 C3.7 9.49, 3.42 9.41, 3.16 9.32 C2.9 9.22, 2.64 9.1, 2.4 8.96 C2.16 8.82, 1.93 8.66, 1.72 8.48 C1.5 8.3, 1.3 8.1, 1.12 7.89 C0.95 7.68, 0.78 7.45, 0.64 7.21 C0.5 6.96, 0.38 6.71, 0.29 6.45 C0.19 6.19, 0.12 5.91, 0.07 5.64 C0.02 5.36, 0 5.08, 0 4.8 C0 4.53, 0.02 4.24, 0.07 3.97 C0.12 3.7, 0.19 3.42, 0.29 3.16 C0.38 2.9, 0.5 2.64, 0.64 2.4 C0.78 2.16, 0.95 1.93, 1.12 1.72 C1.3 1.5, 1.5 1.3, 1.72 1.12 C1.93 0.95, 2.16 0.78, 2.4 0.64 C2.64 0.5, 2.9 0.38, 3.16 0.29 C3.42 0.19, 3.7 0.12, 3.97 0.07 C4.24 0.02, 4.53 0, 4.8 0 C5.08 0, 5.36 0.02, 5.64 0.07 C5.91 0.12, 6.19 0.19, 6.45 0.29 C6.71 0.38, 6.96 0.5, 7.21 0.64 C7.45 0.78, 7.68 0.95, 7.89 1.12 C8.1 1.3, 8.3 1.5, 8.48 1.72 C8.66 1.93, 8.82 2.16, 8.96 2.4 C9.1 2.64, 9.22 2.9, 9.32 3.16 C9.41 3.42, 9.49 3.7, 9.53 3.97 C9.58 4.24, 9.59 4.66, 9.61 4.8 C9.62 4.94, 9.62 4.66, 9.61 4.8" stroke="none" stroke-width="0" fill="#868e96"></path><path d="M9.61 4.8 C9.61 5.08, 9.58 5.36, 9.53 5.64 C9.49 5.91, 9.41 6.19, 9.32 6.45 C9.22 6.71, 9.1 6.96, 8.96 7.21 C8.82 7.45, 8.66 7.68, 8.48 7.89 C8.3 8.1, 8.1 8.3, 7.89 8.48 C7.68 8.66, 7.45 8.82, 7.21 8.96 C6.96 9.1, 6.71 9.22, 6.45 9.32 C6.19 9.41, 5.91 9.49, 5.64 9.53 C5.36 9.58, 5.08 9.61, 4.8 9.61 C4.53 9.61, 4.24 9.58, 3.97 9.53 C3.7 9.49, 3.42 9.41, 3.16 9.32 C2.9 9.22, 2.64 9.1, 2.4 8.96 C2.16 8.82, 1.93 8.66, 1.72 8.48 C1.5 8.3, 1.3 8.1, 1.12 7.89 C0.95 7.68, 0.78 7.45, 0.64 7.21 C0.5 6.96, 0.38 6.71, 0.29 6.45 C0.19 6.19, 0.12 5.91, 0.07 5.64 C0.02 5.36, 0 5.08, 0 4.8 C0 4.53, 0.02 4.24, 0.07 3.97 C0.12 3.7, 0.19 3.42, 0.29 3.16 C0.38 2.9, 0.5 2.64, 0.64 2.4 C0.78 2.16, 0.95 1.93, 1.12 1.72 C1.3 1.5, 1.5 1.3, 1.72 1.12 C1.93 0.95, 2.16 0.78, 2.4 0.64 C2.64 0.5, 2.9 0.38, 3.16 0.29 C3.42 0.19, 3.7 0.12, 3.97 0.07 C4.24 0.02, 4.53 0, 4.8 0 C5.08 0, 5.36 0.02, 5.64 0.07 C5.91 0.12, 6.19 0.19, 6.45 0.29 C6.71 0.38, 6.96 0.5, 7.21 0.64 C7.45 0.78, 7.68 0.95, 7.89 1.12 C8.1 1.3, 8.3 1.5, 8.48 1.72 C8.66 1.93, 8.82 2.16, 8.96 2.4 C9.1 2.64, 9.22 2.9, 9.32 3.16 C9.41 3.42, 9.49 3.7, 9.53 3.97 C9.58 4.24, 9.59 4.66, 9.61 4.8 C9.62 4.94, 9.62 4.66, 9.61 4.8" stroke="#000000" stroke-width="1" fill="none"></path></g><g stroke-linecap="round" transform="translate(831.8607190770199 291.9324068483875) rotate(0 4.803511280661041 4.803511280661041)"><path d="M9.61 4.8 C9.61 5.08, 9.58 5.36, 9.53 5.64 C9.49 5.91, 9.41 6.19, 9.32 6.45 C9.22 6.71, 9.1 6.96, 8.96 7.21 C8.82 7.45, 8.66 7.68, 8.48 7.89 C8.3 8.1, 8.1 8.3, 7.89 8.48 C7.68 8.66, 7.45 8.82, 7.21 8.96 C6.96 9.1, 6.71 9.22, 6.45 9.32 C6.19 9.41, 5.91 9.49, 5.64 9.53 C5.36 9.58, 5.08 9.61, 4.8 9.61 C4.53 9.61, 4.24 9.58, 3.97 9.53 C3.7 9.49, 3.42 9.41, 3.16 9.32 C2.9 9.22, 2.64 9.1, 2.4 8.96 C2.16 8.82, 1.93 8.66, 1.72 8.48 C1.5 8.3, 1.3 8.1, 1.12 7.89 C0.95 7.68, 0.78 7.45, 0.64 7.21 C0.5 6.96, 0.38 6.71, 0.29 6.45 C0.19 6.19, 0.12 5.91, 0.07 5.64 C0.02 5.36, 0 5.08, 0 4.8 C0 4.53, 0.02 4.24, 0.07 3.97 C0.12 3.7, 0.19 3.42, 0.29 3.16 C0.38 2.9, 0.5 2.64, 0.64 2.4 C0.78 2.16, 0.95 1.93, 1.12 1.72 C1.3 1.5, 1.5 1.3, 1.72 1.12 C1.93 0.95, 2.16 0.78, 2.4 0.64 C2.64 0.5, 2.9 0.38, 3.16 0.29 C3.42 0.19, 3.7 0.12, 3.97 0.07 C4.24 0.02, 4.53 0, 4.8 0 C5.08 0, 5.36 0.02, 5.64 0.07 C5.91 0.12, 6.19 0.19, 6.45 0.29 C6.71 0.38, 6.96 0.5, 7.21 0.64 C7.45 0.78, 7.68 0.95, 7.89 1.12 C8.1 1.3, 8.3 1.5, 8.48 1.72 C8.66 1.93, 8.82 2.16, 8.96 2.4 C9.1 2.64, 9.22 2.9, 9.32 3.16 C9.41 3.42, 9.49 3.7, 9.53 3.97 C9.58 4.24, 9.59 4.66, 9.61 4.8 C9.62 4.94, 9.62 4.66, 9.61 4.8" stroke="none" stroke-width="0" fill="#868e96"></path><path d="M9.61 4.8 C9.61 5.08, 9.58 5.36, 9.53 5.64 C9.49 5.91, 9.41 6.19, 9.32 6.45 C9.22 6.71, 9.1 6.96, 8.96 7.21 C8.82 7.45, 8.66 7.68, 8.48 7.89 C8.3 8.1, 8.1 8.3, 7.89 8.48 C7.68 8.66, 7.45 8.82, 7.21 8.96 C6.96 9.1, 6.71 9.22, 6.45 9.32 C6.19 9.41, 5.91 9.49, 5.64 9.53 C5.36 9.58, 5.08 9.61, 4.8 9.61 C4.53 9.61, 4.24 9.58, 3.97 9.53 C3.7 9.49, 3.42 9.41, 3.16 9.32 C2.9 9.22, 2.64 9.1, 2.4 8.96 C2.16 8.82, 1.93 8.66, 1.72 8.48 C1.5 8.3, 1.3 8.1, 1.12 7.89 C0.95 7.68, 0.78 7.45, 0.64 7.21 C0.5 6.96, 0.38 6.71, 0.29 6.45 C0.19 6.19, 0.12 5.91, 0.07 5.64 C0.02 5.36, 0 5.08, 0 4.8 C0 4.53, 0.02 4.24, 0.07 3.97 C0.12 3.7, 0.19 3.42, 0.29 3.16 C0.38 2.9, 0.5 2.64, 0.64 2.4 C0.78 2.16, 0.95 1.93, 1.12 1.72 C1.3 1.5, 1.5 1.3, 1.72 1.12 C1.93 0.95, 2.16 0.78, 2.4 0.64 C2.64 0.5, 2.9 0.38, 3.16 0.29 C3.42 0.19, 3.7 0.12, 3.97 0.07 C4.24 0.02, 4.53 0, 4.8 0 C5.08 0, 5.36 0.02, 5.64 0.07 C5.91 0.12, 6.19 0.19, 6.45 0.29 C6.71 0.38, 6.96 0.5, 7.21 0.64 C7.45 0.78, 7.68 0.95, 7.89 1.12 C8.1 1.3, 8.3 1.5, 8.48 1.72 C8.66 1.93, 8.82 2.16, 8.96 2.4 C9.1 2.64, 9.22 2.9, 9.32 3.16 C9.41 3.42, 9.49 3.7, 9.53 3.97 C9.58 4.24, 9.59 4.66, 9.61 4.8 C9.62 4.94, 9.62 4.66, 9.61 4.8" stroke="#000000" stroke-width="1" fill="none"></path></g><g stroke-linecap="round" transform="translate(880.7312251498297 291.5147102152878) rotate(0 4.803511280661041 4.803511280661041)"><path d="M9.61 4.8 C9.61 5.08, 9.58 5.36, 9.53 5.64 C9.49 5.91, 9.41 6.19, 9.32 6.45 C9.22 6.71, 9.1 6.96, 8.96 7.21 C8.82 7.45, 8.66 7.68, 8.48 7.89 C8.3 8.1, 8.1 8.3, 7.89 8.48 C7.68 8.66, 7.45 8.82, 7.21 8.96 C6.96 9.1, 6.71 9.22, 6.45 9.32 C6.19 9.41, 5.91 9.49, 5.64 9.53 C5.36 9.58, 5.08 9.61, 4.8 9.61 C4.53 9.61, 4.24 9.58, 3.97 9.53 C3.7 9.49, 3.42 9.41, 3.16 9.32 C2.9 9.22, 2.64 9.1, 2.4 8.96 C2.16 8.82, 1.93 8.66, 1.72 8.48 C1.5 8.3, 1.3 8.1, 1.12 7.89 C0.95 7.68, 0.78 7.45, 0.64 7.21 C0.5 6.96, 0.38 6.71, 0.29 6.45 C0.19 6.19, 0.12 5.91, 0.07 5.64 C0.02 5.36, 0 5.08, 0 4.8 C0 4.53, 0.02 4.24, 0.07 3.97 C0.12 3.7, 0.19 3.42, 0.29 3.16 C0.38 2.9, 0.5 2.64, 0.64 2.4 C0.78 2.16, 0.95 1.93, 1.12 1.72 C1.3 1.5, 1.5 1.3, 1.72 1.12 C1.93 0.95, 2.16 0.78, 2.4 0.64 C2.64 0.5, 2.9 0.38, 3.16 0.29 C3.42 0.19, 3.7 0.12, 3.97 0.07 C4.24 0.02, 4.53 0, 4.8 0 C5.08 0, 5.36 0.02, 5.64 0.07 C5.91 0.12, 6.19 0.19, 6.45 0.29 C6.71 0.38, 6.96 0.5, 7.21 0.64 C7.45 0.78, 7.68 0.95, 7.89 1.12 C8.1 1.3, 8.3 1.5, 8.48 1.72 C8.66 1.93, 8.82 2.16, 8.96 2.4 C9.1 2.64, 9.22 2.9, 9.32 3.16 C9.41 3.42, 9.49 3.7, 9.53 3.97 C9.58 4.24, 9.59 4.66, 9.61 4.8 C9.62 4.94, 9.62 4.66, 9.61 4.8" stroke="none" stroke-width="0" fill="#868e96"></path><path d="M9.61 4.8 C9.61 5.08, 9.58 5.36, 9.53 5.64 C9.49 5.91, 9.41 6.19, 9.32 6.45 C9.22 6.71, 9.1 6.96, 8.96 7.21 C8.82 7.45, 8.66 7.68, 8.48 7.89 C8.3 8.1, 8.1 8.3, 7.89 8.48 C7.68 8.66, 7.45 8.82, 7.21 8.96 C6.96 9.1, 6.71 9.22, 6.45 9.32 C6.19 9.41, 5.91 9.49, 5.64 9.53 C5.36 9.58, 5.08 9.61, 4.8 9.61 C4.53 9.61, 4.24 9.58, 3.97 9.53 C3.7 9.49, 3.42 9.41, 3.16 9.32 C2.9 9.22, 2.64 9.1, 2.4 8.96 C2.16 8.82, 1.93 8.66, 1.72 8.48 C1.5 8.3, 1.3 8.1, 1.12 7.89 C0.95 7.68, 0.78 7.45, 0.64 7.21 C0.5 6.96, 0.38 6.71, 0.29 6.45 C0.19 6.19, 0.12 5.91, 0.07 5.64 C0.02 5.36, 0 5.08, 0 4.8 C0 4.53, 0.02 4.24, 0.07 3.97 C0.12 3.7, 0.19 3.42, 0.29 3.16 C0.38 2.9, 0.5 2.64, 0.64 2.4 C0.78 2.16, 0.95 1.93, 1.12 1.72 C1.3 1.5, 1.5 1.3, 1.72 1.12 C1.93 0.95, 2.16 0.78, 2.4 0.64 C2.64 0.5, 2.9 0.38, 3.16 0.29 C3.42 0.19, 3.7 0.12, 3.97 0.07 C4.24 0.02, 4.53 0, 4.8 0 C5.08 0, 5.36 0.02, 5.64 0.07 C5.91 0.12, 6.19 0.19, 6.45 0.29 C6.71 0.38, 6.96 0.5, 7.21 0.64 C7.45 0.78, 7.68 0.95, 7.89 1.12 C8.1 1.3, 8.3 1.5, 8.48 1.72 C8.66 1.93, 8.82 2.16, 8.96 2.4 C9.1 2.64, 9.22 2.9, 9.32 3.16 C9.41 3.42, 9.49 3.7, 9.53 3.97 C9.58 4.24, 9.59 4.66, 9.61 4.8 C9.62 4.94, 9.62 4.66, 9.61 4.8" stroke="#000000" stroke-width="1" fill="none"></path></g><g stroke-linecap="round" transform="translate(872.3772924878122 320.7534745323537) rotate(0 4.803511280661041 4.803511280661041)"><path d="M9.61 4.8 C9.61 5.08, 9.58 5.36, 9.53 5.64 C9.49 5.91, 9.41 6.19, 9.32 6.45 C9.22 6.71, 9.1 6.96, 8.96 7.21 C8.82 7.45, 8.66 7.68, 8.48 7.89 C8.3 8.1, 8.1 8.3, 7.89 8.48 C7.68 8.66, 7.45 8.82, 7.21 8.96 C6.96 9.1, 6.71 9.22, 6.45 9.32 C6.19 9.41, 5.91 9.49, 5.64 9.53 C5.36 9.58, 5.08 9.61, 4.8 9.61 C4.53 9.61, 4.24 9.58, 3.97 9.53 C3.7 9.49, 3.42 9.41, 3.16 9.32 C2.9 9.22, 2.64 9.1, 2.4 8.96 C2.16 8.82, 1.93 8.66, 1.72 8.48 C1.5 8.3, 1.3 8.1, 1.12 7.89 C0.95 7.68, 0.78 7.45, 0.64 7.21 C0.5 6.96, 0.38 6.71, 0.29 6.45 C0.19 6.19, 0.12 5.91, 0.07 5.64 C0.02 5.36, 0 5.08, 0 4.8 C0 4.53, 0.02 4.24, 0.07 3.97 C0.12 3.7, 0.19 3.42, 0.29 3.16 C0.38 2.9, 0.5 2.64, 0.64 2.4 C0.78 2.16, 0.95 1.93, 1.12 1.72 C1.3 1.5, 1.5 1.3, 1.72 1.12 C1.93 0.95, 2.16 0.78, 2.4 0.64 C2.64 0.5, 2.9 0.38, 3.16 0.29 C3.42 0.19, 3.7 0.12, 3.97 0.07 C4.24 0.02, 4.53 0, 4.8 0 C5.08 0, 5.36 0.02, 5.64 0.07 C5.91 0.12, 6.19 0.19, 6.45 0.29 C6.71 0.38, 6.96 0.5, 7.21 0.64 C7.45 0.78, 7.68 0.95, 7.89 1.12 C8.1 1.3, 8.3 1.5, 8.48 1.72 C8.66 1.93, 8.82 2.16, 8.96 2.4 C9.1 2.64, 9.22 2.9, 9.32 3.16 C9.41 3.42, 9.49 3.7, 9.53 3.97 C9.58 4.24, 9.59 4.66, 9.61 4.8 C9.62 4.94, 9.62 4.66, 9.61 4.8" stroke="none" stroke-width="0" fill="#868e96"></path><path d="M9.61 4.8 C9.61 5.08, 9.58 5.36, 9.53 5.64 C9.49 5.91, 9.41 6.19, 9.32 6.45 C9.22 6.71, 9.1 6.96, 8.96 7.21 C8.82 7.45, 8.66 7.68, 8.48 7.89 C8.3 8.1, 8.1 8.3, 7.89 8.48 C7.68 8.66, 7.45 8.82, 7.21 8.96 C6.96 9.1, 6.71 9.22, 6.45 9.32 C6.19 9.41, 5.91 9.49, 5.64 9.53 C5.36 9.58, 5.08 9.61, 4.8 9.61 C4.53 9.61, 4.24 9.58, 3.97 9.53 C3.7 9.49, 3.42 9.41, 3.16 9.32 C2.9 9.22, 2.64 9.1, 2.4 8.96 C2.16 8.82, 1.93 8.66, 1.72 8.48 C1.5 8.3, 1.3 8.1, 1.12 7.89 C0.95 7.68, 0.78 7.45, 0.64 7.21 C0.5 6.96, 0.38 6.71, 0.29 6.45 C0.19 6.19, 0.12 5.91, 0.07 5.64 C0.02 5.36, 0 5.08, 0 4.8 C0 4.53, 0.02 4.24, 0.07 3.97 C0.12 3.7, 0.19 3.42, 0.29 3.16 C0.38 2.9, 0.5 2.64, 0.64 2.4 C0.78 2.16, 0.95 1.93, 1.12 1.72 C1.3 1.5, 1.5 1.3, 1.72 1.12 C1.93 0.95, 2.16 0.78, 2.4 0.64 C2.64 0.5, 2.9 0.38, 3.16 0.29 C3.42 0.19, 3.7 0.12, 3.97 0.07 C4.24 0.02, 4.53 0, 4.8 0 C5.08 0, 5.36 0.02, 5.64 0.07 C5.91 0.12, 6.19 0.19, 6.45 0.29 C6.71 0.38, 6.96 0.5, 7.21 0.64 C7.45 0.78, 7.68 0.95, 7.89 1.12 C8.1 1.3, 8.3 1.5, 8.48 1.72 C8.66 1.93, 8.82 2.16, 8.96 2.4 C9.1 2.64, 9.22 2.9, 9.32 3.16 C9.41 3.42, 9.49 3.7, 9.53 3.97 C9.58 4.24, 9.59 4.66, 9.61 4.8 C9.62 4.94, 9.62 4.66, 9.61 4.8" stroke="#000000" stroke-width="1" fill="none"></path></g><g stroke-linecap="round" transform="translate(840.8411966886888 320.96232284890357) rotate(0 4.803511280661041 4.803511280661041)"><path d="M9.61 4.8 C9.61 5.08, 9.58 5.36, 9.53 5.64 C9.49 5.91, 9.41 6.19, 9.32 6.45 C9.22 6.71, 9.1 6.96, 8.96 7.21 C8.82 7.45, 8.66 7.68, 8.48 7.89 C8.3 8.1, 8.1 8.3, 7.89 8.48 C7.68 8.66, 7.45 8.82, 7.21 8.96 C6.96 9.1, 6.71 9.22, 6.45 9.32 C6.19 9.41, 5.91 9.49, 5.64 9.53 C5.36 9.58, 5.08 9.61, 4.8 9.61 C4.53 9.61, 4.24 9.58, 3.97 9.53 C3.7 9.49, 3.42 9.41, 3.16 9.32 C2.9 9.22, 2.64 9.1, 2.4 8.96 C2.16 8.82, 1.93 8.66, 1.72 8.48 C1.5 8.3, 1.3 8.1, 1.12 7.89 C0.95 7.68, 0.78 7.45, 0.64 7.21 C0.5 6.96, 0.38 6.71, 0.29 6.45 C0.19 6.19, 0.12 5.91, 0.07 5.64 C0.02 5.36, 0 5.08, 0 4.8 C0 4.53, 0.02 4.24, 0.07 3.97 C0.12 3.7, 0.19 3.42, 0.29 3.16 C0.38 2.9, 0.5 2.64, 0.64 2.4 C0.78 2.16, 0.95 1.93, 1.12 1.72 C1.3 1.5, 1.5 1.3, 1.72 1.12 C1.93 0.95, 2.16 0.78, 2.4 0.64 C2.64 0.5, 2.9 0.38, 3.16 0.29 C3.42 0.19, 3.7 0.12, 3.97 0.07 C4.24 0.02, 4.53 0, 4.8 0 C5.08 0, 5.36 0.02, 5.64 0.07 C5.91 0.12, 6.19 0.19, 6.45 0.29 C6.71 0.38, 6.96 0.5, 7.21 0.64 C7.45 0.78, 7.68 0.95, 7.89 1.12 C8.1 1.3, 8.3 1.5, 8.48 1.72 C8.66 1.93, 8.82 2.16, 8.96 2.4 C9.1 2.64, 9.22 2.9, 9.32 3.16 C9.41 3.42, 9.49 3.7, 9.53 3.97 C9.58 4.24, 9.59 4.66, 9.61 4.8 C9.62 4.94, 9.62 4.66, 9.61 4.8" stroke="none" stroke-width="0" fill="#868e96"></path><path d="M9.61 4.8 C9.61 5.08, 9.58 5.36, 9.53 5.64 C9.49 5.91, 9.41 6.19, 9.32 6.45 C9.22 6.71, 9.1 6.96, 8.96 7.21 C8.82 7.45, 8.66 7.68, 8.48 7.89 C8.3 8.1, 8.1 8.3, 7.89 8.48 C7.68 8.66, 7.45 8.82, 7.21 8.96 C6.96 9.1, 6.71 9.22, 6.45 9.32 C6.19 9.41, 5.91 9.49, 5.64 9.53 C5.36 9.58, 5.08 9.61, 4.8 9.61 C4.53 9.61, 4.24 9.58, 3.97 9.53 C3.7 9.49, 3.42 9.41, 3.16 9.32 C2.9 9.22, 2.64 9.1, 2.4 8.96 C2.16 8.82, 1.93 8.66, 1.72 8.48 C1.5 8.3, 1.3 8.1, 1.12 7.89 C0.95 7.68, 0.78 7.45, 0.64 7.21 C0.5 6.96, 0.38 6.71, 0.29 6.45 C0.19 6.19, 0.12 5.91, 0.07 5.64 C0.02 5.36, 0 5.08, 0 4.8 C0 4.53, 0.02 4.24, 0.07 3.97 C0.12 3.7, 0.19 3.42, 0.29 3.16 C0.38 2.9, 0.5 2.64, 0.64 2.4 C0.78 2.16, 0.95 1.93, 1.12 1.72 C1.3 1.5, 1.5 1.3, 1.72 1.12 C1.93 0.95, 2.16 0.78, 2.4 0.64 C2.64 0.5, 2.9 0.38, 3.16 0.29 C3.42 0.19, 3.7 0.12, 3.97 0.07 C4.24 0.02, 4.53 0, 4.8 0 C5.08 0, 5.36 0.02, 5.64 0.07 C5.91 0.12, 6.19 0.19, 6.45 0.29 C6.71 0.38, 6.96 0.5, 7.21 0.64 C7.45 0.78, 7.68 0.95, 7.89 1.12 C8.1 1.3, 8.3 1.5, 8.48 1.72 C8.66 1.93, 8.82 2.16, 8.96 2.4 C9.1 2.64, 9.22 2.9, 9.32 3.16 C9.41 3.42, 9.49 3.7, 9.53 3.97 C9.58 4.24, 9.59 4.66, 9.61 4.8 C9.62 4.94, 9.62 4.66, 9.61 4.8" stroke="#000000" stroke-width="1" fill="none"></path></g><g stroke-linecap="round"><g transform="translate(865.6107292847009 280.08957034567356) rotate(0 8.388317815275514 6.216885598921181)"><path d="M0 0 C2.8 2.07, 13.98 10.36, 16.78 12.43 M0 0 C2.8 2.07, 13.98 10.36, 16.78 12.43" stroke="#000000" stroke-width="1" fill="none"></path></g></g><g stroke-linecap="round"><g transform="translate(886.5248676917363 300.6569624390431) rotate(0 -3.1462405765887524 9.86804270841185)"><path d="M0 0 C-1.05 3.29, -5.24 16.45, -6.29 19.74 M0 0 C-1.05 3.29, -5.24 16.45, -6.29 19.74" stroke="#000000" stroke-width="1" fill="none"></path></g></g><g stroke-linecap="round"><g transform="translate(855.9800558828501 280.91886134327433) rotate(0 -8.805139377534942 6.078308768623174)"><path d="M0 0 C-2.94 2.03, -14.68 10.13, -17.61 12.16 M0 0 C-2.94 2.03, -14.68 10.13, -17.61 12.16" stroke="#000000" stroke-width="1" fill="none"></path></g></g><g stroke-linecap="round"><g transform="translate(837.5441030054972 300.8838100838984) rotate(0 3.3491165184941565 10.158053551787816)"><path d="M0 0 C1.12 3.39, 5.58 16.93, 6.7 20.32 M0 0 C1.12 3.39, 5.58 16.93, 6.7 20.32" stroke="#000000" stroke-width="1" fill="none"></path></g></g><g stroke-linecap="round"><g transform="translate(850.6334539541731 326.6901595562449) rotate(0 10.532492583258318 -0.13606385088678508)"><path d="M0 0 C3.51 -0.05, 17.55 -0.23, 21.06 -0.27 M0 0 C3.51 -0.05, 17.55 -0.23, 21.06 -0.27" stroke="#000000" stroke-width="1" fill="none"></path></g></g><g stroke-linecap="round"><g transform="translate(842.572767701593 297.67111501664476) rotate(0 19.5207515231441 0.07008430878522631)"><path d="M0 0 C6.51 0.02, 32.53 0.12, 39.04 0.14 M0 0 C6.51 0.02, 32.53 0.12, 39.04 0.14" stroke="#000000" stroke-width="1" fill="none"></path></g></g><g stroke-linecap="round"><g transform="translate(861.1154882212777 283.3912130179997) rotate(0 -5.847752863413007 19.109620964368332)"><path d="M0 0 C-1.95 6.37, -9.75 31.85, -11.7 38.22 M0 0 C-1.95 6.37, -9.75 31.85, -11.7 38.22" stroke="#000000" stroke-width="1" fill="none"></path></g></g><g stroke-linecap="round"><g transform="translate(863.311282763083 283.3698680324942) rotate(0 5.847752863413007 19.422893439194013)"><path d="M0 0 C1.95 6.47, 9.75 32.37, 11.7 38.85 M0 0 C1.95 6.47, 9.75 32.37, 11.7 38.85" stroke="#000000" stroke-width="1" fill="none"></path></g></g><g stroke-linecap="round"><g transform="translate(849.6464708187032 322.24675705641494) rotate(0 16.499017007487964 -11.173384935450486)"><path d="M0 0 C5.5 -3.72, 27.5 -18.62, 33 -22.35 M0 0 C5.5 -3.72, 27.5 -18.62, 33 -22.35" stroke="#000000" stroke-width="1" fill="none"></path></g></g><g stroke-linecap="round"><g transform="translate(840.8469183840571 300.2351530320848) rotate(0 16.70777345164879 11.011649394955384)"><path d="M0 0 C5.57 3.67, 27.85 18.35, 33.42 22.02 M0 0 C5.57 3.67, 27.85 18.35, 33.42 22.02" stroke="#000000" stroke-width="1" fill="none"></path></g></g><g stroke-linecap="round"><g transform="translate(861.8335037231445 255.00003814697266) rotate(0 -0.416717529296875 -45)"><path d="M0 0 C-0.14 -15, -0.69 -75, -0.83 -90 M0 0 C-0.14 -15, -0.69 -75, -0.83 -90" stroke="#000000" stroke-width="2" fill="none"></path></g></g><g stroke-linecap="round" transform="translate(839.3335037231445 120.8334732055664) rotate(0 20.833282470703125 21.666641235351562)"><path d="M41.67 21.67 C41.67 22.92, 41.56 24.19, 41.35 25.43 C41.14 26.66, 40.82 27.9, 40.41 29.08 C40 30.26, 39.48 31.41, 38.88 32.5 C38.27 33.59, 37.57 34.63, 36.79 35.59 C36.02 36.55, 35.15 37.46, 34.22 38.26 C33.3 39.07, 32.29 39.8, 31.25 40.43 C30.21 41.06, 29.09 41.6, 27.96 42.03 C26.83 42.46, 25.64 42.79, 24.45 43 C23.26 43.22, 22.04 43.33, 20.83 43.33 C19.63 43.33, 18.4 43.22, 17.22 43 C16.03 42.79, 14.84 42.46, 13.71 42.03 C12.57 41.6, 11.46 41.06, 10.42 40.43 C9.37 39.8, 8.37 39.07, 7.44 38.26 C6.52 37.46, 5.65 36.55, 4.87 35.59 C4.1 34.63, 3.39 33.59, 2.79 32.5 C2.19 31.41, 1.67 30.26, 1.26 29.08 C0.84 27.9, 0.53 26.66, 0.32 25.43 C0.11 24.19, 0 22.92, 0 21.67 C0 20.41, 0.11 19.14, 0.32 17.9 C0.53 16.67, 0.84 15.43, 1.26 14.26 C1.67 13.08, 2.19 11.92, 2.79 10.83 C3.39 9.75, 4.1 8.7, 4.87 7.74 C5.65 6.78, 6.52 5.88, 7.44 5.07 C8.37 4.26, 9.37 3.53, 10.42 2.9 C11.46 2.28, 12.57 1.74, 13.71 1.31 C14.84 0.88, 16.03 0.55, 17.22 0.33 C18.4 0.11, 19.63 0, 20.83 0 C22.04 0, 23.26 0.11, 24.45 0.33 C25.64 0.55, 26.83 0.88, 27.96 1.31 C29.09 1.74, 30.21 2.28, 31.25 2.9 C32.29 3.53, 33.3 4.26, 34.22 5.07 C35.15 5.88, 36.02 6.78, 36.79 7.74 C37.57 8.7, 38.27 9.75, 38.88 10.83 C39.48 11.92, 40 13.08, 40.41 14.26 C40.82 15.43, 41.14 16.67, 41.35 17.9 C41.56 19.14, 41.61 21.04, 41.67 21.67 C41.72 22.29, 41.72 21.04, 41.67 21.67" stroke="#000000" stroke-width="2" fill="none"></path></g><g stroke-linecap="round" transform="translate(746.1666946411133 10) rotate(0 216.58340454101562 222.91667938232422)"><path d="M0 0 C88.05 0, 176.11 0, 433.17 0 M433.17 0 C433.17 127.61, 433.17 255.22, 433.17 445.83 M433.17 445.83 C308.78 445.83, 184.39 445.83, 0 445.83 M0 445.83 C0 296.31, 0 146.78, 0 0" stroke="#0b7285" stroke-width="2.5" fill="none" stroke-dasharray="8 10"></path></g><g stroke-linecap="round" transform="translate(10 15.833320617675781) rotate(0 207.91671752929688 222.91667938232422)"><path d="M0 0 C161.25 0, 322.49 0, 415.83 0 M415.83 0 C415.83 99.78, 415.83 199.56, 415.83 445.83 M415.83 445.83 C299.2 445.83, 182.57 445.83, 0 445.83 M0 445.83 C0 354.25, 0 262.67, 0 0" stroke="#0b7285" stroke-width="2.5" fill="none" stroke-dasharray="8 10"></path></g><g transform="translate(1065.1667861938477 16.33332061767578) rotate(0 48.916717529296875 18.743788959824087)"><text x="0" y="30.487577919648075" font-family="Helvetica, Segoe UI Emoji" font-size="32.91592207578856px" fill="#0b7285" text-anchor="start" style="white-space: pre;" direction="ltr">Server</text></g><g transform="translate(26.00006866455078 25.500038146972656) rotate(0 42.5 19)"><text x="0" y="31" font-family="Helvetica, Segoe UI Emoji" font-size="32.91592207578856px" fill="#0b7285" text-anchor="start" style="white-space: pre;" direction="ltr">Client</text></g><g stroke-linecap="round"><g transform="translate(426.83343505859375 144.16735926529873) rotate(0 205.7571140887958 -1.2417222202175253)"><path d="M0 0 C68.59 -0.41, 342.93 -2.07, 411.51 -2.48 M0 0 C68.59 -0.41, 342.93 -2.07, 411.51 -2.48" stroke="#0b7285" stroke-width="2" fill="none"></path></g><g transform="translate(426.83343505859375 144.16735926529873) rotate(0 205.7571140887958 -1.2417222202175253)"><path d="M383.39 7.95 C389.09 5.83, 394.79 3.72, 411.51 -2.48 M383.39 7.95 C392.25 4.66, 401.11 1.38, 411.51 -2.48" stroke="#0b7285" stroke-width="2" fill="none"></path></g><g transform="translate(426.83343505859375 144.16735926529873) rotate(0 205.7571140887958 -1.2417222202175253)"><path d="M383.26 -12.57 C388.99 -10.53, 394.72 -8.48, 411.51 -2.48 M383.26 -12.57 C392.16 -9.39, 401.06 -6.22, 411.51 -2.48" stroke="#0b7285" stroke-width="2" fill="none"></path></g></g><g stroke-linecap="round"><g transform="translate(209.77136321186663 87.73410172085642) rotate(0 90.6534480990058 0.16487588002655684)"><path d="M0 0 C30.22 0.05, 151.09 0.27, 181.31 0.33 M0 0 C30.22 0.05, 151.09 0.27, 181.31 0.33" stroke="#000000" stroke-width="1" fill="none"></path></g></g><g stroke-linecap="round" transform="translate(214.65071424427333 73.91795730603917) rotate(0 3.5508577306727602 3.4987719219643623)"><path d="M7.1 3.5 C7.1 3.7, 7.08 3.91, 7.05 4.11 C7.01 4.31, 6.96 4.51, 6.89 4.7 C6.82 4.89, 6.73 5.07, 6.63 5.25 C6.52 5.42, 6.4 5.59, 6.27 5.75 C6.14 5.9, 5.99 6.05, 5.83 6.18 C5.68 6.31, 5.5 6.43, 5.33 6.53 C5.15 6.63, 4.96 6.72, 4.77 6.79 C4.57 6.86, 4.37 6.91, 4.17 6.94 C3.97 6.98, 3.76 7, 3.55 7 C3.35 7, 3.14 6.98, 2.93 6.94 C2.73 6.91, 2.53 6.86, 2.34 6.79 C2.14 6.72, 1.95 6.63, 1.78 6.53 C1.6 6.43, 1.43 6.31, 1.27 6.18 C1.11 6.05, 0.96 5.9, 0.83 5.75 C0.7 5.59, 0.58 5.42, 0.48 5.25 C0.37 5.07, 0.28 4.89, 0.21 4.7 C0.14 4.51, 0.09 4.31, 0.05 4.11 C0.02 3.91, 0 3.7, 0 3.5 C0 3.3, 0.02 3.09, 0.05 2.89 C0.09 2.69, 0.14 2.49, 0.21 2.3 C0.28 2.11, 0.37 1.92, 0.48 1.75 C0.58 1.57, 0.7 1.4, 0.83 1.25 C0.96 1.09, 1.11 0.95, 1.27 0.82 C1.43 0.69, 1.6 0.57, 1.78 0.47 C1.95 0.37, 2.14 0.28, 2.34 0.21 C2.53 0.14, 2.73 0.09, 2.93 0.05 C3.14 0.02, 3.35 0, 3.55 0 C3.76 0, 3.97 0.02, 4.17 0.05 C4.37 0.09, 4.57 0.14, 4.77 0.21 C4.96 0.28, 5.15 0.37, 5.33 0.47 C5.5 0.57, 5.68 0.69, 5.83 0.82 C5.99 0.95, 6.14 1.09, 6.27 1.25 C6.4 1.4, 6.52 1.57, 6.63 1.75 C6.73 1.92, 6.82 2.11, 6.89 2.3 C6.96 2.49, 7.01 2.69, 7.05 2.89 C7.08 3.09, 7.09 3.4, 7.1 3.5 C7.11 3.6, 7.11 3.4, 7.1 3.5" stroke="none" stroke-width="0" fill="#ffff"></path><path d="M7.1 3.5 C7.1 3.7, 7.08 3.91, 7.05 4.11 C7.01 4.31, 6.96 4.51, 6.89 4.7 C6.82 4.89, 6.73 5.07, 6.63 5.25 C6.52 5.42, 6.4 5.59, 6.27 5.75 C6.14 5.9, 5.99 6.05, 5.83 6.18 C5.68 6.31, 5.5 6.43, 5.33 6.53 C5.15 6.63, 4.96 6.72, 4.77 6.79 C4.57 6.86, 4.37 6.91, 4.17 6.94 C3.97 6.98, 3.76 7, 3.55 7 C3.35 7, 3.14 6.98, 2.93 6.94 C2.73 6.91, 2.53 6.86, 2.34 6.79 C2.14 6.72, 1.95 6.63, 1.78 6.53 C1.6 6.43, 1.43 6.31, 1.27 6.18 C1.11 6.05, 0.96 5.9, 0.83 5.75 C0.7 5.59, 0.58 5.42, 0.48 5.25 C0.37 5.07, 0.28 4.89, 0.21 4.7 C0.14 4.51, 0.09 4.31, 0.05 4.11 C0.02 3.91, 0 3.7, 0 3.5 C0 3.3, 0.02 3.09, 0.05 2.89 C0.09 2.69, 0.14 2.49, 0.21 2.3 C0.28 2.11, 0.37 1.92, 0.48 1.75 C0.58 1.57, 0.7 1.4, 0.83 1.25 C0.96 1.09, 1.11 0.95, 1.27 0.82 C1.43 0.69, 1.6 0.57, 1.78 0.47 C1.95 0.37, 2.14 0.28, 2.34 0.21 C2.53 0.14, 2.73 0.09, 2.93 0.05 C3.14 0.02, 3.35 0, 3.55 0 C3.76 0, 3.97 0.02, 4.17 0.05 C4.37 0.09, 4.57 0.14, 4.77 0.21 C4.96 0.28, 5.15 0.37, 5.33 0.47 C5.5 0.57, 5.68 0.69, 5.83 0.82 C5.99 0.95, 6.14 1.09, 6.27 1.25 C6.4 1.4, 6.52 1.57, 6.63 1.75 C6.73 1.92, 6.82 2.11, 6.89 2.3 C6.96 2.49, 7.01 2.69, 7.05 2.89 C7.08 3.09, 7.09 3.4, 7.1 3.5 C7.11 3.6, 7.11 3.4, 7.1 3.5" stroke="#000000" stroke-width="1" fill="none"></path></g><g stroke-linecap="round" transform="translate(224.87675797914562 73.91795730603917) rotate(0 3.5508577306727602 3.4987719219643623)"><path d="M7.1 3.5 C7.1 3.7, 7.08 3.91, 7.05 4.11 C7.01 4.31, 6.96 4.51, 6.89 4.7 C6.82 4.89, 6.73 5.07, 6.63 5.25 C6.52 5.42, 6.4 5.59, 6.27 5.75 C6.14 5.9, 5.99 6.05, 5.83 6.18 C5.68 6.31, 5.5 6.43, 5.33 6.53 C5.15 6.63, 4.96 6.72, 4.77 6.79 C4.57 6.86, 4.37 6.91, 4.17 6.94 C3.97 6.98, 3.76 7, 3.55 7 C3.35 7, 3.14 6.98, 2.93 6.94 C2.73 6.91, 2.53 6.86, 2.34 6.79 C2.14 6.72, 1.95 6.63, 1.78 6.53 C1.6 6.43, 1.43 6.31, 1.27 6.18 C1.11 6.05, 0.96 5.9, 0.83 5.75 C0.7 5.59, 0.58 5.42, 0.48 5.25 C0.37 5.07, 0.28 4.89, 0.21 4.7 C0.14 4.51, 0.09 4.31, 0.05 4.11 C0.02 3.91, 0 3.7, 0 3.5 C0 3.3, 0.02 3.09, 0.05 2.89 C0.09 2.69, 0.14 2.49, 0.21 2.3 C0.28 2.11, 0.37 1.92, 0.48 1.75 C0.58 1.57, 0.7 1.4, 0.83 1.25 C0.96 1.09, 1.11 0.95, 1.27 0.82 C1.43 0.69, 1.6 0.57, 1.78 0.47 C1.95 0.37, 2.14 0.28, 2.34 0.21 C2.53 0.14, 2.73 0.09, 2.93 0.05 C3.14 0.02, 3.35 0, 3.55 0 C3.76 0, 3.97 0.02, 4.17 0.05 C4.37 0.09, 4.57 0.14, 4.77 0.21 C4.96 0.28, 5.15 0.37, 5.33 0.47 C5.5 0.57, 5.68 0.69, 5.83 0.82 C5.99 0.95, 6.14 1.09, 6.27 1.25 C6.4 1.4, 6.52 1.57, 6.63 1.75 C6.73 1.92, 6.82 2.11, 6.89 2.3 C6.96 2.49, 7.01 2.69, 7.05 2.89 C7.08 3.09, 7.09 3.4, 7.1 3.5 C7.11 3.6, 7.11 3.4, 7.1 3.5" stroke="none" stroke-width="0" fill="#ffff"></path><path d="M7.1 3.5 C7.1 3.7, 7.08 3.91, 7.05 4.11 C7.01 4.31, 6.96 4.51, 6.89 4.7 C6.82 4.89, 6.73 5.07, 6.63 5.25 C6.52 5.42, 6.4 5.59, 6.27 5.75 C6.14 5.9, 5.99 6.05, 5.83 6.18 C5.68 6.31, 5.5 6.43, 5.33 6.53 C5.15 6.63, 4.96 6.72, 4.77 6.79 C4.57 6.86, 4.37 6.91, 4.17 6.94 C3.97 6.98, 3.76 7, 3.55 7 C3.35 7, 3.14 6.98, 2.93 6.94 C2.73 6.91, 2.53 6.86, 2.34 6.79 C2.14 6.72, 1.95 6.63, 1.78 6.53 C1.6 6.43, 1.43 6.31, 1.27 6.18 C1.11 6.05, 0.96 5.9, 0.83 5.75 C0.7 5.59, 0.58 5.42, 0.48 5.25 C0.37 5.07, 0.28 4.89, 0.21 4.7 C0.14 4.51, 0.09 4.31, 0.05 4.11 C0.02 3.91, 0 3.7, 0 3.5 C0 3.3, 0.02 3.09, 0.05 2.89 C0.09 2.69, 0.14 2.49, 0.21 2.3 C0.28 2.11, 0.37 1.92, 0.48 1.75 C0.58 1.57, 0.7 1.4, 0.83 1.25 C0.96 1.09, 1.11 0.95, 1.27 0.82 C1.43 0.69, 1.6 0.57, 1.78 0.47 C1.95 0.37, 2.14 0.28, 2.34 0.21 C2.53 0.14, 2.73 0.09, 2.93 0.05 C3.14 0.02, 3.35 0, 3.55 0 C3.76 0, 3.97 0.02, 4.17 0.05 C4.37 0.09, 4.57 0.14, 4.77 0.21 C4.96 0.28, 5.15 0.37, 5.33 0.47 C5.5 0.57, 5.68 0.69, 5.83 0.82 C5.99 0.95, 6.14 1.09, 6.27 1.25 C6.4 1.4, 6.52 1.57, 6.63 1.75 C6.73 1.92, 6.82 2.11, 6.89 2.3 C6.96 2.49, 7.01 2.69, 7.05 2.89 C7.08 3.09, 7.09 3.4, 7.1 3.5 C7.11 3.6, 7.11 3.4, 7.1 3.5" stroke="#000000" stroke-width="1" fill="none"></path></g><g stroke-linecap="round" transform="translate(234.7525554098047 73.91795730603917) rotate(0 3.5508577306727602 3.4987719219643623)"><path d="M7.1 3.5 C7.1 3.7, 7.08 3.91, 7.05 4.11 C7.01 4.31, 6.96 4.51, 6.89 4.7 C6.82 4.89, 6.73 5.07, 6.63 5.25 C6.52 5.42, 6.4 5.59, 6.27 5.75 C6.14 5.9, 5.99 6.05, 5.83 6.18 C5.68 6.31, 5.5 6.43, 5.33 6.53 C5.15 6.63, 4.96 6.72, 4.77 6.79 C4.57 6.86, 4.37 6.91, 4.17 6.94 C3.97 6.98, 3.76 7, 3.55 7 C3.35 7, 3.14 6.98, 2.93 6.94 C2.73 6.91, 2.53 6.86, 2.34 6.79 C2.14 6.72, 1.95 6.63, 1.78 6.53 C1.6 6.43, 1.43 6.31, 1.27 6.18 C1.11 6.05, 0.96 5.9, 0.83 5.75 C0.7 5.59, 0.58 5.42, 0.48 5.25 C0.37 5.07, 0.28 4.89, 0.21 4.7 C0.14 4.51, 0.09 4.31, 0.05 4.11 C0.02 3.91, 0 3.7, 0 3.5 C0 3.3, 0.02 3.09, 0.05 2.89 C0.09 2.69, 0.14 2.49, 0.21 2.3 C0.28 2.11, 0.37 1.92, 0.48 1.75 C0.58 1.57, 0.7 1.4, 0.83 1.25 C0.96 1.09, 1.11 0.95, 1.27 0.82 C1.43 0.69, 1.6 0.57, 1.78 0.47 C1.95 0.37, 2.14 0.28, 2.34 0.21 C2.53 0.14, 2.73 0.09, 2.93 0.05 C3.14 0.02, 3.35 0, 3.55 0 C3.76 0, 3.97 0.02, 4.17 0.05 C4.37 0.09, 4.57 0.14, 4.77 0.21 C4.96 0.28, 5.15 0.37, 5.33 0.47 C5.5 0.57, 5.68 0.69, 5.83 0.82 C5.99 0.95, 6.14 1.09, 6.27 1.25 C6.4 1.4, 6.52 1.57, 6.63 1.75 C6.73 1.92, 6.82 2.11, 6.89 2.3 C6.96 2.49, 7.01 2.69, 7.05 2.89 C7.08 3.09, 7.09 3.4, 7.1 3.5 C7.11 3.6, 7.11 3.4, 7.1 3.5" stroke="none" stroke-width="0" fill="#ffff"></path><path d="M7.1 3.5 C7.1 3.7, 7.08 3.91, 7.05 4.11 C7.01 4.31, 6.96 4.51, 6.89 4.7 C6.82 4.89, 6.73 5.07, 6.63 5.25 C6.52 5.42, 6.4 5.59, 6.27 5.75 C6.14 5.9, 5.99 6.05, 5.83 6.18 C5.68 6.31, 5.5 6.43, 5.33 6.53 C5.15 6.63, 4.96 6.72, 4.77 6.79 C4.57 6.86, 4.37 6.91, 4.17 6.94 C3.97 6.98, 3.76 7, 3.55 7 C3.35 7, 3.14 6.98, 2.93 6.94 C2.73 6.91, 2.53 6.86, 2.34 6.79 C2.14 6.72, 1.95 6.63, 1.78 6.53 C1.6 6.43, 1.43 6.31, 1.27 6.18 C1.11 6.05, 0.96 5.9, 0.83 5.75 C0.7 5.59, 0.58 5.42, 0.48 5.25 C0.37 5.07, 0.28 4.89, 0.21 4.7 C0.14 4.51, 0.09 4.31, 0.05 4.11 C0.02 3.91, 0 3.7, 0 3.5 C0 3.3, 0.02 3.09, 0.05 2.89 C0.09 2.69, 0.14 2.49, 0.21 2.3 C0.28 2.11, 0.37 1.92, 0.48 1.75 C0.58 1.57, 0.7 1.4, 0.83 1.25 C0.96 1.09, 1.11 0.95, 1.27 0.82 C1.43 0.69, 1.6 0.57, 1.78 0.47 C1.95 0.37, 2.14 0.28, 2.34 0.21 C2.53 0.14, 2.73 0.09, 2.93 0.05 C3.14 0.02, 3.35 0, 3.55 0 C3.76 0, 3.97 0.02, 4.17 0.05 C4.37 0.09, 4.57 0.14, 4.77 0.21 C4.96 0.28, 5.15 0.37, 5.33 0.47 C5.5 0.57, 5.68 0.69, 5.83 0.82 C5.99 0.95, 6.14 1.09, 6.27 1.25 C6.4 1.4, 6.52 1.57, 6.63 1.75 C6.73 1.92, 6.82 2.11, 6.89 2.3 C6.96 2.49, 7.01 2.69, 7.05 2.89 C7.08 3.09, 7.09 3.4, 7.1 3.5 C7.11 3.6, 7.11 3.4, 7.1 3.5" stroke="#000000" stroke-width="1" fill="none"></path></g><g stroke-linecap="round"><g transform="translate(202.97617209324198 129.5038144923892) rotate(0 96.22444746933161 0.8938526948468279)" fill-rule="evenodd"><path d="M0 0 L0.87 -58.19 L2.83 -61.9 L5.74 -63.36 L154.65 -63.41 L188.68 -62.78 L190.4 -61.19 L192.11 -57.78 L192.47 -51.21 L191.59 27.02 L192.21 60.51 L190.88 64.14 L188.78 65.31 L58.87 64.06 L4.66 64.33 L1.5 63.14 L0.12 59.19 L0 0" stroke="none" stroke-width="0" fill="#ffff" fill-rule="evenodd"></path><path d="M0 0 C0.04 -4.32, 0.17 -17.32, 0.22 -25.9 C0.27 -34.48, -0.13 -45.48, 0.31 -51.48 C0.74 -57.48, 0.53 -59.9, 2.83 -61.9 C5.13 -63.9, 4.53 -63.27, 14.1 -63.48 C23.67 -63.68, 42.13 -63.16, 60.24 -63.14 C78.35 -63.13, 102.76 -63.39, 122.73 -63.39 C142.7 -63.39, 168.78 -63.51, 180.06 -63.14 C191.33 -62.78, 188.33 -63.18, 190.4 -61.19 C192.47 -59.2, 192.2 -57.4, 192.47 -51.21 C192.75 -45.03, 192.12 -33.02, 192.03 -24.07 C191.94 -15.11, 192 -6, 191.92 2.51 C191.85 11.03, 191.55 18.5, 191.59 27.02 C191.63 35.55, 192.28 47.48, 192.17 53.67 C192.05 59.85, 192.83 62.23, 190.88 64.14 C188.94 66.05, 190.68 65.02, 180.5 65.14 C170.31 65.26, 150.03 65.07, 129.76 64.89 C109.49 64.71, 78.27 64.18, 58.87 64.06 C39.47 63.93, 22.91 64.29, 13.35 64.14 C3.79 63.99, 3.7 65.14, 1.5 63.14 C-0.69 61.15, 0.44 58.26, 0.18 52.17 C-0.09 46.08, -0.06 35.3, -0.09 26.6 C-0.12 17.91, -0.01 4.43, 0 0 M0 0 C0.04 -4.32, 0.17 -17.32, 0.22 -25.9 C0.27 -34.48, -0.13 -45.48, 0.31 -51.48 C0.74 -57.48, 0.53 -59.9, 2.83 -61.9 C5.13 -63.9, 4.53 -63.27, 14.1 -63.48 C23.67 -63.68, 42.13 -63.16, 60.24 -63.14 C78.35 -63.13, 102.76 -63.39, 122.73 -63.39 C142.7 -63.39, 168.78 -63.51, 180.06 -63.14 C191.33 -62.78, 188.33 -63.18, 190.4 -61.19 C192.47 -59.2, 192.2 -57.4, 192.47 -51.21 C192.75 -45.03, 192.12 -33.02, 192.03 -24.07 C191.94 -15.11, 192 -6, 191.92 2.51 C191.85 11.03, 191.55 18.5, 191.59 27.02 C191.63 35.55, 192.28 47.48, 192.17 53.67 C192.05 59.85, 192.83 62.23, 190.88 64.14 C188.94 66.05, 190.68 65.02, 180.5 65.14 C170.31 65.26, 150.03 65.07, 129.76 64.89 C109.49 64.71, 78.27 64.18, 58.87 64.06 C39.47 63.93, 22.91 64.29, 13.35 64.14 C3.79 63.99, 3.7 65.14, 1.5 63.14 C-0.69 61.15, 0.44 58.26, 0.18 52.17 C-0.09 46.08, -0.06 35.3, -0.09 26.6 C-0.12 17.91, -0.01 4.43, 0 0" stroke="#000000" stroke-width="1" fill="none"></path></g></g><g stroke-linecap="round"><g transform="translate(317.8527556777917 72.79743927172967) rotate(0 0.9681935927719678 4.3880135949139)" fill-rule="evenodd"><path d="M0 0 L63.42 0.24 L65.49 0.56 L67.16 4.9 L65.59 8.48 L-61.95 8.85 L-63.77 8.46 L-65.23 5.37 L-63.5 0.61 L-61.35 0.26 L0 0" stroke="none" stroke-width="0" fill="#ffff" fill-rule="evenodd"></path><path d="M0 0 C9.61 0, 46.63 -0.31, 57.65 0 C68.67 0.31, 64.71 0.56, 66.12 1.86 C67.53 3.16, 67.5 6.68, 66.12 7.78 C64.74 8.88, 68.85 8.32, 57.83 8.46 C46.81 8.6, 18.56 8.63, 0 8.63 C-18.56 8.63, -42.88 8.49, -53.51 8.46 C-64.13 8.43, -61.97 9.53, -63.77 8.46 C-65.58 7.39, -65.67 3.44, -64.32 2.03 C-62.96 0.62, -66.39 0.34, -55.67 0 C-44.95 -0.34, -9.28 0, 0 0 M0 0 C9.61 0, 46.63 -0.31, 57.65 0 C68.67 0.31, 64.71 0.56, 66.12 1.86 C67.53 3.16, 67.5 6.68, 66.12 7.78 C64.74 8.88, 68.85 8.32, 57.83 8.46 C46.81 8.6, 18.56 8.63, 0 8.63 C-18.56 8.63, -42.88 8.49, -53.51 8.46 C-64.13 8.43, -61.97 9.53, -63.77 8.46 C-65.58 7.39, -65.67 3.44, -64.32 2.03 C-62.96 0.62, -66.39 0.34, -55.67 0 C-44.95 -0.34, -9.28 0, 0 0" stroke="#000000" stroke-width="1" fill="none"></path></g></g><g transform="translate(216.49598560635968 89.98606443902463) rotate(0 84.16665649414062 13.955093304727598)"><text x="84.16665649414062" y="21.91018660945597" font-family="Helvetica, Segoe UI Emoji" font-size="24.42141328327397px" fill="#000000" text-anchor="middle" style="white-space: pre;" direction="ltr">SPARQL Editor</text></g><g transform="translate(152.16255054776593 199.98609495660276) rotate(0 64 16)"><text x="64" y="26" font-family="Helvetica, Segoe UI Emoji" font-size="28px" fill="#000000" text-anchor="middle" style="white-space: pre;" direction="ltr">Web page</text></g><g transform="translate(67.99592457120343 254.1527819683215) rotate(0 69 16)"><text x="69" y="26" font-family="Helvetica, Segoe UI Emoji" font-size="28px" fill="#000000" text-anchor="middle" style="white-space: pre;" direction="ltr">Application</text></g><g stroke-linecap="round" transform="translate(55.54325391046768 318.92661239925656) rotate(0 91.54925589923369 58.66936830213399)"><path d="M0 0 L183.1 0 L183.1 117.34 L0 117.34" stroke="none" stroke-width="0" fill="#000"></path><path d="M0 0 C39.91 0, 79.82 0, 183.1 0 M0 0 C41.71 0, 83.42 0, 183.1 0 M183.1 0 C183.1 32.27, 183.1 64.55, 183.1 117.34 M183.1 0 C183.1 31.89, 183.1 63.78, 183.1 117.34 M183.1 117.34 C136.52 117.34, 89.94 117.34, 0 117.34 M183.1 117.34 C134.51 117.34, 85.93 117.34, 0 117.34 M0 117.34 C0 93.28, 0 69.21, 0 0 M0 117.34 C0 89.51, 0 61.67, 0 0" stroke="#495057" stroke-width="4" fill="none"></path></g><g stroke-linecap="round" transform="translate(55.716357247252745 318.5355832137757) rotate(0 91.58442245923652 6.090054926142329)"><path d="M0 0 L183.17 0 L183.17 12.18 L0 12.18" stroke="none" stroke-width="0" fill="#868e96"></path><path d="M0 0 C57.7 0, 115.41 0, 183.17 0 M0 0 C61.25 0, 122.51 0, 183.17 0 M183.17 0 C183.17 3, 183.17 6, 183.17 12.18 M183.17 0 C183.17 4.49, 183.17 8.99, 183.17 12.18 M183.17 12.18 C116.59 12.18, 50 12.18, 0 12.18 M183.17 12.18 C126.82 12.18, 70.46 12.18, 0 12.18 M0 12.18 C0 8.57, 0 4.97, 0 0 M0 12.18 C0 7.91, 0 3.63, 0 0" stroke="#495057" stroke-width="4" fill="none"></path></g><g transform="translate(60.54325391046768 365.59598070139145) rotate(0 86.54925589923369 12)"><text x="86.54925589923403" y="20" font-family="Cascadia, Segoe UI Emoji" font-size="20px" fill="#ffff" text-anchor="middle" style="white-space: pre;" direction="ltr">&gt;_command line</text></g><g transform="translate(217.41669464111328 119.00003814697266) rotate(0 73.83334350585938 30.80164023557336)"><text x="0" y="16.53442682371549" font-family="Helvetica, Segoe UI Emoji" font-size="18.118611903278385px" fill="#0b7285" text-anchor="start" style="white-space: pre;" direction="ltr">- at this endpoint</text><text x="0" y="37.06885364743098" font-family="Helvetica, Segoe UI Emoji" font-size="18.118611903278385px" fill="#0b7285" text-anchor="start" style="white-space: pre;" direction="ltr">- another endpoint</text><text x="0" y="57.60328047114646" font-family="Helvetica, Segoe UI Emoji" font-size="18.118611903278385px" fill="#0b7285" text-anchor="start" style="white-space: pre;" direction="ltr">- client application</text></g></svg>