<svg version="1.1" xmlns="http://www.w3.org/2000/svg" viewBox="0 0 656.2197627836795 389.5823995895298" width="1968.6592883510384" height="1168.7471987685894">
  <!-- svg-source:excalidraw -->
  
  <defs>
    <style>
      @font-face {
        font-family: "Virgil";
        src: url("https://excalidraw.com/Virgil.woff2");
      }
      @font-face {
        font-family: "Cascadia";
        src: url("https://excalidraw.com/Cascadia.woff2");
      }
    </style>
  </defs>
  <g stroke-linecap="round" transform="translate(106.59509130939296 211.6751533933384) rotate(0 16.78297213308906 16.516603817136456)"><path d="M33.57 16.52 C33.57 17.47, 33.48 18.44, 33.31 19.38 C33.14 20.33, 32.89 21.27, 32.55 22.17 C32.22 23.06, 31.8 23.95, 31.32 24.77 C30.83 25.6, 30.26 26.4, 29.64 27.13 C29.02 27.87, 28.32 28.55, 27.57 29.17 C26.83 29.78, 26.02 30.34, 25.17 30.82 C24.33 31.3, 23.44 31.71, 22.52 32.04 C21.61 32.36, 20.65 32.62, 19.7 32.78 C18.74 32.95, 17.75 33.03, 16.78 33.03 C15.81 33.03, 14.83 32.95, 13.87 32.78 C12.91 32.62, 11.96 32.36, 11.04 32.04 C10.13 31.71, 9.23 31.3, 8.39 30.82 C7.55 30.34, 6.74 29.78, 6 29.17 C5.25 28.55, 4.55 27.87, 3.93 27.13 C3.3 26.4, 2.73 25.6, 2.25 24.77 C1.76 23.95, 1.34 23.06, 1.01 22.17 C0.68 21.27, 0.42 20.33, 0.25 19.38 C0.09 18.44, 0 17.47, 0 16.52 C0 15.56, 0.09 14.59, 0.25 13.65 C0.42 12.71, 0.68 11.77, 1.01 10.87 C1.34 9.97, 1.76 9.09, 2.25 8.26 C2.73 7.43, 3.3 6.63, 3.93 5.9 C4.55 5.17, 5.25 4.48, 6 3.86 C6.74 3.25, 7.55 2.69, 8.39 2.21 C9.23 1.73, 10.13 1.32, 11.04 1 C11.96 0.67, 12.91 0.42, 13.87 0.25 C14.83 0.08, 15.81 0, 16.78 0 C17.75 0, 18.74 0.08, 19.7 0.25 C20.65 0.42, 21.61 0.67, 22.52 1 C23.44 1.32, 24.33 1.73, 25.17 2.21 C26.02 2.69, 26.83 3.25, 27.57 3.86 C28.32 4.48, 29.02 5.17, 29.64 5.9 C30.26 6.63, 30.83 7.43, 31.32 8.26 C31.8 9.09, 32.22 9.97, 32.55 10.87 C32.89 11.77, 33.14 12.71, 33.31 13.65 C33.48 14.59, 33.52 16.04, 33.57 16.52 C33.61 16.99, 33.61 16.04, 33.57 16.52" stroke="#000000" stroke-width="1.5" fill="none" stroke-dasharray="8 9"></path></g><g stroke-linecap="round" transform="translate(343.2572592393917 343.7224979301045) rotate(4.671131808171549 16.78297213308906 17.049401422423216)"><path d="M33.57 17.05 C33.57 18.04, 33.48 19.04, 33.31 20.01 C33.14 20.98, 32.89 21.95, 32.55 22.88 C32.22 23.81, 31.8 24.72, 31.32 25.57 C30.83 26.43, 30.26 27.25, 29.64 28.01 C29.02 28.76, 28.32 29.48, 27.57 30.11 C26.83 30.74, 26.02 31.32, 25.17 31.81 C24.33 32.31, 23.44 32.73, 22.52 33.07 C21.61 33.41, 20.65 33.67, 19.7 33.84 C18.74 34.01, 17.75 34.1, 16.78 34.1 C15.81 34.1, 14.83 34.01, 13.87 33.84 C12.91 33.67, 11.96 33.41, 11.04 33.07 C10.13 32.73, 9.23 32.31, 8.39 31.81 C7.55 31.32, 6.74 30.74, 6 30.11 C5.25 29.48, 4.55 28.76, 3.93 28.01 C3.3 27.25, 2.73 26.43, 2.25 25.57 C1.76 24.72, 1.34 23.81, 1.01 22.88 C0.68 21.95, 0.42 20.98, 0.25 20.01 C0.09 19.04, 0 18.04, 0 17.05 C0 16.06, 0.09 15.06, 0.25 14.09 C0.42 13.12, 0.68 12.15, 1.01 11.22 C1.34 10.29, 1.76 9.38, 2.25 8.52 C2.73 7.67, 3.3 6.85, 3.93 6.09 C4.55 5.33, 5.25 4.62, 6 3.99 C6.74 3.35, 7.55 2.78, 8.39 2.28 C9.23 1.79, 10.13 1.37, 11.04 1.03 C11.96 0.69, 12.91 0.43, 13.87 0.26 C14.83 0.09, 15.81 0, 16.78 0 C17.75 0, 18.74 0.09, 19.7 0.26 C20.65 0.43, 21.61 0.69, 22.52 1.03 C23.44 1.37, 24.33 1.79, 25.17 2.28 C26.02 2.78, 26.83 3.35, 27.57 3.99 C28.32 4.62, 29.02 5.33, 29.64 6.09 C30.26 6.85, 30.83 7.67, 31.32 8.52 C31.8 9.38, 32.22 10.29, 32.55 11.22 C32.89 12.15, 33.14 13.12, 33.31 14.09 C33.48 15.06, 33.52 16.56, 33.57 17.05 C33.61 17.54, 33.61 16.56, 33.57 17.05" stroke="#000000" stroke-width="1.5" fill="none" stroke-dasharray="8 9"></path></g><g stroke-linecap="round"><g transform="translate(142.38209155213372 233.38711640915426) rotate(0 130.31169027660962 -55.13286767865884)"><path d="M0 0 C43.44 -18.38, 217.19 -91.89, 260.62 -110.27 M0 0 C43.44 -18.38, 217.19 -91.89, 260.62 -110.27" stroke="#000000" stroke-width="1" fill="none"></path></g><g transform="translate(142.38209155213372 233.38711640915426) rotate(0 130.31169027660962 -55.13286767865884)"><path d="M238.66 -89.83 C245.32 -96.03, 251.99 -102.23, 260.62 -110.27 M238.66 -89.83 C243.25 -94.11, 247.85 -98.38, 260.62 -110.27" stroke="#000000" stroke-width="1" fill="none"></path></g><g transform="translate(142.38209155213372 233.38711640915426) rotate(0 130.31169027660962 -55.13286767865884)"><path d="M230.66 -108.73 C239.75 -109.2, 248.84 -109.66, 260.62 -110.27 M230.66 -108.73 C236.93 -109.05, 243.2 -109.37, 260.62 -110.27" stroke="#000000" stroke-width="1" fill="none"></path></g></g><g stroke-linecap="round"><g transform="translate(137.2455069602711 240.9408365371164) rotate(3.8789134570850092 103.01388570148356 50.41850946970044)"><path d="M0 0 C34.34 16.81, 171.69 84.03, 206.03 100.84 M0 0 C34.34 16.81, 171.69 84.03, 206.03 100.84" stroke="#000000" stroke-width="1" fill="none"></path></g><g transform="translate(137.2455069602711 240.9408365371164) rotate(3.8789134570850092 103.01388570148356 50.41850946970044)"><path d="M176.2 97.66 C186.74 98.78, 197.29 99.91, 206.03 100.84 M176.2 97.66 C185.02 98.6, 193.84 99.54, 206.03 100.84" stroke="#000000" stroke-width="1" fill="none"></path></g><g transform="translate(137.2455069602711 240.9408365371164) rotate(3.8789134570850092 103.01388570148356 50.41850946970044)"><path d="M185.22 79.23 C192.58 86.87, 199.93 94.51, 206.03 100.84 M185.22 79.23 C191.37 85.62, 197.53 92.01, 206.03 100.84" stroke="#000000" stroke-width="1" fill="none"></path></g></g><g stroke-linecap="round" transform="translate(410.8224865616867 104.18373278720537) rotate(0 21.045401754091472 15.717401311867434)"><path d="M0 0 C8.79 0, 17.59 0, 42.09 0 M42.09 0 C42.09 12.56, 42.09 25.11, 42.09 31.43 M42.09 31.43 C25.75 31.43, 9.4 31.43, 0 31.43 M0 31.43 C0 24.73, 0 18.02, 0 0" stroke="#000000" stroke-width="1.5" fill="none" stroke-dasharray="8 9"></path></g><g stroke-linecap="round" transform="translate(516.674320329048 345.2208048629418) rotate(0 21.045401754091472 15.717401311867434)"><path d="M0 0 C10.95 0, 21.91 0, 42.09 0 M42.09 0 C42.09 8.44, 42.09 16.88, 42.09 31.43 M42.09 31.43 C29.67 31.43, 17.26 31.43, 0 31.43 M0 31.43 C0 22.2, 0 12.96, 0 0" stroke="#000000" stroke-width="1.5" fill="none" stroke-dasharray="8 9"></path></g><g transform="translate(10 215.6435797916074) rotate(0 43.5 12.5)"><text x="0" y="20" font-family="Helvetica, Segoe UI Emoji" font-size="22.30542730004413px" fill="#2b8a3e" text-anchor="start" style="white-space: pre;" direction="ltr">?country</text></g><g transform="translate(189.71665246249177 354.5823995895298) rotate(0 64.5 12.5)"><text x="0" y="20" font-family="Helvetica, Segoe UI Emoji" font-size="22.30542730004413px" fill="#2b8a3e" text-anchor="start" style="white-space: pre;" direction="ltr">?capital_URI</text></g><g transform="translate(463.3308603314217 104.0228513720067) rotate(0 58 12.5)"><text x="0" y="20" font-family="Helvetica, Segoe UI Emoji" font-size="22.30542730004413px" fill="#2b8a3e" text-anchor="start" style="white-space: pre;" direction="ltr">?population</text></g><g transform="translate(568.2197627836795 347.20806933533095) rotate(0 39 12.5)"><text x="0" y="20" font-family="Helvetica, Segoe UI Emoji" font-size="22.30542730004413px" fill="#2b8a3e" text-anchor="start" style="white-space: pre;" direction="ltr">?capital</text></g><g transform="translate(201.9356391872352 269.1721231486317) rotate(29.366068201297946 54.5 12.5)"><text x="0" y="20" font-family="Helvetica, Segoe UI Emoji" font-size="22.30542730004413px" fill="#000000" text-anchor="start" style="white-space: pre;" direction="ltr">dbo:capital</text></g><g transform="translate(389.6385201042376 331.7477278240731) rotate(0.150354232738352 45.5 12.5)"><text x="0" y="20" font-family="Helvetica, Segoe UI Emoji" font-size="22.30542730004413px" fill="#000000" text-anchor="start" style="white-space: pre;" direction="ltr">rdfs:label</text></g><g transform="translate(176.53909413960537 147.78301437880145) rotate(337.7986036677547 100.5 12.5)"><text x="0" y="20" font-family="Helvetica, Segoe UI Emoji" font-size="22.305427300044133px" fill="#000000" text-anchor="start" style="white-space: pre;" direction="ltr">dbp:populationTotal </text></g><g stroke-linecap="round" transform="translate(238.57415262858194 10) rotate(0 19.666656494140625 20)"><path d="M4.85 6.86 C4.85 6.86, 4.85 6.86, 4.85 6.86 M4.85 6.86 C4.85 6.86, 4.85 6.86, 4.85 6.86 M1.3 17.03 C5.77 11.89, 10.24 6.75, 14.43 1.94 M1.3 17.03 C6.44 11.13, 11.57 5.22, 14.43 1.94 M0.39 24.19 C8.41 14.96, 16.43 5.74, 20.72 0.79 M0.39 24.19 C4.53 19.42, 8.67 14.66, 20.72 0.79 M2.75 27.57 C8.71 20.71, 14.68 13.85, 25.06 1.91 M2.75 27.57 C9.17 20.18, 15.59 12.8, 25.06 1.91 M4.46 31.7 C13.14 21.71, 21.82 11.73, 29.39 3.02 M4.46 31.7 C12.6 22.33, 20.75 12.95, 29.39 3.02 M6.82 35.08 C14.52 26.22, 22.21 17.37, 33.06 4.89 M6.82 35.08 C13.09 27.86, 19.37 20.64, 33.06 4.89 M9.84 37.7 C19.32 26.8, 28.8 15.89, 35.42 8.27 M9.84 37.7 C18.4 27.86, 26.95 18.01, 35.42 8.27 M13.51 39.57 C18.57 33.75, 23.63 27.93, 38.44 10.89 M13.51 39.57 C20.27 31.8, 27.02 24.03, 38.44 10.89 M17.84 40.69 C24.82 32.66, 31.8 24.63, 40.15 15.03 M17.84 40.69 C22.53 35.29, 27.22 29.9, 40.15 15.03 M23.49 40.29 C28.01 35.09, 32.53 29.89, 40.54 20.67 M23.49 40.29 C29.88 32.94, 36.27 25.59, 40.54 20.67" stroke="#fd7e14" stroke-width="0.5" fill="none"></path><path d="M39.33 20 C39.33 21.16, 39.23 22.33, 39.03 23.47 C38.84 24.61, 38.54 25.75, 38.15 26.84 C37.76 27.93, 37.27 29, 36.7 30 C36.13 31, 35.46 31.97, 34.73 32.86 C34 33.74, 33.18 34.58, 32.31 35.32 C31.44 36.07, 30.49 36.74, 29.5 37.32 C28.51 37.9, 27.46 38.4, 26.39 38.79 C25.32 39.19, 24.2 39.5, 23.08 39.7 C21.96 39.9, 20.81 40, 19.67 40 C18.53 40, 17.37 39.9, 16.25 39.7 C15.13 39.5, 14.01 39.19, 12.94 38.79 C11.87 38.4, 10.82 37.9, 9.83 37.32 C8.85 36.74, 7.9 36.07, 7.03 35.32 C6.15 34.58, 5.33 33.74, 4.6 32.86 C3.87 31.97, 3.2 31, 2.63 30 C2.07 29, 1.58 27.93, 1.19 26.84 C0.8 25.75, 0.5 24.61, 0.3 23.47 C0.1 22.33, 0 21.16, 0 20 C0 18.84, 0.1 17.67, 0.3 16.53 C0.5 15.39, 0.8 14.25, 1.19 13.16 C1.58 12.07, 2.07 11, 2.63 10 C3.2 9, 3.87 8.03, 4.6 7.14 C5.33 6.26, 6.15 5.42, 7.03 4.68 C7.9 3.93, 8.85 3.26, 9.83 2.68 C10.82 2.1, 11.87 1.6, 12.94 1.21 C14.01 0.81, 15.13 0.5, 16.25 0.3 C17.37 0.1, 18.53 0, 19.67 0 C20.81 0, 21.96 0.1, 23.08 0.3 C24.2 0.5, 25.32 0.81, 26.39 1.21 C27.46 1.6, 28.51 2.1, 29.5 2.68 C30.49 3.26, 31.44 3.93, 32.31 4.68 C33.18 5.42, 34 6.26, 34.73 7.14 C35.46 8.03, 36.13 9, 36.7 10 C37.27 11, 37.76 12.07, 38.15 13.16 C38.54 14.25, 38.84 15.39, 39.03 16.53 C39.23 17.67, 39.28 19.42, 39.33 20 C39.38 20.58, 39.38 19.42, 39.33 20" stroke="#000000" stroke-width="1" fill="none"></path></g><g transform="translate(286.7964562310117 13.75656854538829) rotate(0 55 11.5)"><text x="0" y="18" font-family="Helvetica, Segoe UI Emoji" font-size="20px" fill="#d9480f" text-anchor="start" style="white-space: pre;" direction="ltr">dbo:Country</text></g><g stroke-linecap="round"><g transform="translate(121.07421366373819 205.95240892682887) rotate(0 56.19732006835966 -86.66667175292969)"><path d="M0 0 C0.11 -13.44, -5.67 -56.11, 0.67 -80.67 C7 -105.22, 19 -131.89, 38 -147.33 C57 -162.78, 101.89 -169, 114.67 -173.33 M0 0 C0.11 -13.44, -5.67 -56.11, 0.67 -80.67 C7 -105.22, 19 -131.89, 38 -147.33 C57 -162.78, 101.89 -169, 114.67 -173.33" stroke="#000000" stroke-width="1" fill="none"></path></g><g transform="translate(121.07421366373819 205.95240892682887) rotate(0 56.19732006835966 -86.66667175292969)"><path d="M89.77 -156.6 C99.71 -163.28, 109.66 -169.97, 114.67 -173.33 M89.77 -156.6 C99.44 -163.1, 109.1 -169.59, 114.67 -173.33" stroke="#000000" stroke-width="1" fill="none"></path></g><g transform="translate(121.07421366373819 205.95240892682887) rotate(0 56.19732006835966 -86.66667175292969)"><path d="M84.84 -176.52 C96.75 -175.24, 108.67 -173.97, 114.67 -173.33 M84.84 -176.52 C96.42 -175.28, 108 -174.04, 114.67 -173.33" stroke="#000000" stroke-width="1" fill="none"></path></g></g><g transform="translate(142.4074656168632 86.95240892682887) rotate(0 8.5 16.5)"><text x="0" y="26" font-family="Helvetica, Segoe UI Emoji" font-size="28.888854980468754px" fill="#000000" text-anchor="start" style="white-space: pre;" direction="ltr">a</text></g><g stroke-linecap="round"><g transform="translate(380.4860016277871 361.67911684524006) rotate(0 66.10896265317479 -0.25469187844009866)"><path d="M0 0 C22.04 -0.08, 110.18 -0.42, 132.22 -0.51 M0 0 C22.04 -0.08, 110.18 -0.42, 132.22 -0.51" stroke="#000000" stroke-width="1" fill="none"></path></g><g transform="translate(380.4860016277871 361.67911684524006) rotate(0 66.10896265317479 -0.25469187844009866)"><path d="M104.07 9.86 C110.87 7.35, 117.68 4.85, 132.22 -0.51 M104.07 9.86 C111.01 7.3, 117.96 4.74, 132.22 -0.51" stroke="#000000" stroke-width="1" fill="none"></path></g><g transform="translate(380.4860016277871 361.67911684524006) rotate(0 66.10896265317479 -0.25469187844009866)"><path d="M103.99 -10.66 C110.81 -8.21, 117.64 -5.75, 132.22 -0.51 M103.99 -10.66 C110.95 -8.16, 117.92 -5.65, 132.22 -0.51" stroke="#000000" stroke-width="1" fill="none"></path></g></g></svg>